<?xml version="1.0" encoding="utf-8"?>
<!-- Generator: Adobe Illustrator 20.1.0, SVG Export Plug-In . SVG Version: 6.00 Build 0)  -->
<svg version="1.1" id="Layer_1" xmlns="http://www.w3.org/2000/svg" xmlns:xlink="http://www.w3.org/1999/xlink" x="0px" y="0px"
	 viewBox="0 0 600 600" style="enable-background:new 0 0 600 600;" xml:space="preserve">
<style type="text/css">
	.st0{fill:#222222;}
</style>
<g>
	<path class="st0" d="M432.2,405.2c2.3,2.7,3.5,6.2,3.8,10.7c0.3,4.4-0.6,7.9-2.5,10.3c-1.9,2.4-4.5,3.7-8,3.9
		c-3.4,0.2-6.4-0.4-9-1.7c-2.6-1.3-5.9-3.7-10.1-7.1l-8.6-6.9l-0.2,0l1,18l-8.2,0.5l-1.7-29.1l7.9-0.5l11.9,9.2
		c4.7,3.6,7.9,5.9,9.7,6.9c1.8,1,3.7,1.4,5.6,1.3c3.2-0.2,4.7-2,4.5-5.3c-0.1-1.9-0.7-3.4-1.9-4.2s-2.9-1.4-5.2-1.6l1-8.7
		C426.6,401.1,429.9,402.6,432.2,405.2z"/>
	<path class="st0" d="M390.7,452.1c-0.3-6,1.4-10.3,5.2-12.9s9.6-4.2,17.5-4.6c7.9-0.4,13.8,0.5,17.9,2.9c4,2.4,6.2,6.5,6.6,12.5
		c0.3,6-1.3,10.2-5,12.8c-3.7,2.6-9.5,4.1-17.4,4.5c-7.9,0.5-13.9-0.5-18.1-2.7C393.3,462.2,391.1,458.1,390.7,452.1z M426.5,445.2
		c-2.4-0.8-6.6-1-12.5-0.7c-5.9,0.3-10.1,1-12.4,2s-3.5,2.8-3.3,5.3c0.1,2.5,1.5,4.1,3.9,4.9s6.7,0.9,12.7,0.6
		c6-0.3,10.1-1,12.4-1.9c2.2-1,3.3-2.7,3.1-5.2C430.2,447.7,428.9,446,426.5,445.2z"/>
	<path class="st0" d="M393.7,491.1l-0.5-9.5l34.2-1.9c-0.6-0.9-1.1-2.5-1.6-4.6c-0.5-2.1-0.8-3.8-0.9-5l8.1-0.9
		c0.8,6,2.7,10.3,5.8,12.9l0.4,6.5L393.7,491.1z"/>
	<path class="st0" d="M394.2,513.4c-0.3-5.3,0.6-9.3,2.7-12.2c2.1-2.8,4.8-4.4,8.2-4.6c5.5-0.3,9.7,2.4,12.7,8.1
		c2-4.8,5.3-7.4,10.1-7.7c3.9-0.2,7,1,9.4,3.8s3.7,6.5,4,11.2c0.3,4.8-0.5,8.6-2.3,11.3c-1.8,2.7-4.3,4.2-7.5,4.4
		c-2.4,0.1-4.5-0.4-6.3-1.6c-1.8-1.2-3.5-3.1-5.1-5.6c-1.3,3.1-2.8,5.3-4.6,6.7c-1.8,1.4-4.2,2.2-7.3,2.4c-3.7,0.2-6.9-1.1-9.6-3.9
		C396,522.7,394.5,518.7,394.2,513.4z M406.7,506.1c-3.8,0.2-5.5,2.6-5.3,7.1c0.1,2.2,0.7,3.9,1.9,5c1.1,1.1,2.3,1.6,3.7,1.6
		c1.4-0.1,2.4-0.3,3.2-0.8c1.3-0.8,2.4-2.4,3.4-4.8c0.3-0.8,0.7-1.9,1.1-3.3c-1.1-1.6-2.2-2.9-3.4-3.7
		C410,506.4,408.5,506,406.7,506.1z M434.5,512.2c-0.1-1.7-0.6-3.1-1.4-4.1c-0.8-1-2-1.5-3.4-1.4c-1.4,0.1-2.7,0.7-3.7,1.9
		c-1,1.1-2,2.9-2.9,5.3c2.1,3.1,4.5,4.6,7.3,4.4C433.3,518.1,434.7,516.1,434.5,512.2z"/>
</g>
<path class="st0" d="M112.5,408.1l33.9,4.7l27.7,134.3l-30-4.1l-6.2-32.4l-45.8-6.2l-14.4,29.5l-24.6-3.4L112.5,408.1z M135.2,487.9
	l-9.1-51.8l-0.6-0.1l-23.1,47.3L135.2,487.9L135.2,487.9z M208.3,470.7l3.2,41.6l-27.4,2l-9.8-128.9l48.8-3.7
	c15.2-1.1,26.5,1.8,33.8,8.9c7.3,7,11.3,16.4,12.2,28.1c2.4,31.4-13.3,48.3-46.8,50.9L208.3,470.7L208.3,470.7z M206.6,448.6l11-0.9
	c7.9-0.6,14-2.8,18.2-6.4s6-9.4,5.4-17.7c-0.6-8.3-3.1-13.6-7.3-16.2s-10.1-3.6-17.5-2.9l-13.1,1L206.6,448.6L206.6,448.6z
	 M306.3,474.8l-3.6,49l-27.4-2l9.6-128.9l50.1,3.7c14.9,1.1,25.5,5.4,31.9,12.6c6.2,7.4,9.1,16.3,8.3,26.8
	c-1.3,17.9-9.6,29.6-24.9,35.2l25,57.9l-29.5-2.2L324,476L306.3,474.8z M308,453.2l14,1c15.6,1.1,23.7-4.7,24.7-17.7
	c0.5-6-1-10.5-4.5-13.4c-3.4-2.9-8.9-4.7-16.4-5.1l-15-1.1L308,453.2z M496.1,411.7l-13.9,105.2l54.8,7.3l-3.1,23l-82.1-10.8
	l17-128.1L496.1,411.7z"/>
</svg>
