<?xml version="1.0" encoding="utf-8"?>
<!-- Generator: Adobe Illustrator 19.2.1, SVG Export Plug-In . SVG Version: 6.00 Build 0)  -->
<svg version="1.1" id="Layer_1" xmlns="http://www.w3.org/2000/svg" xmlns:xlink="http://www.w3.org/1999/xlink" x="0px" y="0px"
	 viewBox="0 0 600 600" style="enable-background:new 0 0 600 600;" xml:space="preserve">
<style type="text/css">
	.st0{fill:#222222;}
</style>
<path class="st0" d="M147.9,261.2l26.6,3.7l21.7,105.3l-23.5-3.2l-4.9-25.4l-35.9-4.9l-11.3,23.1l-19.3-2.7L147.9,261.2z
	 M165.7,323.8l-7.1-40.6l-0.5-0.1L140,320.2L165.7,323.8L165.7,323.8z M223,310.3l2.5,32.6l-21.5,1.6l-7.7-101.1l38.3-2.9
	c11.9-0.9,20.8,1.4,26.5,7c5.7,5.5,8.9,12.9,9.6,22c1.9,24.6-10.4,37.9-36.7,39.9L223,310.3L223,310.3z M221.7,293l8.6-0.7
	c6.2-0.5,11-2.2,14.3-5s4.7-7.4,4.2-13.9s-2.4-10.7-5.7-12.7s-7.9-2.8-13.7-2.3l-10.3,0.8L221.7,293L221.7,293z M299.9,313.5
	l-2.8,38.4l-21.5-1.6l7.5-101.1l39.3,2.9c11.7,0.9,20,4.2,25,9.9c4.9,5.8,7.1,12.8,6.5,21c-1,14-7.5,23.2-19.5,27.6L354,356
	l-23.1-1.7l-17.1-39.9L299.9,313.5z M301.2,296.6l11,0.8c12.2,0.9,18.6-3.7,19.4-13.9c0.4-4.7-0.8-8.2-3.5-10.5s-7-3.7-12.9-4
	l-11.8-0.9L301.2,296.6z M448.7,264l-10.9,82.5l43,5.7l-2.4,18l-64.4-8.5l13.3-100.5L448.7,264z M392.7,246.2c1.9,2,3,4.8,3.3,8.3
	c0.4,3.5-0.2,6.2-1.6,8.2s-3.4,3.1-6.1,3.4s-5.1-0.1-7.2-1s-4.8-2.7-8.2-5.2l-7-5.2h-0.1l1.5,14.1l-6.4,0.7l-2.4-22.9l6.2-0.6
	l9.7,6.8c3.8,2.7,6.4,4.4,7.9,5.1c1.4,0.7,2.9,1,4.5,0.8c2.5-0.3,3.6-1.7,3.4-4.4c-0.2-1.5-0.7-2.6-1.7-3.3c-0.9-0.7-2.3-1-4.1-1.1
	l0.4-6.8C388.1,243.1,390.8,244.2,392.7,246.2L392.7,246.2z M362,284.5c-0.5-4.7,0.7-8.2,3.6-10.4c2.9-2.2,7.4-3.6,13.6-4.3
	c6.2-0.6,10.9-0.1,14.2,1.6c3.3,1.7,5.2,4.9,5.7,9.6s-0.7,8.1-3.5,10.3c-2.8,2.1-7.3,3.5-13.5,4.2c-6.2,0.6-11,0.1-14.3-1.5
	C364.4,292.4,362.5,289.2,362,284.5L362,284.5z M389.9,277.8c-2-0.5-5.3-0.6-9.9-0.1c-4.7,0.5-7.9,1.2-9.7,2s-2.6,2.3-2.4,4.3
	s1.3,3.2,3.3,3.7s5.3,0.5,10,0s7.9-1.1,9.7-2c1.7-0.8,2.5-2.2,2.3-4.2C392.9,279.6,391.9,278.3,389.9,277.8L389.9,277.8z
	 M365.8,315.7l-0.8-7.5l26.9-2.8c-0.5-0.7-1-1.9-1.5-3.6s-0.8-3-0.9-3.9l6.4-1c0.8,4.7,2.5,8,5.1,10l0.5,5.1L365.8,315.7
	L365.8,315.7z"/>
<path class="st0" d="M397.7,333.9c0.6-0.7,0.8-1.7,0.7-3.1s-0.8-2.4-2.1-3.2c-2.3-1.5-5.6-2.1-9.9-1.8c2.1,1.8,3.2,4.3,3.6,7.3
	c0.3,3-0.3,5.5-1.9,7.4s-4.1,3.1-7.4,3.4c-4,0.4-7.2-0.4-9.5-2.4s-3.7-4.9-4-8.5c-0.5-4.9,0.9-8.4,4.1-10.6c2.9-2,7-3.3,12.2-3.8
	c3.9-0.4,7.4-0.2,10.6,0.7c1.9,0.5,3.5,1.2,4.9,2.1s2.6,2.2,3.6,3.8c1,1.7,1.6,3.6,1.8,5.8c0.6,5.7-1.8,9.4-7.2,11.1l-2.5-6.5
	C396,335.2,397.1,334.7,397.7,333.9L397.7,333.9z M373.7,329.5c-0.8,0.8-1.2,2-1.1,3.3c0.1,1.4,0.8,2.4,2,3s2.7,0.8,4.5,0.7
	c1.8-0.2,3.2-0.6,3.9-1.4c0.8-0.7,1.1-1.9,0.9-3.6c-0.2-1.6-1.1-3.2-2.7-4.7c-1.9,0.3-3.4,0.5-4.5,0.9
	C375.6,328,374.5,328.6,373.7,329.5L373.7,329.5z"/>
</svg>
