<?xml version="1.0" encoding="utf-8"?>
<!-- Generator: Adobe Illustrator 19.2.1, SVG Export Plug-In . SVG Version: 6.00 Build 0)  -->
<svg version="1.1" id="Layer_1" xmlns="http://www.w3.org/2000/svg" xmlns:xlink="http://www.w3.org/1999/xlink" x="0px" y="0px"
	 viewBox="0 0 600 600" style="enable-background:new 0 0 600 600;" xml:space="preserve">
<style type="text/css">
	.st0{fill:#222222;}
</style>
<path class="st0" d="M112.5,408.1l33.9,4.7l27.7,134.3l-30-4.1l-6.2-32.4l-45.8-6.2l-14.4,29.5l-24.6-3.4L112.5,408.1z M135.2,487.9
	l-9.1-51.8l-0.6-0.1l-23.1,47.3L135.2,487.9L135.2,487.9z M208.3,470.7l3.2,41.6l-27.4,2l-9.8-128.9l48.8-3.7
	c15.2-1.1,26.5,1.8,33.8,8.9c7.3,7,11.3,16.4,12.2,28.1c2.4,31.4-13.3,48.3-46.8,50.9L208.3,470.7L208.3,470.7z M206.6,448.6l11-0.9
	c7.9-0.6,14-2.8,18.2-6.4c4.2-3.6,6-9.4,5.4-17.7c-0.6-8.3-3.1-13.6-7.3-16.2s-10.1-3.6-17.5-2.9l-13.1,1L206.6,448.6L206.6,448.6z
	 M306.3,474.8l-3.6,49l-27.4-2l9.6-128.9l50.1,3.7c14.9,1.1,25.5,5.4,31.9,12.6c6.2,7.4,9.1,16.3,8.3,26.8
	c-1.3,17.9-9.6,29.6-24.9,35.2l25,57.9l-29.5-2.2l-21.8-50.9L306.3,474.8z M308,453.2l14,1c15.6,1.1,23.7-4.7,24.7-17.7
	c0.5-6-1-10.5-4.5-13.4c-3.4-2.9-8.9-4.7-16.4-5.1l-15-1.1L308,453.2z M496.1,411.7l-13.9,105.2l54.8,7.3l-3.1,23l-82.1-10.8
	l17-128.1L496.1,411.7z"/>
<g>
	<path class="st0" d="M429.8,404.1c2.3,2.6,3.6,6,4,10.2c0.4,4.2-0.4,7.7-2.2,10.1c-1.8,2.4-4.3,3.7-7.7,4.1
		c-3.3,0.3-6.2-0.1-8.8-1.4c-2.6-1.1-5.9-3.4-9.9-6.6l-8.5-6.5h-0.1l1.4,17.5l-7.9,0.6l-2.3-28.3l7.7-0.6l11.9,8.5
		c4.6,3.4,7.8,5.6,9.6,6.5s3.6,1.3,5.5,1.1c3.1-0.3,4.5-2,4.2-5.4c-0.1-1.9-0.8-3.2-1.9-4.1c-1.1-0.8-2.8-1.3-5.1-1.4l0.8-8.4
		C424.3,400.2,427.6,401.6,429.8,404.1z"/>
	<path class="st0" d="M390.9,451.8c-0.5-5.9,1.1-10.1,4.7-12.8c3.6-2.7,9.2-4.3,16.8-5c7.7-0.6,13.5,0.1,17.5,2.3
		c4,2.2,6.2,6.2,6.8,12s-1,9.9-4.5,12.6c-3.4,2.6-9.1,4.2-16.7,4.8c-7.7,0.6-13.5-0.1-17.6-2.2C393.6,461.6,391.4,457.7,390.9,451.8
		z M425.4,444.3c-2.4-0.8-6.5-0.9-12.2-0.4c-5.7,0.5-9.7,1.3-12,2.3c-2.3,1-3.3,2.8-3.1,5.2s1.5,4,4,4.6c2.4,0.6,6.5,0.8,12.4,0.3
		c5.9-0.5,9.8-1.3,12-2.2c2.2-1,3.2-2.7,2.9-5.1C429.1,446.6,427.9,445.1,425.4,444.3z"/>
	<path class="st0" d="M394.8,490.8l-0.8-9.2l33.2-2.8c-0.6-0.9-1.1-2.4-1.7-4.5c-0.5-2-0.9-3.7-1-4.8l7.9-1.1
		c0.9,5.7,2.9,9.9,6,12.4l0.5,6.2L394.8,490.8z"/>
	<path class="st0" d="M431.5,493.5l7.9-0.6l2.4,28.9l-7.1,0.6l-38.5-13.8l-0.8-9.8l37.7,14L431.5,493.5z"/>
</g>
</svg>
