<?xml version="1.0" encoding="utf-8"?>
<!-- Generator: Adobe Illustrator 20.1.0, SVG Export Plug-In . SVG Version: 6.00 Build 0)  -->
<svg version="1.1" id="Layer_1" xmlns="http://www.w3.org/2000/svg" xmlns:xlink="http://www.w3.org/1999/xlink" x="0px" y="0px"
	 viewBox="0 0 600 600" style="enable-background:new 0 0 600 600;" xml:space="preserve">
<style type="text/css">
	.st0{fill:#222222;}
</style>
<g>
	<path class="st0" d="M428.7,407.7c2.1,2.5,3.3,5.9,3.6,10.1c0.2,4.2-0.5,7.5-2.3,9.8c-1.8,2.3-4.3,3.6-7.6,3.8
		c-3.3,0.2-6.1-0.3-8.6-1.6c-2.5-1.2-5.7-3.5-9.6-6.7l-8.2-6.6l-0.2,0l1,17.1l-7.8,0.5l-1.6-27.8l7.5-0.4l11.4,8.7
		c4.4,3.4,7.5,5.6,9.2,6.6c1.7,0.9,3.5,1.4,5.4,1.2c3-0.2,4.5-1.9,4.3-5.1c-0.1-1.9-0.7-3.2-1.8-4c-1.1-0.8-2.7-1.3-4.9-1.5l0.9-8.2
		C423.4,403.8,426.5,405.2,428.7,407.7z"/>
	<path class="st0" d="M389.4,453.6c-0.3-5.7,1.3-9.8,4.9-12.3c3.6-2.5,9.1-4,16.6-4.4c7.5-0.4,13.2,0.5,17,2.7
		c3.9,2.2,6,6.2,6.3,11.9c0.3,5.7-1.2,9.8-4.7,12.2c-3.5,2.4-9,3.9-16.5,4.3c-7.5,0.4-13.3-0.4-17.2-2.6
		C391.8,463.3,389.7,459.3,389.4,453.6z M423.4,447c-2.3-0.8-6.3-1-11.9-0.6s-9.6,1-11.8,1.9c-2.2,1-3.3,2.6-3.1,5
		c0.1,2.4,1.4,3.9,3.8,4.6c2.4,0.7,6.4,0.9,12.1,0.6c5.7-0.3,9.6-1,11.8-1.9c2.1-0.9,3.1-2.5,3-4.9C427,449.3,425.7,447.8,423.4,447
		z"/>
	<path class="st0" d="M392.4,491.9l-0.5-9l32.6-1.9c-0.5-0.9-1.1-2.3-1.6-4.4c-0.5-2-0.8-3.6-0.8-4.8l7.8-0.9
		c0.8,5.7,2.6,9.8,5.6,12.3l0.4,6.2L392.4,491.9z"/>
	<path class="st0" d="M399.7,513c0.1,2.5,1.6,4.3,4.2,5.4s6,1.6,10,1.5c-2.2-2.2-3.4-5.2-3.6-9c-0.2-3.7,0.7-6.7,2.7-9
		c2-2.2,5.3-3.5,9.8-3.7c4.5-0.3,8,0.9,10.7,3.6c2.7,2.7,4.1,6.3,4.4,10.8c0.3,5.7-1.5,9.8-5.6,12.2c-3.7,2.2-8.6,3.5-14.9,3.9
		c-15.7,0.9-23.9-4.2-24.5-15.5c-0.4-7.8,2.7-12.6,9.5-14.2l2.9,7.9c-2,0.5-3.5,1.2-4.4,2.1C400,510.1,399.6,511.4,399.7,513z
		 M430.8,512.4c-0.2-3.5-2.6-5.2-7.2-4.9c-4.6,0.3-6.8,2.1-6.6,5.5c0.1,2.2,1.1,4.3,3,6.1c3.4-0.4,5.8-0.8,7.3-1.4
		c1.4-0.6,2.4-1.3,2.9-2.2C430.7,514.6,430.9,513.6,430.8,512.4z"/>
</g>
<path class="st0" d="M112.5,408.1l33.9,4.7l27.7,134.3l-30-4.1l-6.2-32.4l-45.8-6.2l-14.4,29.5l-24.6-3.4L112.5,408.1z M135.2,487.9
	l-9.1-51.8l-0.6-0.1l-23.1,47.3L135.2,487.9L135.2,487.9z M208.3,470.7l3.2,41.6l-27.4,2l-9.8-128.9l48.8-3.7
	c15.2-1.1,26.5,1.8,33.8,8.9c7.3,7,11.3,16.4,12.2,28.1c2.4,31.4-13.3,48.3-46.8,50.9L208.3,470.7L208.3,470.7z M206.6,448.6l11-0.9
	c7.9-0.6,14-2.8,18.2-6.4s6-9.4,5.4-17.7c-0.6-8.3-3.1-13.6-7.3-16.2s-10.1-3.6-17.5-2.9l-13.1,1L206.6,448.6L206.6,448.6z
	 M306.3,474.8l-3.6,49l-27.4-2l9.6-128.9l50.1,3.7c14.9,1.1,25.5,5.4,31.9,12.6c6.2,7.4,9.1,16.3,8.3,26.8
	c-1.3,17.9-9.6,29.6-24.9,35.2l25,57.9l-29.5-2.2L324,476L306.3,474.8z M308,453.2l14,1c15.6,1.1,23.7-4.7,24.7-17.7
	c0.5-6-1-10.5-4.5-13.4c-3.4-2.9-8.9-4.7-16.4-5.1l-15-1.1L308,453.2z M496.1,411.7l-13.9,105.2l54.8,7.3l-3.1,23l-82.1-10.8
	l17-128.1L496.1,411.7z"/>
</svg>
