<svg class="Layer_1" xmlns="http://www.w3.org/2000/svg" viewBox="0 0 600 600"><style>.st0{fill:#fff}</style><path class="st0" d="M147.9 261.2l26.6 3.7 21.7 105.3-23.5-3.2-4.9-25.4-35.9-4.9-11.3 23.1-19.3-2.7 46.6-95.9zm17.8 62.6l-7.1-40.6-.5-.1-18.1 37.1 25.7 3.6zM223 310.3l2.5 32.6-21.5 1.6-7.7-101.1 38.3-2.9c11.9-.9 20.8 1.4 26.5 7 5.7 5.5 8.9 12.9 9.6 22 1.9 24.6-10.4 37.9-36.7 39.9l-11 .9zm-1.3-17.3l8.6-.7c6.2-.5 11-2.2 14.3-5 3.3-2.8 4.7-7.4 4.2-13.9s-2.4-10.7-5.7-12.7c-3.3-2-7.9-2.8-13.7-2.3l-10.3.8 2.6 33.8zM299.9 313.5l-2.8 38.4-21.5-1.6 7.5-101.1 39.3 2.9c11.7.9 20 4.2 25 9.9 4.9 5.8 7.1 12.8 6.5 21-1 14-7.5 23.2-19.5 27.6L354 356l-23.1-1.7-17.1-39.9-13.9-.9zm1.3-16.9l11 .8c12.2.9 18.6-3.7 19.4-13.9.4-4.7-.8-8.2-3.5-10.5-2.7-2.3-7-3.7-12.9-4l-11.8-.9-2.2 28.5zM448.7 264l-10.9 82.5 43 5.7-2.4 18-64.4-8.5 13.3-100.5 21.4 2.8zM392.7 246.2c1.9 2 3 4.8 3.3 8.3.4 3.5-.2 6.2-1.6 8.2-1.4 2-3.4 3.1-6.1 3.4-2.7.3-5.1-.1-7.2-1-2.1-.9-4.8-2.7-8.2-5.2l-7-5.2h-.1l1.5 14.1-6.4.7-2.4-22.9 6.2-.6 9.7 6.8c3.8 2.7 6.4 4.4 7.9 5.1 1.4.7 2.9 1 4.5.8 2.5-.3 3.6-1.7 3.4-4.4-.2-1.5-.7-2.6-1.7-3.3-.9-.7-2.3-1-4.1-1.1l.4-6.8c3.3 0 6 1.1 7.9 3.1zM362 284.5c-.5-4.7.7-8.2 3.6-10.4 2.9-2.2 7.4-3.6 13.6-4.3 6.2-.6 10.9-.1 14.2 1.6 3.3 1.7 5.2 4.9 5.7 9.6.5 4.7-.7 8.1-3.5 10.3-2.8 2.1-7.3 3.5-13.5 4.2-6.2.6-11 .1-14.3-1.5-3.4-1.6-5.3-4.8-5.8-9.5zm27.9-6.7c-2-.5-5.3-.6-9.9-.1-4.7.5-7.9 1.2-9.7 2s-2.6 2.3-2.4 4.3c.2 2 1.3 3.2 3.3 3.7 2 .5 5.3.5 10 0s7.9-1.1 9.7-2c1.7-.8 2.5-2.2 2.3-4.2-.3-1.9-1.3-3.2-3.3-3.7zM365.8 315.7l-.8-7.5 26.9-2.8c-.5-.7-1-1.9-1.5-3.6-.5-1.7-.8-3-.9-3.9l6.4-1c.8 4.7 2.5 8 5.1 10l.5 5.1-35.7 3.7z"/><path class="year year--2018 st0" d="M367 333.4c-.4-4.1.1-7.4 1.7-9.7 1.6-2.3 3.7-3.6 6.3-3.9 4.3-.4 7.8 1.5 10.3 5.9 1.4-3.9 3.9-6 7.7-6.4 3.1-.3 5.6.6 7.6 2.7s3.2 5 3.6 8.7c.4 3.8-.1 6.8-1.4 9-1.3 2.2-3.2 3.4-5.8 3.7-1.9.2-3.6-.1-5-1s-2.8-2.3-4.2-4.3c-.9 2.4-2 4.3-3.3 5.4-1.3 1.2-3.2 1.9-5.7 2.1-2.9.3-5.5-.6-7.7-2.8-2.4-2.1-3.7-5.2-4.1-9.4zm9.6-6.2c-3 .3-4.3 2.2-3.9 5.8.2 1.8.7 3.1 1.6 3.9.9.8 1.9 1.2 2.9 1.1 1.1-.1 1.9-.4 2.5-.7 1-.6 1.8-1.9 2.5-3.9.2-.6.5-1.5.8-2.6-.9-1.3-1.8-2.2-2.8-2.8-1-.7-2.2-.9-3.6-.8zm22.1 3.8c-.1-1.4-.6-2.4-1.3-3.2-.7-.8-1.6-1.1-2.7-1-1.1.1-2.1.6-2.9 1.6-.7.9-1.5 2.4-2.1 4.3 1.8 2.4 3.7 3.4 5.9 3.2 2.4-.2 3.4-1.8 3.1-4.9z"/><path class="year year--2017 st0" d="M396 320.3l6.4-.7 2.4 23.5-5.7.6-31.5-10.5-.8-7.9 30.8 10.8-1.6-15.8z"/><path class="year year--2016 st0" d="M397.7 333.9c.6-.7.8-1.7.7-3.1s-.8-2.4-2.1-3.2c-2.3-1.5-5.6-2.1-9.9-1.8 2.1 1.8 3.2 4.3 3.6 7.3.3 3-.3 5.5-1.9 7.4-1.6 1.9-4.1 3.1-7.4 3.4-4 .4-7.2-.4-9.5-2.4s-3.7-4.9-4-8.5c-.5-4.9.9-8.4 4.1-10.6 2.9-2 7-3.3 12.2-3.8 3.9-.4 7.4-.2 10.6.7 1.9.5 3.5 1.2 4.9 2.1 1.4.9 2.6 2.2 3.6 3.8 1 1.7 1.6 3.6 1.8 5.8.6 5.7-1.8 9.4-7.2 11.1l-2.5-6.5c1.3-.4 2.4-.9 3-1.7zm-24-4.4c-.8.8-1.2 2-1.1 3.3.1 1.4.8 2.4 2 3 1.2.6 2.7.8 4.5.7 1.8-.2 3.2-.6 3.9-1.4.8-.7 1.1-1.9.9-3.6-.2-1.6-1.1-3.2-2.7-4.7-1.9.3-3.4.5-4.5.9-1.1.3-2.2.9-3 1.8z"/><path class="year year--2015 st0" d="M404.6 338.5l-6.4.7-1.4-13.5-9 .1c1.8 1.7 2.8 3.9 3.1 6.7.3 2.8-.4 5.2-2 7.1-1.6 1.9-4.3 3.1-8.1 3.5-3.8.4-6.9-.4-9.4-2.5-2.4-2.1-3.9-5.1-4.3-9-.3-3.2.2-5.9 1.4-8.1 1.2-2.2 3.4-3.7 6.6-4.5l2 6.3c-3.1.8-4.4 2.6-4.1 5.7.2 1.5.8 2.8 2 3.7 1.2.9 2.8 1.3 4.8 1 3.7-.4 5.3-2.1 5-5.3-.2-1.9-1.2-3.5-2.9-5l1.5-5.1 19.2-.6 2 18.8z"/></svg>