<?xml version="1.0" encoding="utf-8"?>
<!-- Generator: Adobe Illustrator 19.2.1, SVG Export Plug-In . SVG Version: 6.00 Build 0)  -->
<svg version="1.1" id="Layer_1" xmlns="http://www.w3.org/2000/svg" xmlns:xlink="http://www.w3.org/1999/xlink" x="0px" y="0px"
	 viewBox="0 0 600 600" style="enable-background:new 0 0 600 600;" xml:space="preserve">
<style type="text/css">
	.st0{fill:#222222;}
</style>
<path class="st0" d="M83.2,81.5h24.1l32.2,90.8h-21.3l-7.4-21.9H78.2l-7.3,21.9H53.5L83.2,81.5z M106.7,134.8L95.4,99.7H95
	l-11.6,35.1L106.7,134.8L106.7,134.8z M172.2,250c2.4,3.3,6.9,5,13.3,5c6.4,0,10.8-1.5,13.2-4.7c2.3-3.1,3.6-8.5,3.6-16.1V179h19.3
	v58c0,22.8-12.2,34.2-36.6,34.3c-12.5,0-21.5-2.8-27.1-8.4s-8.5-14.4-8.5-26.4V179h19.3v54.9C168.5,241.3,169.8,246.7,172.2,250z
	 M258.3,272.8c-15.8,0-23.7,10.6-23.7,31.7c0,10.4,1.9,18.1,5.6,23.2c3.7,5.1,9.5,7.6,17.4,7.6c5.8,0,10.4-1.4,13.7-4.4
	c3.3-3,4.9-6.7,4.8-11.2v-3.3h-16.8V302H295v47.3h-14l-2.2-11.1c-1.9,3.9-5.2,7-10,9.2s-10.1,3.4-15.9,3.4c-13.1,0-22.8-4.1-29-12.3
	c-6.2-8.2-9.3-19.5-9.3-34s3.8-26.1,11.3-34.7s18.4-13,32.6-13c10.4,0,18.7,2.5,25.1,7.6s9.9,13.1,10.6,24l-17.9,1.7
	c-0.5-5.5-2.2-9.8-4.9-12.8C268.7,274.4,264.3,272.8,258.3,272.8L258.3,272.8z M333.2,410.4c2.4,3.3,6.9,5,13.3,5s10.8-1.5,13.2-4.7
	c2.3-3.1,3.6-8.5,3.6-16.1v-55.3h19.3v58.1c0,22.8-12.2,34.2-36.6,34.3c-12.5,0-21.5-2.8-27.1-8.4c-5.7-5.6-8.5-14.4-8.5-26.4v-57.5
	h19.3v54.9C329.5,401.7,330.7,407,333.2,410.4L333.2,410.4z M420,425.2c-9.2,0-13.9,3.2-14,9.8c0,4.8,3.1,8.3,9.3,10.6
	c2.8,1.1,5.8,2.2,9,3.1c3.2,1,6.6,2.2,10,3.2s6.5,2.5,9.4,4.4c2.9,1.8,5.1,4.3,6.9,7.6c1.7,3.3,2.6,7.2,2.5,11.7
	c0,9.6-3.3,16.8-9.9,21.5s-15,7.1-24.9,7.2c-22.1,0-33.8-9.6-35.1-28.8l17.6-2.6c0.9,5.2,2.7,9.2,5.1,12c2.5,2.8,6.8,4.2,12.9,4.2
	c10,0,15.1-3.8,15.1-11.3c0-2.5-0.9-4.7-2.6-6.4c-1.8-1.8-4-3-6.8-3.9c-2.8-0.8-5.8-1.7-9.1-2.6c-7.9-1.8-14.2-4.3-19.3-7.5
	c-2.8-1.8-5-4.4-6.7-7.7c-1.8-3.3-2.6-7.3-2.6-12.1c0-8.5,3.1-15.2,9.4-20.1c6.3-4.8,14-7.3,23.1-7.3s16.6,1.7,22.3,5.2
	c6.5,3.8,10.1,10.9,10.8,21.4l-17.8,2.1c-0.4-4.6-1.7-8-3.9-10.3C428.3,426.5,424.8,425.2,420,425.2L420,425.2z M508.2,585.4H489
	v-74.5h-26.9v-16.3h72.7v16.3h-26.6L508.2,585.4L508.2,585.4z M112.4,489.1c5.6-4.2,12.7-6.3,21.6-6.3s15.6,2.1,20.2,6.1
	c4.6,4,6.9,9.5,6.9,16.3c0,6.9-1.4,12.8-4.4,17.7c-2.9,5-8,11.4-15.2,19.3l-14.8,16.3v0.4h35.9v16.3h-58.1v-15.8l19.5-22.7
	c7.7-8.9,12.6-15,14.9-18.5c2.2-3.5,3.2-7.1,3.2-11c0-6.4-3.4-9.6-10.1-9.6c-3.9,0-6.7,1.1-8.6,3.3s-3.1,5.6-3.8,10.1l-17.1-2.9
	C103.6,499.7,106.9,493.3,112.4,489.1L112.4,489.1z M200.7,565.2c-12,0-20.3-3.9-25.1-11.7c-4.7-7.8-7.2-19.5-7.2-35.3
	c0-15.7,2.6-27.4,7.7-35.2s13.7-11.6,25.6-11.7c11.9,0,20.2,3.8,24.9,11.4c4.7,7.5,7,19.3,7,35c0,15.7-2.5,27.7-7.5,35.7
	C221.1,561.2,212.7,565.2,200.7,565.2L200.7,565.2z M191.1,493.3c-1.9,4.7-2.9,13.1-2.9,24.8c0,11.8,0.9,20.1,2.6,24.9
	c1.7,4.8,5.1,7.2,10,7.2c5,0,8.3-2.4,10.1-7.3c1.8-4.8,2.6-13.3,2.6-25.2c0-12-0.8-20.2-2.4-24.8c-1.6-4.6-4.9-6.8-9.9-6.8
	S193,488.6,191.1,493.3z M280.1,576.2h-18.9v-68.3c-1.9,1.1-5,2-9.3,2.8s-7.6,1.2-10.1,1.2l-0.9-16.3c12-0.9,20.7-4.3,26.3-10.1
	h12.9V576.2L280.1,576.2z"/>
<g>
	<path class="st0" d="M294.2,490.9v-16.1h58.9v14.4l-34.2,75.5h-19.9l34.6-73.8H294.2z"/>
</g>
</svg>
