<?xml version="1.0" encoding="utf-8"?>
<!-- Generator: Adobe Illustrator 19.2.1, SVG Export Plug-In . SVG Version: 6.00 Build 0)  -->
<svg version="1.1" id="Layer_1" xmlns="http://www.w3.org/2000/svg" xmlns:xlink="http://www.w3.org/1999/xlink" x="0px" y="0px"
	 viewBox="0 0 600 600" style="enable-background:new 0 0 600 600;" xml:space="preserve">
<style type="text/css">
	.st0{fill:#222222;}
</style>
<path class="st0" d="M51.7,12.2h26.9l35.9,101.4H90.7l-8.3-24.5H46.1L38,113.6H18.5L51.7,12.2z M77.9,71.7L65.3,32.5h-0.5l-13,39.2
	H77.9z M151,200.3c2.7,3.7,7.7,5.6,14.8,5.6s12-1.7,14.7-5.2c2.6-3.5,4-9.5,4-18V121H206v64.8c0,25.5-13.6,38.2-40.8,38.3
	c-13.9,0-24-3.1-30.3-9.4s-9.5-16.1-9.5-29.5V121h21.5v61.3C146.9,190.6,148.3,196.6,151,200.3z M247.1,225.7
	c-17.6,0-26.4,11.8-26.4,35.4c0,11.6,2.1,20.2,6.2,25.9c4.1,5.7,10.6,8.5,19.4,8.5c6.5,0,11.6-1.6,15.3-4.9s5.5-7.5,5.4-12.5v-3.7
	h-18.7v-16h39.8v52.8h-15.6l-2.4-12.4c-2.1,4.4-5.8,7.8-11.2,10.3s-11.3,3.8-17.7,3.8c-14.6,0-25.4-4.6-32.4-13.7
	c-6.9-9.2-10.4-21.8-10.4-38s4.2-29.1,12.6-38.7c8.4-9.6,20.5-14.5,36.4-14.5c11.6,0,20.9,2.8,28,8.5s11,14.6,11.8,26.8l-20,1.9
	c-0.6-6.1-2.4-10.9-5.5-14.3C258.7,227.5,253.8,225.8,247.1,225.7L247.1,225.7z M330.7,379.3c2.7,3.7,7.7,5.6,14.8,5.6
	s12-1.7,14.7-5.2c2.6-3.5,4-9.5,4-18V300h21.5v64.8c0,25.5-13.6,38.2-40.8,38.3c-13.9,0-24-3.1-30.3-9.4c-6.4-6.3-9.5-16.1-9.5-29.5
	V300h21.5v61.3C326.6,369.6,328,375.6,330.7,379.3L330.7,379.3z M427.6,395.9c-10.3,0-15.5,3.6-15.6,10.9c0,5.4,3.5,9.3,10.4,11.8
	c3.1,1.2,6.5,2.4,10.1,3.5s7.4,2.4,11.2,3.6c3.8,1.2,7.3,2.8,10.5,4.9c3.2,2,5.7,4.8,7.7,8.5c1.9,3.7,2.9,8,2.8,13.1
	c0,10.7-3.7,18.7-11.1,24s-16.7,7.9-27.8,8c-24.7,0-37.7-10.7-39.2-32.1l19.6-2.9c1,5.8,3,10.3,5.7,13.4c2.8,3.1,7.6,4.7,14.4,4.7
	c11.2,0,16.8-4.2,16.8-12.6c0-2.8-1-5.2-2.9-7.1c-2-2-4.5-3.4-7.6-4.3s-6.5-1.9-10.2-2.9c-8.8-2-15.9-4.8-21.5-8.4
	c-3.1-2-5.6-4.9-7.5-8.6c-2-3.7-2.9-8.2-2.9-13.5c0-9.5,3.5-17,10.5-22.4s15.6-8.1,25.8-8.1c10.2,0,18.5,1.9,24.9,5.8
	c7.3,4.2,11.3,12.2,12,23.9l-19.9,2.3c-0.5-5.1-1.9-8.9-4.4-11.5S433,395.9,427.6,395.9L427.6,395.9z M526.1,574.7h-21.5v-83.2h-30
	v-18.2h81.2v18.2h-29.7V574.7z M84.3,467.2c6.2-4.7,14.2-7,24.1-7s17.4,2.3,22.5,6.8c5.1,4.5,7.7,10.6,7.7,18.2
	c0,7.7-1.6,14.3-4.9,19.8c-3.2,5.6-8.9,12.7-17,21.5l-16.5,18.2v0.4h40.1v18.2H75.5v-17.6l21.8-25.3c8.6-9.9,14.1-16.7,16.6-20.6
	s3.6-7.9,3.6-12.3c0-7.1-3.8-10.7-11.3-10.7c-4.3,0-7.5,1.2-9.6,3.7s-3.5,6.2-4.2,11.3l-19.1-3.2C74.5,479,78.1,471.9,84.3,467.2
	L84.3,467.2z M182.8,552.1c-13.4,0-22.7-4.4-28-13.1c-5.3-8.7-8-21.8-8-39.4c0-17.5,2.9-30.6,8.6-39.3c5.7-8.7,15.3-13,28.6-13.1
	c13.3,0,22.6,4.2,27.8,12.7c5.2,8.4,7.8,21.5,7.8,39.1s-2.8,30.9-8.4,39.8C205.6,547.7,196.2,552.1,182.8,552.1L182.8,552.1z
	 M172.1,471.9c-2.1,5.3-3.2,14.6-3.2,27.7c0,13.2,1,22.4,2.9,27.8c1.9,5.4,5.7,8,11.2,8c5.6,0,9.3-2.7,11.3-8.1
	c2-5.4,2.9-14.8,2.9-28.1c0-13.4-0.9-22.6-2.7-27.7s-5.5-7.6-11-7.6S174.2,466.6,172.1,471.9z M271.5,564.4h-21.1v-76.2
	c-2.1,1.2-5.6,2.2-10.4,3.1c-4.8,0.9-8.5,1.3-11.3,1.3l-1-18.2c13.4-1,23.1-4.8,29.4-11.3h14.4V564.4L271.5,564.4z"/>
<path class="st0" d="M331.7,469.3c-1.9-1.8-4.7-2.7-8.4-2.7s-7,1.7-9.7,5c-5,6.1-7.6,15.1-7.8,27.2c5.8-5.2,12.9-7.9,21.5-7.9
	s15.3,2.5,20.3,7.5s7.5,12.3,7.4,21.9c0,11.4-3.2,20.1-9.5,26s-14.7,8.8-25,8.8c-13.7,0-23.3-4.9-28.6-14.6
	c-4.8-8.8-7.2-20.6-7.2-35.3c0-11,1.6-20.9,4.9-29.5c1.9-5.1,4.3-9.4,7.2-13.1c2.9-3.6,6.9-6.6,11.8-8.9s10.5-3.5,16.9-3.5
	c16.1,0,25.8,7.8,29.1,23.5l-18.9,5.1C334.9,474.3,333.6,471.1,331.7,469.3L331.7,469.3z M312.3,535.2c2.1,2.6,5.2,3.9,9.1,3.9
	s6.9-1.5,9.1-4.6c2.1-3.1,3.1-7.3,3.1-12.5s-0.9-9-2.7-11.5c-1.9-2.4-5.1-3.6-9.8-3.6c-4.6,0-9.3,2.1-14,6.3c0.2,5.3,0.6,9.6,1.2,13
	C308.8,529.6,310.2,532.6,312.3,535.2L312.3,535.2z"/>
</svg>
