<?xml version="1.0" encoding="utf-8"?>
<!-- Generator: Adobe Illustrator 19.2.1, SVG Export Plug-In . SVG Version: 6.00 Build 0)  -->
<svg version="1.1" id="Layer_1" xmlns="http://www.w3.org/2000/svg" xmlns:xlink="http://www.w3.org/1999/xlink" x="0px" y="0px"
	 viewBox="0 0 600 600" style="enable-background:new 0 0 600 600;" xml:space="preserve">
<style type="text/css">
	.st0{fill:#222222;}
</style>
<path class="st0" d="M193.2,439.5c6.8-3.6,15.1-4.7,24.9-3.2c9.8,1.5,16.8,4.9,21.2,10.2c4.4,5.2,6,11.6,4.8,19.2
	s-3.8,13.8-7.9,18.8c-4.1,5-10.8,11.2-20.1,18.6L197,518.6v0.4l39.6,6.2l-2.8,18l-64.1-10l2.7-17.4l25.5-21.7
	c10-8.4,16.5-14.4,19.5-17.8s4.8-7.3,5.5-11.6c1.1-7-2.1-11.1-9.5-12.3c-4.3-0.7-7.6,0.1-10.1,2.2s-4.4,5.6-5.9,10.5L179,459
	C181.7,449.6,186.4,443.2,193.2,439.5z M294.7,588.5c-13,3.2-23.1,1.2-30.4-5.9c-7.3-7.1-13.1-19.2-17.3-36.2s-4.7-30.4-1.2-40.2
	s11.7-16.4,24.6-19.6c12.9-3.2,22.9-1.4,30,5.5s12.8,18.9,17.1,36c4.3,17.1,4.8,30.6,1.6,40.6C315.8,578.7,307.7,585.3,294.7,588.5
	L294.7,588.5z M264.9,513.3c-0.7,5.7,0.5,14.9,3.7,27.7c3.2,12.8,6.4,21.5,9.5,26.3c3.2,4.7,7.4,6.4,12.8,5s8.4-4.9,9-10.6
	c0.6-5.7-0.7-15-4-28c-3.2-13-6.4-21.7-9.4-26.2s-7.2-6.1-12.6-4.7C268.7,504.1,265.6,507.6,264.9,513.3L264.9,513.3z"/>
<path class="st0" d="M357,525l-18.9,9.4l-33.9-68.3c-1.4,2-4.1,4.4-8,7.4c-3.9,2.9-7.1,5-9.5,6.2l-9-15.8
	c11.5-6.8,18.6-14.6,21.3-23.2l12.9-6.4L357,525z"/>
<path class="st0" d="M73,205.3c-10.8-4.8-24.2-4-40,2.5L0,221.2l38.1,93.9l30.8-12.5c16.3-6.6,26.8-15.9,31.3-27.8
	c4.6-12,3.9-25.3-2-40.1C92.2,219.9,83.8,210.1,73,205.3z M80.6,269.9c-2.4,7.2-8.8,12.9-19.1,17.1l-9.9,4l-25.1-61.8l11.3-4.6
	c9.7-3.9,17.7-4.5,23.9-1.8c6.2,2.7,11.5,9.4,15.9,20.2C82,253.8,83,262.7,80.6,269.9z"/>
<path class="st0" d="M226.9,364.4c0,6.1-1.3,11-3.9,14.7c-2.6,3.7-7.5,6.3-14.9,7.8c-7.4,1.5-13.7,0-18.9-4.5
	c-5.2-4.5-9-12.8-11.4-24.7c-4.6-22.8,1.6-36,18.8-39.5c6.4-1.4,11.5-0.8,15.3,1.7c3.8,2.5,6.7,7.2,8.8,14.2l20.6-6
	c-3-11.9-8.8-20-17.2-24.4c-8.4-4.3-18.7-5.3-30.7-2.8c-15.3,3.2-26.1,10.3-32.5,21.5c-6.4,11.2-7.9,24.8-4.6,40.9
	c6.9,33.5,25.6,47.1,56.1,40.8h0c6.6-1.3,12.6-3.6,18-6.7c5.3-3.1,9.8-7.6,13.3-13.5c3.5-5.9,5.1-12.7,4.6-20.4L226.9,364.4z"/>
<polygon class="st0" points="103.8,323.2 116.5,303.3 116.5,303.3 150.5,324.6 159.9,309.7 126,288.2 138.7,268.2 174.8,291.1 
	184.5,275.7 130.2,241.4 76,327.2 132.3,362.7 142,347.4 "/>
<polygon class="st0" points="314.6,308.6 273.4,327.2 263.7,305.6 263.7,305.6 300.4,289.1 293.2,273 256.5,289.5 246.8,267.9 
	285.8,250.4 278.3,233.8 219.7,260.2 261.3,352.6 322.1,325.2 "/>
<path class="st0" d="M432.2,239.4l-56.4,84.2l-17.5-11.8l44.3-66l-1.7-1.1l-64.1,52.7l-16.2-10.8l25.2-79l0.7,0.5L302,274.2
	l-17.5-11.8l56.4-84.2l26.7,17.9l-23.5,73.5l0.5,0.3l58.9-49.7L432.2,239.4L432.2,239.4z M410.7,421.5l-36-6.7l18.6-99.7l39.4,7.4
	c20.1,3.8,28.7,13.8,25.6,30c-1.2,6.2-3.9,10.9-8.1,14.1c-4.3,3.2-9.3,5.1-15.1,5.6l-0.1,0.3c14.6,4.6,20.6,14.1,17.9,28.5
	C449.6,419.3,435.5,426.1,410.7,421.5L410.7,421.5z M406.8,360.3l7.9,1.5c9.6,1.8,16,0.8,19.3-3.1c1.5-1.7,2.5-3.9,3-6.6
	c0.9-4.9,0.1-8.3-2.4-10.1c-2.4-1.8-6.5-3.3-12.2-4.4l-11-2.1L406.8,360.3L406.8,360.3z M398.9,402.3l10.9,2
	c6.4,1.2,11.4,1.2,14.9,0c3.6-1.2,5.8-4.3,6.8-9.4s0.1-8.8-2.6-11.1c-2.7-2.4-6.8-4-12.3-5.1l-12.9-2.4L398.9,402.3z M477.8,426.8
	l-8.7,22l42,16.6l-6.7,16.9l-62-24.6l37.3-94.3l59.7,23.7l-6.7,16.9L493,388.3l-8.7,22.1l37.4,14.8l-6.5,16.4L477.8,426.8
	L477.8,426.8z M538.4,508.8l-4.1,38.3l-21.4-2.3L523.6,444l39.2,4.2c11.7,1.2,19.9,4.8,24.6,10.7c4.7,5.9,6.7,13,5.8,21.2
	c-1.5,13.9-8.3,22.9-20.4,27l18.2,46l-23-2.4l-15.8-40.4L538.4,508.8L538.4,508.8z M540.2,492l11,1.2c12.1,1.3,18.7-3.1,19.8-13.2
	c0.5-4.7-0.5-8.3-3.2-10.6c-2.7-2.4-6.9-3.9-12.8-4.4l-11.8-1.2L540.2,492z"/>
<path class="st0" d="M403.9,474.3c-2.1-1.5-5-2-8.7-1.6c-3.7,0.5-6.7,2.6-8.9,6.3c-4.1,6.7-5.4,16.1-4,28c5-5.9,11.7-9.6,20.2-10.8
	c8.4-1.2,15.5,0.3,21.1,4.7c5.6,4.3,9.1,11.2,10.3,20.6c1.5,11.3-0.4,20.3-5.9,27.1c-5.5,6.7-13.4,10.8-23.6,12.2
	c-13.6,1.9-23.7-1.6-30.3-10.5c-6-8-10-19.4-12-34c-1.5-10.9-1.3-20.9,0.8-29.9c1.2-5.2,2.9-9.9,5.3-13.9c2.4-4,5.9-7.5,10.5-10.5
	c4.6-3,10-4.9,16.3-5.7c16-2.2,26.6,4.2,32,19.3l-18,7.6C407.8,479,406.1,475.9,403.9,474.3L403.9,474.3z M393.7,542.4
	c2.5,2.2,5.7,3.2,9.5,2.6c3.9-0.5,6.6-2.5,8.4-5.8c1.6-3.4,2.1-7.6,1.4-12.9c-0.7-5.2-2.2-8.8-4.2-11c-2.2-2.1-5.6-2.9-10.2-2.3
	c-4.6,0.6-8.9,3.4-13,8.1c0.9,5.2,1.9,9.4,3,12.7C389.5,537.2,391.3,540,393.7,542.4L393.7,542.4z"/>
</svg>
