<svg class="Layer_1" xmlns="http://www.w3.org/2000/svg" viewBox="0 0 600 600"><style>.st0{fill:#fff}</style><path class="st0" d="M183.2 439.5c6.8-3.6 15.1-4.7 24.9-3.2 9.8 1.5 16.8 4.9 21.2 10.2 4.4 5.2 6 11.6 4.8 19.2-1.2 7.6-3.8 13.8-7.9 18.8-4.1 5-10.8 11.2-20.1 18.6L187 518.6v.4l39.6 6.2-2.8 18-64.1-10 2.7-17.4 25.5-21.7c10-8.4 16.5-14.4 19.5-17.8s4.8-7.3 5.5-11.6c1.1-7-2.1-11.1-9.5-12.3-4.3-.7-7.6.1-10.1 2.2s-4.4 5.6-5.9 10.5L169 459c2.7-9.4 7.4-15.8 14.2-19.5zM284.7 588.5c-13 3.2-23.1 1.2-30.4-5.9-7.3-7.1-13.1-19.2-17.3-36.2s-4.7-30.4-1.2-40.2c3.5-9.8 11.7-16.4 24.6-19.6 12.9-3.2 22.9-1.4 30 5.5 7.1 6.9 12.8 18.9 17.1 36 4.3 17.1 4.8 30.6 1.6 40.6-3.3 10-11.4 16.6-24.4 19.8zm-29.8-75.2c-.7 5.7.5 14.9 3.7 27.7 3.2 12.8 6.4 21.5 9.5 26.3 3.2 4.7 7.4 6.4 12.8 5 5.4-1.4 8.4-4.9 9-10.6.6-5.7-.7-15-4-28-3.2-13-6.4-21.7-9.4-26.2s-7.2-6.1-12.6-4.7c-5.2 1.3-8.3 4.8-9 10.5z"/><path class="st0" d="M347 525l-18.9 9.4-33.9-68.3c-1.4 2-4.1 4.4-8 7.4-3.9 2.9-7.1 5-9.5 6.2l-9-15.8c11.5-6.8 18.6-14.6 21.3-23.2l12.9-6.4L347 525z"/><path class="year year--2018 st0" d="M423.1 565.7c-10 6.1-18.9 8.6-26.7 7.5-7.8-1.1-13.6-4.9-17.6-11.2-6.4-10.4-5.6-21.6 2.5-33.5-11.5 1.2-20-2.7-25.7-11.7-4.5-7.4-5.4-14.9-2.5-22.5s8.8-14.1 17.6-19.6c9.1-5.6 17.3-8 24.5-7.4 7.2.6 12.7 4 16.5 10.2 2.8 4.6 4 9.3 3.6 14-.5 4.7-2.4 10-5.7 15.9 7.3-.7 13.2-.1 17.8 1.9 4.6 2 8.7 5.9 12.3 11.8 4.3 7 5.1 14.7 2.4 23-2.6 8.2-9 15.5-19 21.6zM395.7 549c4.4 7.2 10.9 8.1 19.4 2.8 4.3-2.6 6.9-5.6 7.9-8.9 1-3.3.8-6.3-.8-8.8-1.6-2.6-3.2-4.4-4.9-5.4-2.8-1.7-7.2-2.3-12.9-1.6-1.9.2-4.5.6-7.6 1.2-2.1 3.8-3.3 7.3-3.7 10.6-.4 3.3.4 6.6 2.6 10.1zm-17.4-60.9c-3.3 2-5.5 4.4-6.5 7.1-1.1 2.7-.8 5.4.9 8.1 1.7 2.7 4.2 4.5 7.5 5.3 3.3.8 7.8.8 13.5.2 3.9-7.4 4.2-13.7.9-18.9-3.5-5.7-8.9-6.3-16.3-1.8z"/><path class="year year--2017 st0" d="M354.5 508l-9.5-15.5 56.7-34.8 8.5 13.9 11.7 92.9-19.1 11.7-10.3-91.5-38 23.3z"/><path class="year year--2016 st0" d="M386.9 487.2c-2.5-.6-5.4.1-8.6 2.1-3.2 2-5.1 5.1-5.6 9.3-1.1 7.8 1.4 16.9 7.6 27.3 2.2-7.5 6.9-13.5 14.2-18 7.3-4.5 14.4-5.9 21.2-4.2 6.9 1.7 12.8 6.6 17.8 14.7 6 9.7 7.8 18.8 5.5 27.1s-7.9 15.2-16.7 20.6c-11.7 7.2-22.4 8-32 2.5-8.7-5-16.9-13.7-24.6-26.3-5.8-9.4-9.5-18.6-11.3-27.7-1-5.3-1.3-10.3-.7-14.9.6-4.6 2.4-9.2 5.4-13.7 3-4.6 7.2-8.5 12.5-11.8 13.7-8.4 26.1-6.8 37.1 4.8l-13.4 14.3c-3-3.5-5.8-5.5-8.4-6.1zm17.9 66.3c3.2 1.1 6.4.6 9.8-1.4s5.1-4.9 5.3-8.7c.2-3.7-1.1-7.8-3.9-12.3-2.7-4.4-5.5-7.2-8.3-8.3-2.9-1.1-6.3-.4-10.2 2-4 2.4-6.8 6.7-8.7 12.7 2.9 4.4 5.5 7.9 7.8 10.5 2.3 2.5 5.1 4.4 8.2 5.5z"/><path class="year year--2015 st0" d="M390 464l9.5 15.5-32.5 19.9 11.2 22.9c2-6.6 6.4-11.9 13.1-16.1 6.7-4.1 13.6-5.3 20.5-3.6 6.9 1.8 13.2 7.2 18.8 16.3 5.7 9.2 7.3 18.1 5 26.9-2.3 8.8-8.2 16.1-17.7 22-7.6 4.6-15.1 6.8-22.2 6.4-7.2-.4-13.7-4.2-19.5-11.3l13.6-12.8c5.7 6.9 12.1 8 19.4 3.6 3.7-2.3 6-5.5 7-9.6.9-4.1-.2-8.6-3.3-13.6-5.4-8.8-11.9-10.9-19.6-6.3-4.5 2.7-7.5 7.3-9.1 13.5l-14.7 2.3-25.1-48.1L390 464z"/><path class="st0" d="M74.1 516.4l-30.8 12.5L5.2 435l33-13.4c15.8-6.5 29.2-7.3 40-2.5s19.2 14.6 25.2 29.4c5.9 14.8 6.6 28.1 2 40.1-4.5 11.9-15 21.2-31.3 27.8zm-17.3-11.6l9.9-4c10.3-4.2 16.7-9.9 19.1-17.1 2.4-7.2 1.4-16.1-3-26.9-4.4-10.8-9.7-17.5-15.9-20.2-6.2-2.7-14.2-2.1-23.9 1.8L31.7 443l25.1 61.8zM102.7 370.5l5.7 22.9 43.8-10.9 4.4 17.6L92 416.3l-24.6-98.4 62.3-15.6 4.4 17.6-41.5 10.3 5.7 23 39-9.7 4.3 17.1-38.9 9.9zM207.4 404.1c-30.5 6.3-49.2-7.3-56.1-40.8-3.3-16.1-1.8-29.7 4.6-40.9s17.2-18.3 32.5-21.5c12-2.5 22.3-1.5 30.7 2.8 8.4 4.4 14.2 12.5 17.2 24.4l-20.6 6c-2.1-7-5-11.7-8.8-14.2-3.8-2.5-8.9-3.1-15.3-1.7-17.2 3.5-23.4 16.7-18.8 39.5 2.4 11.9 6.2 20.2 11.4 24.7s11.5 6 18.9 4.5c7.4-1.5 12.3-4.1 14.9-7.8s3.9-8.6 3.9-14.7l21.4-.9c.5 7.7-1.1 14.5-4.6 20.4-3.5 5.9-8 10.4-13.3 13.5-5.4 3.1-11.4 5.4-18 6.7zM263.7 305.6l9.7 21.6 41.2-18.6 7.5 16.6-60.8 27.4-41.6-92.4 58.6-26.4 7.5 16.6-39 17.5 9.7 21.6 36.7-16.5 7.2 16.1-36.7 16.5z"/><path class="st0" d="M432.2 239.4l-56.4 84.2-17.5-11.8 44.3-66-1.7-1.1-64.1 52.7-16.2-10.8 25.2-79 .7.5-44.5 66.1-17.5-11.8 56.4-84.2 26.7 17.9-23.5 73.5.5.3 58.9-49.7 28.7 19.2zM410.7 421.5l-36-6.7 18.6-99.7 39.4 7.4c20.1 3.8 28.7 13.8 25.6 30-1.2 6.2-3.9 10.9-8.1 14.1-4.3 3.2-9.3 5.1-15.1 5.6l-.1.3c14.6 4.6 20.6 14.1 17.9 28.5-3.3 18.3-17.4 25.1-42.2 20.5zm-3.9-61.2l7.9 1.5c9.6 1.8 16 .8 19.3-3.1 1.5-1.7 2.5-3.9 3-6.6.9-4.9.1-8.3-2.4-10.1-2.4-1.8-6.5-3.3-12.2-4.4l-11-2.1-4.6 24.8zm-7.9 42l10.9 2c6.4 1.2 11.4 1.2 14.9 0 3.6-1.2 5.8-4.3 6.8-9.4 1-5.1.1-8.8-2.6-11.1-2.7-2.4-6.8-4-12.3-5.1l-12.9-2.4-4.8 26zM477.8 426.8l-8.7 22 42 16.6-6.7 16.9-62-24.6 37.3-94.3 59.7 23.7-6.7 16.9-39.7-15.7-8.7 22.1 37.4 14.8-6.5 16.4-37.4-14.8zM538.4 508.8l-4.1 38.3-21.4-2.3L523.6 444l39.2 4.2c11.7 1.2 19.9 4.8 24.6 10.7 4.7 5.9 6.7 13 5.8 21.2-1.5 13.9-8.3 22.9-20.4 27l18.2 46-23-2.4-15.8-40.4-13.8-1.5zm1.8-16.8l11 1.2c12.1 1.3 18.7-3.1 19.8-13.2.5-4.7-.5-8.3-3.2-10.6-2.7-2.4-6.9-3.9-12.8-4.4l-11.8-1.2-3 28.2z"/></svg>