<?xml version="1.0" encoding="utf-8"?>
<!-- Generator: Adobe Illustrator 20.1.0, SVG Export Plug-In . SVG Version: 6.00 Build 0)  -->
<svg version="1.1" id="Layer_1" xmlns="http://www.w3.org/2000/svg" xmlns:xlink="http://www.w3.org/1999/xlink" x="0px" y="0px"
	 viewBox="0 0 600 600" style="enable-background:new 0 0 600 600;" xml:space="preserve">
<style type="text/css">
	.st0{fill:#222222;}
</style>
<path class="st0" d="M203,437.9c6.4-3.4,14.1-4.4,23.3-3s15.7,4.6,19.8,9.5s5.6,10.8,4.5,17.9s-3.6,12.9-7.4,17.6
	c-3.8,4.7-10.1,10.5-18.8,17.4l-17.9,14.5v0.4l37,5.8l-2.6,16.8l-59.9-9.3l2.5-16.3l23.8-20.3c9.3-7.9,15.4-13.5,18.2-16.6
	c2.8-3.2,4.5-6.8,5.1-10.8c1-6.5-2-10.4-8.9-11.5c-4-0.7-7.1,0.1-9.4,2.1c-2.3,2-4.1,5.2-5.5,9.8l-17.2-5.7
	C192.2,447.3,196.6,441.3,203,437.9z M297.8,577.1c-12.1,3-21.6,1.1-28.4-5.5s-12.2-17.9-16.2-33.8s-4.4-28.4-1.1-37.6
	c3.3-9.2,10.9-15.3,23-18.3s21.4-1.3,28,5.1s12,17.7,16,33.6c4,16,4.5,28.6,1.5,37.9C317.6,568,310,574.1,297.8,577.1L297.8,577.1z
	 M270,506.8c-0.7,5.3,0.5,13.9,3.5,25.9s6,20.1,8.9,24.6c3,4.4,6.9,6,12,4.7c5-1.3,7.9-4.6,8.4-9.9c0.6-5.3-0.7-14-3.7-26.2
	c-3-12.1-6-20.3-8.8-24.5s-6.7-5.7-11.8-4.4C273.5,498.2,270.6,501.5,270,506.8L270,506.8z"/>
<path class="st0" d="M356.1,517.8l-17.7,8.8l-31.7-63.8c-1.3,1.9-3.8,4.1-7.5,6.9c-3.6,2.7-6.6,4.7-8.9,5.8l-8.4-14.8
	c10.7-6.4,17.4-13.6,19.9-21.7l12.1-6L356.1,517.8z"/>
<path class="st0" d="M90.6,219c-10.1-4.5-22.6-3.7-37.4,2.3l-30.8,12.5L58,321.6l28.8-11.7c15.2-6.2,25-14.9,29.3-26
	c4.3-11.2,3.6-23.6-1.9-37.5C108.6,232.6,100.7,223.5,90.6,219z M97.7,279.4c-2.2,6.7-8.2,12.1-17.9,16l-9.3,3.7L47,241.3l10.6-4.3
	c9.1-3.6,16.5-4.2,22.3-1.7s10.7,8.8,14.9,18.9S100,272.6,97.7,279.4z"/>
<path class="st0" d="M234.5,367.7c0,5.7-1.2,10.3-3.6,13.7c-2.4,3.5-7,5.9-13.9,7.3s-12.8,0-17.7-4.2s-8.4-12-10.7-23.1
	c-4.3-21.3,1.5-33.6,17.6-36.9c6-1.3,10.7-0.7,14.3,1.6c3.6,2.3,6.3,6.7,8.2,13.3l19.3-5.6c-2.8-11.1-8.2-18.7-16.1-22.8
	c-7.9-4-17.5-5-28.7-2.6c-14.3,3-24.4,9.6-30.4,20.1s-7.4,23.2-4.3,38.2c6.4,31.3,23.9,44,52.4,38.1l0,0c6.2-1.2,11.8-3.4,16.8-6.3
	s9.2-7.1,12.4-12.6c3.3-5.5,4.8-11.9,4.3-19.1L234.5,367.7z"/>
<polygon class="st0" points="119.4,329.2 131.3,310.6 131.3,310.6 163.1,330.5 171.8,316.6 140.2,296.5 152,277.8 185.8,299.2 
	194.8,284.8 144.1,252.7 93.4,332.9 146.1,366.1 155.1,351.8 "/>
<polygon class="st0" points="316.4,315.5 277.9,332.9 268.9,312.7 268.9,312.7 303.2,297.3 296.4,282.3 262.1,297.7 253.1,277.5 
	289.5,261.1 282.5,245.6 227.7,270.3 266.6,356.7 323.4,331.1 "/>
<path class="st0" d="M426.3,250.9l-52.7,78.7l-16.4-11l41.4-61.7l-1.6-1l-59.9,49.3L322,295l23.6-73.8l0.7,0.5l-41.6,61.8l-16.4-11
	l52.7-78.7l25,16.7l-22,68.7l0.5,0.3l55-46.4L426.3,250.9L426.3,250.9z M406.2,421.1l-33.6-6.3l17.4-93.2l36.8,6.9
	c18.8,3.6,26.8,12.9,23.9,28c-1.1,5.8-3.6,10.2-7.6,13.2s-8.7,4.8-14.1,5.2l-0.1,0.3c13.6,4.3,19.3,13.2,16.7,26.6
	C442.6,419,429.4,425.4,406.2,421.1L406.2,421.1z M402.6,363.9l7.4,1.4c9,1.7,15,0.7,18-2.9c1.4-1.6,2.3-3.6,2.8-6.2
	c0.8-4.6,0.1-7.8-2.2-9.4c-2.2-1.7-6.1-3.1-11.4-4.1l-10.3-2L402.6,363.9L402.6,363.9z M395.2,403.1l10.2,1.9c6,1.1,10.7,1.1,13.9,0
	c3.4-1.1,5.4-4,6.4-8.8c0.9-4.8,0.1-8.2-2.4-10.4c-2.5-2.2-6.4-3.7-11.5-4.8l-12.1-2.2L395.2,403.1z M469,426l-8.1,20.6l39.3,15.5
	l-6.3,15.8l-57.9-23l34.9-88.1l55.8,22.1l-6.3,15.8L483.2,390l-8.1,20.7l35,13.8l-6.1,15.3L469,426L469,426z M525.6,502.6l-3.8,35.8
	l-20-2.1l10-94.2l36.6,3.9c10.9,1.1,18.6,4.5,23,10s6.3,12.1,5.4,19.8c-1.4,13-7.8,21.4-19.1,25.2l17,43l-21.5-2.2L538.5,504
	L525.6,502.6L525.6,502.6z M527.3,486.9l10.3,1.1c11.3,1.2,17.5-2.9,18.5-12.3c0.5-4.4-0.5-7.8-3-9.9c-2.5-2.2-6.4-3.6-12-4.1
	l-11-1.1L527.3,486.9z"/>
<g>
	<path class="st0" d="M357.4,476.5l-1.5-16.8l61.5-5.6l1.4,15l-28.5,82.1l-20.7,1.9l29.1-80.4L357.4,476.5z"/>
</g>
</svg>
