<?xml version="1.0" encoding="utf-8"?>
<!-- Generator: Adobe Illustrator 19.2.1, SVG Export Plug-In . SVG Version: 6.00 Build 0)  -->
<svg version="1.1" id="Layer_1" xmlns="http://www.w3.org/2000/svg" xmlns:xlink="http://www.w3.org/1999/xlink" x="0px" y="0px"
	 viewBox="0 0 600 600" style="enable-background:new 0 0 600 600;" xml:space="preserve">
<style type="text/css">
	.st0{fill:#222222;}
</style>
<path class="st0" d="M313.6,488.6c6.2-4.7,14.2-7,24.1-7c9.9,0,17.4,2.3,22.5,6.8c5.1,4.5,7.7,10.6,7.7,18.2
	c0,7.7-1.6,14.3-4.9,19.8c-3.2,5.6-8.9,12.7-17,21.5l-16.5,18.2v0.4h40.2v18.2h-64.9v-17.6l21.8-25.3c8.6-9.9,14.1-16.7,16.6-20.6
	c2.5-3.9,3.6-7.9,3.6-12.3c0-7.1-3.8-10.7-11.3-10.7c-4.3,0-7.5,1.2-9.6,3.7c-2.1,2.5-3.5,6.2-4.2,11.3l-19.1-3.2
	C303.8,500.4,307.4,493.2,313.6,488.6L313.6,488.6z M413,585.6c-13.4,0-22.7-4.4-28-13.1s-8-21.8-8-39.4c0-17.6,2.9-30.6,8.6-39.3
	c5.7-8.7,15.3-13,28.6-13.1c13.3,0,22.6,4.2,27.8,12.7c5.2,8.4,7.8,21.5,7.8,39.1c0,17.6-2.8,30.9-8.4,39.8
	C435.8,581.1,426.3,585.6,413,585.6L413,585.6z M402.3,505.4c-2.1,5.3-3.2,14.6-3.2,27.7c0,13.1,1,22.4,2.9,27.8
	c1.9,5.4,5.7,8,11.2,8c5.6,0,9.3-2.7,11.3-8.1c2-5.4,2.9-14.8,2.9-28.1c0-13.4-0.9-22.6-2.7-27.7s-5.5-7.6-11-7.6
	S404.4,500.1,402.3,505.4L402.3,505.4z M503.3,583.8h-21.1v-76.2c-2.1,1.2-5.6,2.2-10.4,3.1s-8.5,1.3-11.3,1.3l-1-18.2
	c13.4-1,23.1-4.8,29.4-11.3h14.4V583.8z"/>
<path class="st0" d="M526.5,500.6v-18.2H593v16.3l-38.6,85.2h-22.4l39.1-83.3H526.5L526.5,500.6z"/>
<path class="st0" d="M142.8,80.6v39.9h-21.5V19.1h63.8v18.2h-42.3v25.6h38.9v17.6L142.8,80.6L142.8,80.6z"/>
<path class="st0" d="M173.2,151.3V175h45.2v18.2h-66.7V91.8H216V110h-42.8v23.7h40.2v17.6H173.2z M157.8,300h-36.5V198.6h40.1
	c20.5,0,30.7,8.3,30.7,24.8c0,6.3-1.8,11.5-5.4,15.4c-3.6,3.9-8.2,6.7-13.8,8.3v0.3c15.2,1.9,22.8,10.1,22.8,24.7
	C195.7,290.7,183.1,300,157.8,300z M142.8,240.6h8c9.8,0,15.9-2.2,18.5-6.6c1.1-1.9,1.7-4.3,1.7-7c0-5-1.4-8.1-4.2-9.5
	c-2.8-1.4-7-2.1-12.8-2.1h-11.2V240.6L142.8,240.6z M142.8,283.3h11.1c6.5,0,11.4-0.9,14.7-2.7c3.3-1.8,4.9-5.3,4.9-10.5
	s-1.5-8.7-4.6-10.5c-3.1-1.8-7.4-2.7-13-2.7h-13.1V283.3z M223.5,288.9v38.5h-21.6V226h39.4c11.8,0,20.3,2.7,25.6,8.1
	c5.3,5.4,8,12.2,8,20.5c0,14-5.8,23.7-17.4,29l22.9,43.8h-23.2l-20-38.5H223.5L223.5,288.9z M223.5,271.9h11
	c12.2,0,18.3-5.1,18.3-15.2c0-4.7-1.4-8.2-4.3-10.3c-2.9-2.1-7.3-3.1-13.2-3.1h-11.9L223.5,271.9L223.5,271.9z M142.2,396.4
	c2.7,3.7,7.7,5.6,14.8,5.6c7.1,0,12-1.7,14.7-5.2c2.6-3.5,4-9.5,4-18v-61.7h21.5v64.8c0,25.5-13.6,38.2-40.8,38.3
	c-13.9,0-24-3.1-30.3-9.4c-6.3-6.3-9.6-16.1-9.5-29.5V317h21.5v61.3C138.1,386.6,139.5,392.6,142.2,396.4L142.2,396.4z M156.2,440.8
	h26.9L219,542.2h-23.8l-8.3-24.5h-36.3l-8.1,24.5H123L156.2,440.8z M182.3,500.3l-12.5-39.2h-0.5l-12.9,39.2H182.3z M226.5,434.5
	V473h-21.6V371.6h39.4c11.8,0,20.3,2.7,25.6,8.1c5.3,5.4,8,12.2,8,20.5c0,14-5.8,23.7-17.4,29l22.9,43.8h-23.2l-20-38.5H226.5
	L226.5,434.5z M226.5,417.6h11c12.2,0,18.3-5.1,18.3-15.2c0-4.7-1.4-8.2-4.3-10.3c-2.9-2.1-7.3-3.1-13.2-3.1h-11.9L226.5,417.6
	L226.5,417.6z M264.6,592.9h-21.5V555L208,491.6h23.7l22.2,43.4h0.7l21.3-43.4h21.9l-33,63.2v38.1L264.6,592.9z"/>
</svg>
