<?xml version="1.0" encoding="utf-8"?>
<!-- Generator: Adobe Illustrator 19.2.1, SVG Export Plug-In . SVG Version: 6.00 Build 0)  -->
<svg version="1.1" id="Layer_1" xmlns="http://www.w3.org/2000/svg" xmlns:xlink="http://www.w3.org/1999/xlink" x="0px" y="0px"
	 viewBox="0 0 600 600" style="enable-background:new 0 0 600 600;" xml:space="preserve">
<style type="text/css">
	.st0{fill:#222222;}
</style>
<g>
	<path class="st0" d="M205.9,309.5c6.2-4.7,14.2-7,24.1-7s17.4,2.3,22.5,6.8s7.7,10.6,7.7,18.2c0,7.7-1.6,14.3-4.9,19.8
		c-3.2,5.6-8.9,12.7-17,21.5L221.8,387v0.4H262v18.2h-64.9V388l21.8-25.3c8.6-9.9,14.1-16.7,16.6-20.6c2.5-3.9,3.6-7.9,3.6-12.3
		c0-7.1-3.8-10.7-11.3-10.7c-4.3,0-7.5,1.2-9.6,3.7s-3.5,6.2-4.2,11.3l-19.1-3.2C196.1,321.3,199.7,314.1,205.9,309.5L205.9,309.5z
		 M305.3,386.5c-13.4,0-22.7-4.4-28-13.1s-8-21.8-8-39.4c0-17.6,2.9-30.6,8.6-39.3c5.7-8.7,15.3-13,28.6-13.1
		c13.3,0,22.6,4.2,27.8,12.7c5.2,8.4,7.8,21.5,7.8,39.1s-2.8,30.9-8.4,39.8C328.1,382,318.6,386.5,305.3,386.5L305.3,386.5z
		 M294.6,306.3c-2.1,5.3-3.2,14.6-3.2,27.7s1,22.4,2.9,27.8c1.9,5.4,5.7,8,11.2,8c5.6,0,9.3-2.7,11.3-8.1c2-5.4,2.9-14.8,2.9-28.1
		c0-13.4-0.9-22.6-2.7-27.7s-5.5-7.6-11-7.6S296.7,301,294.6,306.3L294.6,306.3z M395.6,394.7h-21.1v-76.2
		c-2.1,1.2-5.6,2.2-10.4,3.1s-8.5,1.3-11.3,1.3l-1-18.2c13.4-1,23.1-4.8,29.4-11.3h14.4V394.7z"/>
	<path class="st0" d="M408.8,296.5v-18.2h66.5v16.3l-38.6,85.2h-22.4l39.1-83.3L408.8,296.5L408.8,296.5z"/>
	<path class="st0" d="M134,220.8v17.1h-9.2v-43.4h27.3v7.8H134v11h16.7v7.6H134z"/>
	<path class="st0" d="M167.1,239.9v10.1h19.4v7.8h-28.6v-43.4h27.5v7.8h-18.3v10.2h17.2v7.6H167.1z"/>
	<path class="st0" d="M208.5,267.9h-15.7v-43.4H210c8.8,0,13.2,3.5,13.2,10.6c0,2.7-0.8,4.9-2.3,6.6s-3.5,2.9-5.9,3.5v0.1
		c6.5,0.8,9.8,4.3,9.8,10.6C224.7,263.9,219.3,267.9,208.5,267.9z M202.1,242.4h3.4c4.2,0,6.8-0.9,7.9-2.8c0.5-0.8,0.7-1.8,0.7-3
		c0-2.1-0.6-3.5-1.8-4.1s-3-0.9-5.5-0.9h-4.8V242.4z M202.1,260.7h4.7c2.8,0,4.9-0.4,6.3-1.2s2.1-2.3,2.1-4.5s-0.7-3.7-2-4.5
		c-1.3-0.8-3.2-1.2-5.6-1.2h-5.6V260.7z"/>
	<path class="st0" d="M240.3,241.4v16.5H231v-43.4h16.9c5,0,8.7,1.2,11,3.5s3.4,5.2,3.4,8.8c0,6-2.5,10.1-7.5,12.4l9.8,18.8h-9.9
		l-8.6-16.5H240.3z M240.3,234.1h4.7c5.2,0,7.8-2.2,7.8-6.5c0-2-0.6-3.5-1.8-4.4c-1.2-0.9-3.1-1.3-5.6-1.3h-5.1V234.1z"/>
	<path class="st0" d="M280,238.4c1.2,1.6,3.3,2.4,6.3,2.4s5.1-0.7,6.3-2.2c1.1-1.5,1.7-4.1,1.7-7.7v-26.4h9.2v27.8
		c0,10.9-5.8,16.4-17.5,16.4c-5.9,0-10.3-1.3-13-4s-4.1-6.9-4.1-12.6v-27.5h9.2v26.3C278.2,234.2,278.8,236.8,280,238.4z"/>
	<path class="st0" d="M313.5,224.4H325l15.4,43.4h-10.2l-3.6-10.5h-15.6l-3.5,10.5h-8.4L313.5,224.4z M324.7,249.9l-5.4-16.8h-0.2
		l-5.5,16.8H324.7z"/>
	<path class="st0" d="M345.7,228.4v16.5h-9.2v-43.4h16.9c5,0,8.7,1.2,11,3.5s3.4,5.2,3.4,8.8c0,6-2.5,10.1-7.5,12.4l9.8,18.8h-9.9
		l-8.6-16.5H345.7z M345.7,221.1h4.7c5.2,0,7.8-2.2,7.8-6.5c0-2-0.6-3.5-1.8-4.4s-3.1-1.3-5.6-1.3h-5.1V221.1z"/>
	<path class="st0" d="M395.1,267.9h-9.2v-16.3l-15.1-27.2h10.1l9.5,18.6h0.3l9.1-18.6h9.4l-14.2,27.1V267.9z"/>
</g>
</svg>
