<?xml version="1.0" encoding="utf-8"?>
<!-- Generator: Adobe Illustrator 20.1.0, SVG Export Plug-In . SVG Version: 6.00 Build 0)  -->
<svg version="1.1" id="Layer_1" xmlns="http://www.w3.org/2000/svg" xmlns:xlink="http://www.w3.org/1999/xlink" x="0px" y="0px"
	 viewBox="0 0 600 600" style="enable-background:new 0 0 600 600;" xml:space="preserve">
<style type="text/css">
	.st0{fill:#222222;}
</style>
<path class="st0" d="M152.1,430c9.7-7.4,22.3-11,37.8-11s27.3,3.6,35.3,10.7s12.1,16.6,12.1,28.5c0,12.1-2.5,22.4-7.7,31.1
	c-5,8.8-14,19.9-26.7,33.7L177,551.6v0.6h63.1v28.5H138.3v-27.6l34.2-39.7c13.5-15.5,22.1-26.2,26-32.3s5.6-12.4,5.6-19.3
	c0-11.1-6-16.8-17.7-16.8c-6.7,0-11.8,1.9-15.1,5.8s-5.5,9.7-6.6,17.7l-30-5C136.7,448.5,142.3,437.2,152.1,430L152.1,430z
	 M308,550.8c-21,0-35.6-6.9-43.9-20.5s-12.5-34.2-12.5-61.8s4.5-48,13.5-61.6c8.9-13.6,24-20.4,44.9-20.5c20.9,0,35.5,6.6,43.6,19.9
	c8.2,13.2,12.2,33.7,12.2,61.3s-4.4,48.5-13.2,62.4C343.7,543.7,328.8,550.8,308,550.8z M291.2,425c-3.3,8.3-5,22.9-5,43.5
	c0,20.5,1.6,35.1,4.5,43.6c2.9,8.5,8.9,12.5,17.6,12.5c8.8,0,14.6-4.2,17.7-12.7s4.5-23.2,4.5-44.1c0-21-1.4-35.5-4.2-43.5
	s-8.6-11.9-17.3-11.9C300.5,412.4,294.5,416.7,291.2,425L291.2,425z M449.6,563.7h-33.1V444.1c-3.3,1.9-8.8,3.5-16.3,4.9
	s-13.3,2-17.7,2l-1.6-28.5c21-1.6,36.2-7.5,46.1-17.7h22.6V563.7z"/>
<path class="st0" d="M39.3,290.9v26.8H24.8v-68.1h42.8v12.2H39.3v17.3h26.2V291L39.3,290.9L39.3,290.9z"/>
<path class="st0" d="M91.2,320.8v15.8h30.4v12.2H76.8v-68.1h43.1v12.2H91.2v16h27V321h-27V320.8z"/>
<path class="st0" d="M156.1,364.8h-24.6v-68.1h27c13.8,0,20.7,5.5,20.7,16.6c0,4.2-1.3,7.7-3.6,10.4c-2.4,2.7-5.5,4.5-9.3,5.5v0.2
	c10.2,1.3,15.4,6.7,15.4,16.6C181.5,358.5,173.1,364.8,156.1,364.8L156.1,364.8z M146.1,324.8h5.3c6.6,0,10.7-1.4,12.4-4.4
	c0.8-1.3,1.1-2.8,1.1-4.7c0-3.3-0.9-5.5-2.8-6.4s-4.7-1.4-8.6-1.4H146v16.9H146.1z M146.1,353.5h7.4c4.4,0,7.7-0.6,9.9-1.9
	s3.3-3.6,3.3-7.1s-1.1-5.8-3.1-7.1s-5-1.9-8.8-1.9H146v17.9h0.1L146.1,353.5z"/>
<path class="st0" d="M206,323.2v25.9h-14.6V281h26.5c7.8,0,13.6,1.9,17.3,5.5s5.3,8.2,5.3,13.8c0,9.4-3.9,15.8-11.8,19.5l15.4,29.5
	h-15.5l-13.5-25.9H206L206,323.2z M206,311.7h7.4c8.2,0,12.2-3.5,12.2-10.2c0-3.1-0.9-5.5-2.8-6.9s-4.9-2-8.8-2h-8L206,311.7z"/>
<path class="st0" d="M268.3,318.5c1.9,2.5,5.2,3.8,9.9,3.8s8-1.1,9.9-3.5c1.7-2.4,2.7-6.4,2.7-12.1v-41.4h14.4v43.6
	c0,17.1-9.1,25.7-27.5,25.7c-9.3,0-16.2-2-20.4-6.3s-6.4-10.8-6.4-19.8v-43.1h14.4v41.3C265.5,311.9,266.4,316,268.3,318.5z"/>
<path class="st0" d="M320.8,296.5h18l24.2,68.1h-16l-5.6-16.5h-24.5l-5.5,16.5h-13.2L320.8,296.5z M338.4,336.5l-8.5-26.4h-0.3
	l-8.6,26.4H338.4z"/>
<path class="st0" d="M371.4,302.8v25.9H357v-68.1h26.5c7.8,0,13.6,1.9,17.3,5.5s5.3,8.2,5.3,13.8c0,9.4-3.9,15.8-11.8,19.5
	l15.4,29.5h-15.5L380.6,303h-9.3v-0.2L371.4,302.8z M371.4,291.3h7.4c8.2,0,12.2-3.5,12.2-10.2c0-3.1-0.9-5.5-2.8-6.9s-4.9-2-8.8-2
	h-8L371.4,291.3z"/>
<path class="st0" d="M448.8,364.8h-14.4v-25.6l-23.7-42.7h15.8l14.9,29.2h0.5l14.3-29.2H471L448.7,339v25.7h0.1L448.8,364.8z"/>
<g>
	<path class="st0" d="M512.2,501.6c8.8,0,15.4-4.6,20.1-13.7s7.1-20.8,7.3-35.1c-8.3,7.3-19.1,11-32.4,11
		c-13.3,0-23.7-3.8-31.2-11.3c-7.4-7.7-11.2-19.4-11.2-35.2s5-28.2,15-37.1c10-8.9,23-13.3,39-13.3c20.2,0,34.3,7.4,42,22.2
		c7.1,13.5,10.7,31.2,10.7,53.3c0,55.6-20,83.4-59.9,83.4c-27.7-0.1-43.7-12.2-48.1-36.4l28.5-8.5c1.2,7.2,3.4,12.5,6.6,15.8
		S506.5,501.7,512.2,501.6z M516.3,391.7c-12.5,0-18.8,8.1-18.8,24.3c0,16.2,6.1,24.4,18.2,24.4c7.9,0,15.3-3.2,22-9.5
		c-0.6-12.1-1.7-20.7-3.5-25.9c-1.9-5.1-4.2-8.6-7.1-10.5S520.6,391.7,516.3,391.7z"/>
</g>
</svg>
