<?xml version="1.0" encoding="utf-8"?>
<!-- Generator: Adobe Illustrator 20.1.0, SVG Export Plug-In . SVG Version: 6.00 Build 0)  -->
<svg version="1.1" id="Layer_1" xmlns="http://www.w3.org/2000/svg" xmlns:xlink="http://www.w3.org/1999/xlink" x="0px" y="0px"
	 viewBox="0 0 600 600" style="enable-background:new 0 0 600 600;" xml:space="preserve">
<style type="text/css">
	.st0{fill:#222222;}
</style>
<g>
	<path class="st0" d="M152.1,430c9.7-7.4,22.3-11,37.8-11s27.3,3.6,35.3,10.7c8,7.1,12.1,16.6,12.1,28.5c0,12.1-2.5,22.4-7.7,31.1
		c-5,8.8-14,19.9-26.7,33.7L177,551.6v0.6h63.1v28.5H138.3v-27.6l34.2-39.7c13.5-15.5,22.1-26.2,26-32.3c3.9-6.1,5.6-12.4,5.6-19.3
		c0-11.1-6-16.8-17.7-16.8c-6.7,0-11.8,1.9-15.1,5.8c-3.3,3.9-5.5,9.7-6.6,17.7l-30-5C136.7,448.5,142.3,437.2,152.1,430L152.1,430z
		 M308,550.8c-21,0-35.6-6.9-43.9-20.5c-8.3-13.6-12.5-34.2-12.5-61.8s4.5-48,13.5-61.6c8.9-13.6,24-20.4,44.9-20.5
		c20.9,0,35.5,6.6,43.6,19.9c8.2,13.2,12.2,33.7,12.2,61.3c0,27.6-4.4,48.5-13.2,62.4C343.7,543.7,328.8,550.8,308,550.8L308,550.8z
		 M291.2,425c-3.3,8.3-5,22.9-5,43.5c0,20.5,1.6,35.1,4.5,43.6s8.9,12.5,17.6,12.5c8.8,0,14.6-4.2,17.7-12.7
		c3.1-8.5,4.5-23.2,4.5-44.1c0-21-1.4-35.5-4.2-43.5s-8.6-11.9-17.3-11.9C300.5,412.4,294.5,416.7,291.2,425L291.2,425z
		 M449.6,563.7h-33.1V444.1c-3.3,1.9-8.8,3.5-16.3,4.9c-7.5,1.4-13.3,2-17.7,2l-1.6-28.5c21-1.6,36.2-7.5,46.1-17.7h22.6V563.7z"/>
	<path class="st0" d="M39.3,290.9v26.8H24.8v-68.1h42.8v12.2H39.3v17.3h26.2V291H39.3V290.9z"/>
	<path class="st0" d="M91.2,320.8v15.8h30.4v12.2H76.8v-68.1h43.1v12.2H91.2v16h27V321h-27V320.8z"/>
	<path class="st0" d="M156.1,364.8h-24.6v-68.1h27c13.8,0,20.7,5.5,20.7,16.6c0,4.2-1.3,7.7-3.6,10.4c-2.4,2.7-5.5,4.5-9.3,5.5v0.2
		c10.2,1.3,15.4,6.7,15.4,16.6C181.5,358.5,173.1,364.8,156.1,364.8z M146.1,324.8h5.3c6.6,0,10.7-1.4,12.4-4.4
		c0.8-1.3,1.1-2.8,1.1-4.7c0-3.3-0.9-5.5-2.8-6.4c-1.9-0.9-4.7-1.4-8.6-1.4h-7.5v16.9H146.1z M146.1,353.5h7.4
		c4.4,0,7.7-0.6,9.9-1.9s3.3-3.6,3.3-7.1s-1.1-5.8-3.1-7.1s-5-1.9-8.8-1.9h-8.8v17.9H146.1z"/>
	<path class="st0" d="M206,323.2v25.9h-14.6V281h26.5c7.8,0,13.6,1.9,17.3,5.5s5.3,8.2,5.3,13.8c0,9.4-3.9,15.8-11.8,19.5l15.4,29.5
		h-15.5l-13.5-25.9H206V323.2z M206,311.7h7.4c8.2,0,12.2-3.5,12.2-10.2c0-3.1-0.9-5.5-2.8-6.9c-1.9-1.4-4.9-2-8.8-2h-8L206,311.7
		L206,311.7z"/>
	<path class="st0" d="M268.3,318.5c1.9,2.5,5.2,3.8,9.9,3.8c4.7,0,8-1.1,9.9-3.5c1.7-2.4,2.7-6.4,2.7-12.1v-41.4h14.4v43.6
		c0,17.1-9.1,25.7-27.5,25.7c-9.3,0-16.2-2-20.4-6.3s-6.4-10.8-6.4-19.8v-43.1h14.4v41.3C265.5,311.9,266.4,316,268.3,318.5z"/>
	<path class="st0" d="M320.8,296.5h18l24.2,68.1h-16l-5.6-16.5h-24.5l-5.5,16.5h-13.2L320.8,296.5z M338.4,336.5l-8.5-26.4h-0.3
		l-8.6,26.4H338.4z"/>
	<path class="st0" d="M371.4,302.8v25.9h-14.4v-68.1h26.5c7.8,0,13.6,1.9,17.3,5.5s5.3,8.2,5.3,13.8c0,9.4-3.9,15.8-11.8,19.5
		l15.4,29.5h-15.5L380.6,303h-9.3V302.8z M371.4,291.3h7.4c8.2,0,12.2-3.5,12.2-10.2c0-3.1-0.9-5.5-2.8-6.9c-1.9-1.4-4.9-2-8.8-2h-8
		V291.3z"/>
	<path class="st0" d="M448.8,364.8h-14.4v-25.6l-23.7-42.7h15.8l14.9,29.2h0.5l14.3-29.2H471L448.7,339v25.7H448.8z"/>
	<g>
		<path class="st0" d="M520.7,515.7c-17.3,0-30.5-3.7-39.4-11.2c-9-7.4-13.4-16.7-13.4-27.8c0-18.1,9.7-31.5,29-40.3
			c-15.4-7.4-23.2-18.9-23.2-34.6c0-12.8,4.8-22.9,14.3-30.3c9.5-7.4,22-11,37.4-11c15.8,0,28,3.2,36.6,9.6
			c8.6,6.4,12.9,14.9,12.9,25.6c0,8-2.1,14.8-6.3,20.3c-4.2,5.5-10.7,10.8-19.5,15.7c9.8,4.7,16.8,10.1,21,16.2s6.4,14.2,6.4,24.4
			c0,12.2-4.9,22.5-14.8,30.9C551.7,511.5,538.1,515.7,520.7,515.7z M499.1,473.4c0,12.4,7.4,18.6,22.3,18.6c7.4,0,13-1.7,16.9-5.2
			c3.9-3.4,5.8-7.3,5.8-11.7c0-4.5-0.7-8-2-10.6c-2.2-4.4-7.3-8.4-15.1-12c-2.6-1.2-6.1-2.7-10.6-4.4c-5.6,3.2-9.8,6.7-12.8,10.5
			C500.6,462.5,499.1,467.4,499.1,473.4z M524.4,383.3c-5.7,0-10.2,1.3-13.7,3.8c-3.5,2.6-5.2,6.2-5.2,10.9c0,4.7,1.8,8.9,5.4,12.5
			c3.6,3.5,9.2,7.1,16.9,10.6c10.6-6.3,15.8-14,15.8-23.1C543.5,388.2,537.1,383.3,524.4,383.3z"/>
	</g>
</g>
</svg>
