<svg enable-background="new 0 0 600 600" viewBox="0 0 600 600" xmlns="http://www.w3.org/2000/svg"><g fill="#222"><path d="m152.1 430c9.7-7.4 22.3-11 37.8-11s27.3 3.6 35.3 10.7 12.1 16.6 12.1 28.5c0 12.1-2.5 22.4-7.7 31.1-5 8.8-14 19.9-26.7 33.7l-25.9 28.6v.6h63.1v28.5h-101.8v-27.6l34.2-39.7c13.5-15.5 22.1-26.2 26-32.3s5.6-12.4 5.6-19.3c0-11.1-6-16.8-17.7-16.8-6.7 0-11.8 1.9-15.1 5.8s-5.5 9.7-6.6 17.7l-30-5c2-15 7.6-26.3 17.4-33.5zm155.9 120.8c-21 0-35.6-6.9-43.9-20.5s-12.5-34.2-12.5-61.8 4.5-48 13.5-61.6c8.9-13.6 24-20.4 44.9-20.5 20.9 0 35.5 6.6 43.6 19.9 8.2 13.2 12.2 33.7 12.2 61.3s-4.4 48.5-13.2 62.4c-8.9 13.7-23.8 20.8-44.6 20.8zm-16.8-125.8c-3.3 8.3-5 22.9-5 43.5 0 20.5 1.6 35.1 4.5 43.6s8.9 12.5 17.6 12.5c8.8 0 14.6-4.2 17.7-12.7s4.5-23.2 4.5-44.1c0-21-1.4-35.5-4.2-43.5s-8.6-11.9-17.3-11.9c-8.5 0-14.5 4.3-17.8 12.6zm158.4 138.7h-33.1v-119.6c-3.3 1.9-8.8 3.5-16.3 4.9s-13.3 2-17.7 2l-1.6-28.5c21-1.6 36.2-7.5 46.1-17.7h22.6z"/><path d="m39.3 290.9v26.8h-14.5v-68.1h42.8v12.2h-28.3v17.3h26.2v11.9h-26.2z"/><path d="m91.2 320.8v15.8h30.4v12.2h-44.8v-68.1h43.1v12.2h-28.7v16h27v12.1h-27z"/><path d="m156.1 364.8h-24.6v-68.1h27c13.8 0 20.7 5.5 20.7 16.6 0 4.2-1.3 7.7-3.6 10.4-2.4 2.7-5.5 4.5-9.3 5.5v.2c10.2 1.3 15.4 6.7 15.4 16.6-.2 12.5-8.6 18.8-25.6 18.8zm-10-40h5.3c6.6 0 10.7-1.4 12.4-4.4.8-1.3 1.1-2.8 1.1-4.7 0-3.3-.9-5.5-2.8-6.4s-4.7-1.4-8.6-1.4h-7.5v16.9zm0 28.7h7.4c4.4 0 7.7-.6 9.9-1.9s3.3-3.6 3.3-7.1-1.1-5.8-3.1-7.1-5-1.9-8.8-1.9h-8.8v17.9h.1z"/><path d="m206 323.2v25.9h-14.6v-68.1h26.5c7.8 0 13.6 1.9 17.3 5.5s5.3 8.2 5.3 13.8c0 9.4-3.9 15.8-11.8 19.5l15.4 29.5h-15.5l-13.5-25.9h-9.1zm0-11.5h7.4c8.2 0 12.2-3.5 12.2-10.2 0-3.1-.9-5.5-2.8-6.9s-4.9-2-8.8-2h-8z"/><path d="m268.3 318.5c1.9 2.5 5.2 3.8 9.9 3.8s8-1.1 9.9-3.5c1.7-2.4 2.7-6.4 2.7-12.1v-41.4h14.4v43.6c0 17.1-9.1 25.7-27.5 25.7-9.3 0-16.2-2-20.4-6.3s-6.4-10.8-6.4-19.8v-43.1h14.4v41.3c.2 5.2 1.1 9.3 3 11.8z"/><path d="m320.8 296.5h18l24.2 68.1h-16l-5.6-16.5h-24.5l-5.5 16.5h-13.2zm17.6 40-8.5-26.4h-.3l-8.6 26.4z"/><path d="m371.4 302.8v25.9h-14.4v-68.1h26.5c7.8 0 13.6 1.9 17.3 5.5s5.3 8.2 5.3 13.8c0 9.4-3.9 15.8-11.8 19.5l15.4 29.5h-15.5l-13.6-25.9h-9.3v-.2zm0-11.5h7.4c8.2 0 12.2-3.5 12.2-10.2 0-3.1-.9-5.5-2.8-6.9s-4.9-2-8.8-2h-8z"/><path d="m448.8 364.8h-14.4v-25.6l-23.7-42.7h15.8l14.9 29.2h.5l14.3-29.2h14.8l-22.3 42.5v25.7h.1z"/><path d="m520.7 515.7c-17.3 0-30.5-3.7-39.4-11.2-9-7.4-13.4-16.7-13.4-27.8 0-18.1 9.7-31.5 29-40.3-15.4-7.4-23.2-18.9-23.2-34.6 0-12.8 4.8-22.9 14.3-30.3s22-11 37.4-11c15.8 0 28 3.2 36.6 9.6s12.9 14.9 12.9 25.6c0 8-2.1 14.8-6.3 20.3s-10.7 10.8-19.5 15.7c9.8 4.7 16.8 10.1 21 16.2s6.4 14.2 6.4 24.4c0 12.2-4.9 22.5-14.8 30.9-10 8.3-23.6 12.5-41 12.5zm-21.6-42.3c0 12.4 7.4 18.6 22.3 18.6 7.4 0 13-1.7 16.9-5.2 3.9-3.4 5.8-7.3 5.8-11.7 0-4.5-.7-8-2-10.6-2.2-4.4-7.3-8.4-15.1-12-2.6-1.2-6.1-2.7-10.6-4.4-5.6 3.2-9.8 6.7-12.8 10.5-3 3.9-4.5 8.8-4.5 14.8zm25.3-90.1c-5.7 0-10.2 1.3-13.7 3.8-3.5 2.6-5.2 6.2-5.2 10.9s1.8 8.9 5.4 12.5c3.6 3.5 9.2 7.1 16.9 10.6 10.6-6.3 15.8-14 15.8-23.1-.1-9.8-6.5-14.7-19.2-14.7z"/></g></svg>