<?xml version="1.0" encoding="utf-8"?>
<!-- Generator: Adobe Illustrator 19.2.1, SVG Export Plug-In . SVG Version: 6.00 Build 0)  -->
<svg version="1.1" id="Layer_1" xmlns="http://www.w3.org/2000/svg" xmlns:xlink="http://www.w3.org/1999/xlink" x="0px" y="0px"
	 viewBox="0 0 600 600" style="enable-background:new 0 0 600 600;" xml:space="preserve">
<style type="text/css">
	.st0{fill:#222222;}
</style>
<path class="st0" d="M146.5,434.8c6.2-4.7,14.2-7,24.1-7c9.9,0,17.4,2.3,22.5,6.8s7.7,10.6,7.7,18.2c0,7.7-1.6,14.3-4.9,19.8
	c-3.2,5.6-8.9,12.7-17,21.5l-16.5,18.2v0.4h40.1v18.2h-64.9v-17.6l21.8-25.3c8.6-9.9,14.1-16.7,16.6-20.6c2.5-3.9,3.6-7.9,3.6-12.3
	c0-7.1-3.8-10.7-11.3-10.7c-4.3,0-7.5,1.2-9.6,3.7s-3.5,6.2-4.2,11.3l-19.1-3.2C136.8,446.6,140.3,439.5,146.5,434.8L146.5,434.8z
	 M245.9,497.4c-13.4,0-22.7-4.4-28-13.1s-8-21.8-8-39.4c0-17.6,2.9-30.6,8.6-39.3c5.7-8.7,15.3-13,28.6-13.1
	c13.3,0,22.6,4.2,27.8,12.7c5.2,8.4,7.8,21.5,7.8,39.1c0,17.6-2.8,30.9-8.4,39.8C268.8,492.9,259.4,497.4,245.9,497.4L245.9,497.4z
	 M235.2,417.2c-2.1,5.3-3.2,14.6-3.2,27.7c0,13.1,1,22.4,2.9,27.8c1.9,5.4,5.7,8,11.2,8c5.6,0,9.3-2.7,11.3-8.1
	c2-5.4,2.9-14.8,2.9-28.1c0-13.4-0.9-22.6-2.7-27.7c-1.8-5.1-5.5-7.6-11-7.6S237.3,411.9,235.2,417.2L235.2,417.2z M336.3,537.2
	h-21.1V461c-2.1,1.2-5.6,2.2-10.4,3.1c-4.8,0.9-8.5,1.3-11.3,1.3l-1-18.2c13.4-1,23.1-4.8,29.4-11.3h14.4V537.2z"/>
<path class="st0" d="M359.3,506.6v-18.2h66.5v16.3l-38.6,85.2h-22.4l39.1-83.3H359.3L359.3,506.6z"/>
<path class="st0" d="M102.1,309.3v-73.5h21.5v72.9c0,20.1-10.6,30.1-31.8,30.1c-19.9,0-30.1-9.5-30.8-28.7l20.7-3.1
	c0.5,5,1.3,8.6,2.7,10.8c1.3,2.2,3.8,3.3,7.3,3.3s6.2-0.9,7.9-2.7C101.3,316.6,102.1,313.6,102.1,309.3z M137.3,308.4h26.9
	l35.9,101.4h-23.7l-8.3-24.5h-36.3l-8.1,24.5h-19.6L137.3,308.4L137.3,308.4z M163.5,367.9l-12.6-39.2h-0.5l-12.9,39.2H163.5
	L163.5,367.9z M277.5,354.5h-26.4l-39-71.6v71.6H191V253.1h27.1l38.4,71.8v-71.8h21.1v101.4H277.5z M313.5,393.7
	c2.7,3.7,7.7,5.6,14.8,5.6s12-1.7,14.7-5.2c2.6-3.5,4-9.5,4-18v-61.7h21.5v64.8c0,25.5-13.6,38.2-40.8,38.3c-13.9,0-24-3.1-30.3-9.4
	S288,392,288,378.6v-64.3h21.5v61.3C309.5,383.9,310.9,389.9,313.5,393.7L313.5,393.7z M381.3,366.8h26.9l35.9,101.4h-23.7
	l-8.3-24.5h-36.3l-8.1,24.5h-19.5L381.3,366.8z M407.5,426.3l-12.6-39.2h-0.5l-12.9,39.2H407.5z M451.5,371.3v38.5H430V308.4h39.4
	c11.8,0,20.3,2.7,25.6,8.1c5.3,5.4,8,12.2,8,20.5c0,14-5.8,23.7-17.4,29l22.9,43.8h-23.2l-20-38.5H451.5L451.5,371.3z M451.5,354.3
	h11c12.2,0,18.3-5.1,18.3-15.2c0-4.7-1.4-8.2-4.3-10.3c-2.9-2.1-7.3-3.1-13.2-3.1h-11.9v28.6H451.5z"/>
<path class="st0" d="M556.8,471h-21.5v-37.9l-35.1-63.4h23.7l22.2,43.4h0.7l21.3-43.4H590l-33,63.2V471H556.8z"/>
</svg>
