<svg class="Layer_1" xmlns="http://www.w3.org/2000/svg" viewBox="0 0 600 600"><style>.st0{fill:#222}</style><path class="st0" d="M123.7 340.6c6.2-4.7 14.2-7 24.1-7 9.9 0 17.4 2.3 22.5 6.8 5.1 4.5 7.7 10.6 7.7 18.2 0 7.7-1.6 14.3-4.9 19.8-3.2 5.6-8.9 12.7-17 21.5l-16.5 18.2v.4h40.1v18.2h-64.9v-17.6l21.8-25.3c8.6-9.9 14.1-16.7 16.6-20.6s3.6-7.9 3.6-12.3c0-7.1-3.8-10.7-11.3-10.7-4.3 0-7.5 1.2-9.6 3.7-2.1 2.5-3.5 6.2-4.2 11.3l-19.1-3.2c1.3-9.6 4.9-16.7 11.1-21.4zM223.1 403.2c-13.4 0-22.7-4.4-28-13.1-5.3-8.7-8-21.8-8-39.4s2.9-30.6 8.6-39.3c5.7-8.7 15.3-13 28.6-13.1 13.3 0 22.6 4.2 27.8 12.7 5.2 8.4 7.8 21.5 7.8 39.1s-2.8 30.9-8.4 39.8c-5.6 8.8-15 13.3-28.4 13.3zM212.4 323c-2.1 5.3-3.2 14.6-3.2 27.7s1 22.4 2.9 27.8 5.7 8 11.2 8c5.6 0 9.3-2.7 11.3-8.1 2-5.4 2.9-14.8 2.9-28.1 0-13.4-.9-22.6-2.7-27.7-1.8-5.1-5.5-7.6-11-7.6s-9.3 2.7-11.4 8zM313.5 443h-21.1v-76.2c-2.1 1.2-5.6 2.2-10.4 3.1-4.8.9-8.5 1.3-11.3 1.3l-1-18.2c13.4-1 23.1-4.8 29.4-11.3h14.4V443z"/><path d="M336.5 412.4v-18.2H403v16.3l-38.6 85.2H342l39.1-83.3h-44.6z" class="st0 year year--2017"/><path class="st0" d="M79.3 215.1v-73.5h21.5v72.9c0 20.1-10.6 30.1-31.8 30.1-19.9 0-30.1-9.5-30.8-28.7l20.7-3.1c.5 5 1.3 8.6 2.7 10.8 1.3 2.2 3.8 3.3 7.3 3.3s6.2-.9 7.9-2.7c1.7-1.8 2.5-4.8 2.5-9.1zM114.5 214.2h26.9l35.9 101.4h-23.7l-8.3-24.5H109l-8.1 24.5H81.3l33.2-101.4zm26.2 59.5l-12.6-39.2h-.5l-12.9 39.2h26zM254.7 260.3h-26.4l-39-71.6v71.6h-21.1V158.9h27.1l38.4 71.8v-71.8h21.1v101.4zM290.7 299.5c2.7 3.7 7.7 5.6 14.8 5.6s12-1.7 14.7-5.2c2.6-3.5 4-9.5 4-18v-61.7h21.5V285c0 25.5-13.6 38.2-40.8 38.3-13.9 0-24-3.1-30.3-9.4s-9.5-16.1-9.5-29.5v-64.3h21.5v61.3c0 8.3 1.4 14.3 4.1 18.1zM358.5 272.6h26.9L421.3 374h-23.7l-8.3-24.5H353l-8.1 24.5h-19.5l33.1-101.4zm26.2 59.5l-12.6-39.2h-.5l-12.9 39.2h26zM428.7 277.1v38.5h-21.5V214.2h39.4c11.8 0 20.3 2.7 25.6 8.1 5.3 5.4 8 12.2 8 20.5 0 14-5.8 23.7-17.4 29l22.9 43.8h-23.2l-20-38.5h-13.8zm0-17h11c12.2 0 18.3-5.1 18.3-15.2 0-4.7-1.4-8.2-4.3-10.3-2.9-2.1-7.3-3.1-13.2-3.1h-11.9v28.6z"/><path class="st0" d="M533.9 376.8h-21.5v-37.9l-35.1-63.4H501l22.2 43.4h.7l21.3-43.4h21.9l-33 63.2v38.1z"/></svg>