<?xml version="1.0" encoding="utf-8"?>
<!-- Generator: Adobe Illustrator 20.1.0, SVG Export Plug-In . SVG Version: 6.00 Build 0)  -->
<svg version="1.1" id="Layer_1" xmlns="http://www.w3.org/2000/svg" xmlns:xlink="http://www.w3.org/1999/xlink" x="0px" y="0px"
	 viewBox="0 0 600 600" style="enable-background:new 0 0 600 600;" xml:space="preserve">
<style type="text/css">
	.st0{fill:#222222;}
</style>
<g>
	<path class="st0" d="M359,577.6c-11.7,0-20.6-2.5-26.7-7.6c-6.1-5-9.1-11.3-9.1-18.8c0-12.2,6.5-21.3,19.6-27.2
		c-10.4-5-15.7-12.8-15.7-23.4c0-8.7,3.2-15.5,9.6-20.5c6.4-5,14.9-7.5,25.3-7.5c10.7,0,18.9,2.2,24.7,6.5
		c5.8,4.3,8.7,10.1,8.7,17.3c0,5.4-1.4,10-4.3,13.8c-2.8,3.7-7.2,7.3-13.2,10.6c6.6,3.2,11.3,6.8,14.2,10.9
		c2.9,4.1,4.3,9.6,4.3,16.5c0,8.3-3.3,15.2-10,20.9C379.9,574.8,370.7,577.6,359,577.6z M344.4,549c0,8.4,5,12.6,15.1,12.6
		c5,0,8.8-1.2,11.4-3.5c2.6-2.3,3.9-4.9,3.9-7.9c0-3-0.5-5.4-1.4-7.2c-1.5-3-4.9-5.7-10.2-8.1c-1.7-0.8-4.1-1.8-7.2-2.9
		c-3.8,2.1-6.7,4.5-8.7,7.1C345.4,541.6,344.4,545,344.4,549z M361.5,488.1c-3.8,0-6.9,0.9-9.3,2.6c-2.3,1.7-3.5,4.2-3.5,7.4
		s1.2,6,3.6,8.5c2.4,2.4,6.2,4.8,11.4,7.2c7.2-4.3,10.7-9.5,10.7-15.6C374.4,491.4,370.1,488.1,361.5,488.1z"/>
</g>
<path class="st0" d="M118.5,424.8c6.2-4.7,14.2-7,24.1-7c9.9,0,17.4,2.3,22.5,6.8s7.7,10.6,7.7,18.2c0,7.7-1.6,14.3-4.9,19.8
	c-3.2,5.6-8.9,12.7-17,21.5l-16.5,18.2v0.4h40.1v18.2h-64.9v-17.6l21.8-25.3c8.6-9.9,14.1-16.7,16.6-20.6s3.6-7.9,3.6-12.3
	c0-7.1-3.8-10.7-11.3-10.7c-4.3,0-7.5,1.2-9.6,3.7s-3.5,6.2-4.2,11.3l-19.1-3.2C108.8,436.6,112.3,429.5,118.5,424.8L118.5,424.8z
	 M217.9,487.4c-13.4,0-22.7-4.4-28-13.1s-8-21.8-8-39.4s2.9-30.6,8.6-39.3c5.7-8.7,15.3-13,28.6-13.1c13.3,0,22.6,4.2,27.8,12.7
	c5.2,8.4,7.8,21.5,7.8,39.1s-2.8,30.9-8.4,39.8C240.8,482.9,231.4,487.4,217.9,487.4L217.9,487.4z M207.2,407.2
	c-2.1,5.3-3.2,14.6-3.2,27.7s1,22.4,2.9,27.8s5.7,8,11.2,8c5.6,0,9.3-2.7,11.3-8.1s2.9-14.8,2.9-28.1c0-13.4-0.9-22.6-2.7-27.7
	s-5.5-7.6-11-7.6S209.3,401.9,207.2,407.2L207.2,407.2z M308.3,527.2h-21.1V451c-2.1,1.2-5.6,2.2-10.4,3.1s-8.5,1.3-11.3,1.3
	l-1-18.2c13.4-1,23.1-4.8,29.4-11.3h14.4V527.2z"/>
<path class="st0" d="M74.1,299.3v-73.5h21.5v72.9c0,20.1-10.6,30.1-31.8,30.1c-19.9,0-30.1-9.5-30.8-28.7l20.7-3.1
	c0.5,5,1.3,8.6,2.7,10.8c1.3,2.2,3.8,3.3,7.3,3.3c3.5,0,6.2-0.9,7.9-2.7C73.3,306.6,74.1,303.6,74.1,299.3z M109.3,298.4h26.9
	l35.9,101.4h-23.7l-8.3-24.5h-36.3l-8.1,24.5H76.1L109.3,298.4L109.3,298.4z M135.5,357.9l-12.6-39.2h-0.5l-12.9,39.2H135.5
	L135.5,357.9z M249.5,344.5h-26.4l-39-71.6v71.6H163V243.1h27.1l38.4,71.8v-71.8h21.1v101.4L249.5,344.5L249.5,344.5z M285.5,383.7
	c2.7,3.7,7.7,5.6,14.8,5.6s12-1.7,14.7-5.2c2.6-3.5,4-9.5,4-18v-61.7h21.5v64.8c0,25.5-13.6,38.2-40.8,38.3c-13.9,0-24-3.1-30.3-9.4
	S260,382,260,368.6v-64.3h21.5v61.3C281.5,373.9,282.9,379.9,285.5,383.7L285.5,383.7z M353.3,356.8h26.9l35.9,101.4h-23.7
	l-8.3-24.5h-36.3l-8.1,24.5h-19.5L353.3,356.8z M379.5,416.3l-12.6-39.2h-0.5l-12.9,39.2H379.5z M423.5,361.3v38.5H402V298.4h39.4
	c11.8,0,20.3,2.7,25.6,8.1c5.3,5.4,8,12.2,8,20.5c0,14-5.8,23.7-17.4,29l22.9,43.8h-23.2l-20-38.5H423.5L423.5,361.3z M423.5,344.3
	h11c12.2,0,18.3-5.1,18.3-15.2c0-4.7-1.4-8.2-4.3-10.3c-2.9-2.1-7.3-3.1-13.2-3.1h-11.9v28.6H423.5z"/>
<path class="st0" d="M528.8,461h-21.5v-37.9l-35.1-63.4h23.7l22.2,43.4h0.7l21.3-43.4H562l-33,63.2V461H528.8z"/>
</svg>
