<?xml version="1.0" encoding="utf-8"?>
<!-- Generator: Adobe Illustrator 16.0.0, SVG Export Plug-In . SVG Version: 6.00 Build 0)  -->
<!DOCTYPE svg PUBLIC "-//W3C//DTD SVG 1.1//EN" "http://www.w3.org/Graphics/SVG/1.1/DTD/svg11.dtd">
<svg version="1.1" id="Layer_1" xmlns="http://www.w3.org/2000/svg" xmlns:xlink="http://www.w3.org/1999/xlink" x="0px" y="0px"
	 width="600px" height="600px" viewBox="-2.36 120.945 600 600" enable-background="new -2.36 120.945 600 600"
	 xml:space="preserve">
<path fill="#222222" d="M287.223,605.283c4.762-5.456,11.807-9.127,20.934-11.013c9.128-1.885,16.47-1.19,22.025,1.984
	s9.128,8.334,10.517,15.378c1.389,7.045,1.19,13.493-0.794,19.248c-1.885,5.754-5.854,13.492-11.607,23.116l-11.608,19.942
	l0.1,0.396l36.907-7.64l3.473,16.768l-59.727,12.302l-3.373-16.271l15.378-27.482c6.052-10.715,9.921-18.057,11.409-22.124
	c1.488-4.068,1.885-8.036,0.992-12.104c-1.29-6.548-5.457-9.128-12.401-7.738c-3.969,0.893-6.647,2.579-8.234,5.258
	c-1.488,2.679-2.084,6.449-1.786,11.212l-18.156,0.694C280.377,618.082,282.362,610.74,287.223,605.283z"/>
<path fill="#222222" d="M439.217,655.883c-5.357,11.409-12.798,17.659-22.422,18.651c-9.524,1.092-21.827-1.885-36.709-8.83
	c-14.981-6.944-25.002-14.684-30.161-23.116c-5.06-8.334-4.96-18.256,0.298-29.565c5.259-11.41,12.601-17.66,21.827-18.652
	c9.326-0.992,21.43,1.885,36.411,8.929c15.08,7.045,25.2,14.684,30.657,23.018C444.574,634.65,444.574,644.473,439.217,655.883
	L439.217,655.883z M366.593,632.964c3.671,3.969,11.211,8.434,22.423,13.791c11.211,5.258,19.445,8.136,24.902,8.632
	c5.357,0.595,9.127-1.588,11.311-6.449c2.281-4.663,1.389-9.028-2.48-12.897c-3.869-3.87-11.41-8.334-22.819-13.791
	c-11.409-5.357-19.545-8.234-24.704-8.632c-5.06-0.496-8.632,1.687-10.913,6.449C362.03,624.729,362.823,628.995,366.593,632.964
	L366.593,632.964z"/>
<path fill="#222222" d="M436.737,696.758l-14.584-13.492l48.714-52.782c-2.282-0.595-5.259-2.083-9.128-4.563
	s-6.746-4.563-8.631-6.35l10.913-13.295c9.921,7.838,19.148,11.509,27.581,10.914l10.021,9.227L436.737,696.758z"/>
<path fill="#222222" d="M61.314,600.62l19.148-66.572l19.445,5.655l-19.049,65.978c-5.258,18.155-17.461,24.506-36.609,18.949
	c-17.958-5.159-24.804-16.469-20.339-34.03l19.545,2.679c-0.893,4.663-0.992,8.235-0.396,10.418
	c0.694,2.381,2.579,3.969,5.754,4.861s5.854,0.794,7.838-0.396C58.635,606.97,60.123,604.49,61.314,600.62z M95.74,669.673
	c1.39,4.167,5.358,7.144,11.807,9.227c6.449,1.984,11.311,1.786,14.585-0.595c3.373-2.381,6.25-7.441,8.631-15.08l17.362-55.461
	l19.446,6.053l-18.354,58.139c-7.144,22.918-23.018,30.657-47.325,23.018c-12.401-3.869-20.735-9.524-24.704-16.966
	c-3.969-7.44-4.067-17.164-0.298-29.069l17.958-57.742l19.446,6.052L97.13,652.311C94.748,659.752,94.352,665.506,95.74,669.673z
	 M192.87,602.704v78.379h40.876v17.163h-61.115v-95.542H192.87L192.87,602.704z M267.38,694.774l-20.041,3.075l-5.457-35.32
	l-41.868-53.972l22.025-3.373l26.887,37.205l0.695-0.1l13.592-43.555l20.339-3.175l-21.629,63.596L267.38,694.774z"/>
<g>
	<path fill="#222222" d="M527.29,643.752c5.112-0.697,8.653-3.901,10.622-9.613c1.968-5.713,2.467-12.73,1.498-21.053
		c-4.285,4.938-10.297,7.934-18.036,8.988c-7.738,1.055-14.118-0.313-19.14-4.105c-4.953-3.883-8.058-10.442-9.316-19.676
		c-1.258-9.234,0.683-16.851,5.825-22.848c5.141-5.996,12.379-9.609,21.713-10.842c11.823-1.611,20.595,1.588,26.312,9.596
		c5.244,7.293,8.745,17.391,10.504,30.292c4.424,32.456-5.018,50.271-28.322,53.448c-16.185,2.164-26.509-3.647-30.977-17.438
		l15.951-7.253c1.299,4.117,3.008,7.023,5.125,8.717C521.167,643.656,523.913,644.253,527.29,643.752z M520.912,579.264
		c-7.32,0.998-10.334,6.234-9.043,15.709c1.292,9.475,5.479,13.75,12.562,12.824c4.625-0.63,8.657-3.061,12.096-7.291
		c-1.285-7.021-2.656-11.967-4.111-14.836c-1.491-2.822-3.157-4.68-5-5.574S523.406,578.924,520.912,579.264z"/>
</g>
</svg>
