<?xml version="1.0" encoding="utf-8"?>
<!-- Generator: Adobe Illustrator 19.2.1, SVG Export Plug-In . SVG Version: 6.00 Build 0)  -->
<svg version="1.1" id="Layer_1" xmlns="http://www.w3.org/2000/svg" xmlns:xlink="http://www.w3.org/1999/xlink" x="0px" y="0px"
	 viewBox="0 0 600 600" style="enable-background:new 0 0 600 600;" xml:space="preserve">
<style type="text/css">
	.st0{fill:#222222;}
</style>
<path class="st0" d="M289.5,485.8c4.8-5.5,11.9-9.2,21.1-11.1c9.2-1.9,16.6-1.2,22.2,2c5.6,3.2,9.2,8.4,10.6,15.5s1.2,13.6-0.8,19.4
	c-1.9,5.8-5.9,13.6-11.7,23.3l-11.7,20.1l0.1,0.4l37.2-7.7l3.5,16.9L299.8,577l-3.4-16.4l15.5-27.7c6.1-10.8,10-18.2,11.5-22.3
	c1.5-4.1,1.9-8.1,1-12.2c-1.3-6.6-5.5-9.2-12.5-7.8c-4,0.9-6.7,2.6-8.3,5.3c-1.5,2.7-2.1,6.5-1.8,11.3l-18.3,0.7
	C282.6,498.7,284.6,491.3,289.5,485.8z"/>
<path class="st0" d="M442.7,536.8c-5.4,11.5-12.9,17.8-22.6,18.8c-9.6,1.1-22-1.9-37-8.9c-15.1-7-25.2-14.8-30.4-23.3
	c-5.1-8.4-5-18.4,0.3-29.8c5.3-11.5,12.7-17.8,22-18.8c9.4-1,21.6,1.9,36.7,9c15.2,7.1,25.4,14.8,30.9,23.2
	C448.1,515.4,448.1,525.3,442.7,536.8L442.7,536.8z M369.5,513.7c3.7,4,11.3,8.5,22.6,13.9c11.3,5.3,19.6,8.2,25.1,8.7
	c5.4,0.6,9.2-1.6,11.4-6.5c2.3-4.7,1.4-9.1-2.5-13c-3.9-3.9-11.5-8.4-23-13.9c-11.5-5.4-19.7-8.3-24.9-8.7c-5.1-0.5-8.7,1.7-11,6.5
	C364.9,505.4,365.7,509.7,369.5,513.7L369.5,513.7z"/>
<path class="st0" d="M440.2,578l-14.7-13.6l49.1-53.2c-2.3-0.6-5.3-2.1-9.2-4.6c-3.9-2.5-6.8-4.6-8.7-6.4l11-13.4
	c10,7.9,19.3,11.6,27.8,11l10.1,9.3L440.2,578z"/>
<path class="st0" d="M547.2,498.5c-2-1.4-4.8-1.8-8.3-1.2c-3.5,0.6-6.3,2.7-8.3,6.2c-3.7,6.5-4.7,15.4-3,26.7
	c4.6-5.8,10.9-9.4,18.9-10.7c8-1.3,14.7,0,20.1,3.9c5.5,3.9,8.9,10.3,10.3,19.3c1.8,10.7,0.1,19.3-4.9,25.8
	c-5,6.5-12.4,10.5-22,12.2c-12.9,2.1-22.6-0.9-29-9.3c-5.9-7.5-10-18.1-12.2-31.9c-1.7-10.3-1.7-19.8,0-28.4c1-5,2.6-9.5,4.7-13.4
	c2.2-3.9,5.4-7.2,9.7-10.2c4.3-2.9,9.3-4.9,15.3-5.9c15.1-2.5,25.3,3.3,30.9,17.6l-16.9,7.7C551,502.7,549.3,500,547.2,498.5
	L547.2,498.5z M539.2,563.3c2.4,2.1,5.4,2.8,9.1,2.3c3.7-0.6,6.3-2.5,7.8-5.7c1.5-3.2,1.8-7.3,1-12.2c-0.9-4.8-2.3-8.4-4.4-10.3
	c-2.1-2-5.3-2.7-9.7-1.9c-4.4,0.8-8.4,3.4-12.2,8.1c0.9,4.9,2,8.9,3.1,12C535,558.5,536.9,561.2,539.2,563.3z"/>
<path class="st0" d="M61.8,481.1L81.1,414l19.6,5.7l-19.2,66.5c-5.3,18.3-17.6,24.7-36.9,19.1c-18.1-5.2-25-16.6-20.5-34.3l19.7,2.7
	c-0.9,4.7-1,8.3-0.4,10.5c0.7,2.4,2.6,4,5.8,4.9c3.2,0.9,5.9,0.8,7.9-0.4C59.1,487.5,60.6,485,61.8,481.1z M96.5,550.7
	c1.4,4.2,5.4,7.2,11.9,9.3c6.5,2,11.4,1.8,14.7-0.6c3.4-2.4,6.3-7.5,8.7-15.2l17.5-55.9l19.6,6.1L150.4,553
	c-7.2,23.1-23.2,30.9-47.7,23.2c-12.5-3.9-20.9-9.6-24.9-17.1c-4-7.5-4.1-17.3-0.3-29.3l18.1-58.2l19.6,6.1l-17.3,55.5
	C95.5,540.7,95.1,546.5,96.5,550.7z M194.4,483.2v79h41.2v17.3H174v-96.3H194.4L194.4,483.2z M269.5,576l-20.2,3.1l-5.5-35.6
	l-42.2-54.4l22.2-3.4l27.1,37.5l0.7-0.1l13.7-43.9l20.5-3.2l-21.8,64.1L269.5,576z"/>
</svg>
