<?xml version="1.0" encoding="utf-8"?>
<!-- Generator: Adobe Illustrator 20.1.0, SVG Export Plug-In . SVG Version: 6.00 Build 0)  -->
<svg version="1.1" id="Layer_1" xmlns="http://www.w3.org/2000/svg" xmlns:xlink="http://www.w3.org/1999/xlink" x="0px" y="0px"
	 viewBox="0 0 600 600" style="enable-background:new 0 0 600 600;" xml:space="preserve">
<style type="text/css">
	.st0{fill:#222222;}
</style>
<path class="st0" d="M289.5,485.8c4.8-5.5,11.9-9.2,21.1-11.1s16.6-1.2,22.2,2s9.2,8.4,10.6,15.5s1.2,13.6-0.8,19.4
	c-1.9,5.8-5.9,13.6-11.7,23.3L319.2,555l0.1,0.4l37.2-7.7l3.5,16.9L299.8,577l-3.4-16.4l15.5-27.7c6.1-10.8,10-18.2,11.5-22.3
	c1.5-4.1,1.9-8.1,1-12.2c-1.3-6.6-5.5-9.2-12.5-7.8c-4,0.9-6.7,2.6-8.3,5.3c-1.5,2.7-2.1,6.5-1.8,11.3l-18.3,0.7
	C282.6,498.7,284.6,491.3,289.5,485.8z"/>
<path class="st0" d="M442.7,536.8c-5.4,11.5-12.9,17.8-22.6,18.8c-9.6,1.1-22-1.9-37-8.9c-15.1-7-25.2-14.8-30.4-23.3
	c-5.1-8.4-5-18.4,0.3-29.8c5.3-11.5,12.7-17.8,22-18.8c9.4-1,21.6,1.9,36.7,9c15.2,7.1,25.4,14.8,30.9,23.2S448.1,525.3,442.7,536.8
	L442.7,536.8z M369.5,513.7c3.7,4,11.3,8.5,22.6,13.9c11.3,5.3,19.6,8.2,25.1,8.7c5.4,0.6,9.2-1.6,11.4-6.5c2.3-4.7,1.4-9.1-2.5-13
	s-11.5-8.4-23-13.9c-11.5-5.4-19.7-8.3-24.9-8.7c-5.1-0.5-8.7,1.7-11,6.5C364.9,505.4,365.7,509.7,369.5,513.7L369.5,513.7z"/>
<path class="st0" d="M440.2,578l-14.7-13.6l49.1-53.2c-2.3-0.6-5.3-2.1-9.2-4.6c-3.9-2.5-6.8-4.6-8.7-6.4l11-13.4
	c10,7.9,19.3,11.6,27.8,11l10.1,9.3L440.2,578z"/>
<path class="st0" d="M61.8,481.1L81.1,414l19.6,5.7l-19.2,66.5c-5.3,18.3-17.6,24.7-36.9,19.1c-18.1-5.2-25-16.6-20.5-34.3l19.7,2.7
	c-0.9,4.7-1,8.3-0.4,10.5c0.7,2.4,2.6,4,5.8,4.9s5.9,0.8,7.9-0.4C59.1,487.5,60.6,485,61.8,481.1z M96.5,550.7
	c1.4,4.2,5.4,7.2,11.9,9.3c6.5,2,11.4,1.8,14.7-0.6c3.4-2.4,6.3-7.5,8.7-15.2l17.5-55.9l19.6,6.1L150.4,553
	c-7.2,23.1-23.2,30.9-47.7,23.2c-12.5-3.9-20.9-9.6-24.9-17.1s-4.1-17.3-0.3-29.3l18.1-58.2l19.6,6.1l-17.3,55.5
	C95.5,540.7,95.1,546.5,96.5,550.7z M194.4,483.2v79h41.2v17.3H174v-96.3H194.4L194.4,483.2z M269.5,576l-20.2,3.1l-5.5-35.6
	l-42.2-54.4l22.2-3.4l27.1,37.5l0.7-0.1l13.7-43.9l20.5-3.2L264,540.1L269.5,576z"/>
<g>
	<path class="st0" d="M508.4,579.3c-9.9-4.5-16.4-10.1-19.6-16.7c-3.2-6.6-3.3-13-0.4-19.4c4.7-10.3,13.8-15.4,27.1-15.4
		c-6.9-8.2-8.3-16.9-4.2-25.9c3.4-7.3,8.7-11.8,16.1-13.6s15.4-0.6,24.2,3.5c9,4.1,15.1,9.2,18.4,15.1c3.2,5.9,3.5,11.9,0.7,18
		c-2.1,4.6-5.1,7.9-8.9,10c-3.9,2.1-8.9,3.3-15.2,3.9c4.3,5.3,6.9,10.2,7.8,14.7c0.8,4.6-0.1,9.8-2.7,15.6
		c-3.2,7-8.7,11.6-16.5,13.8C527.1,585,518.3,583.8,508.4,579.3z M507.1,549.5c-3.2,7.1-0.6,12.6,7.9,16.5c4.2,1.9,7.9,2.4,11,1.5
		c3.1-0.9,5.2-2.6,6.4-5.2c1.2-2.5,1.7-4.7,1.6-6.6c-0.1-3.1-1.9-6.7-5.4-10.8c-1.2-1.4-2.8-3.1-4.9-5.3c-4,0.4-7.4,1.2-10.1,2.6
		C510.8,543.6,508.7,546,507.1,549.5z M545.1,504.6c-3.2-1.5-6.2-1.9-8.8-1.4c-2.6,0.6-4.6,2.2-5.8,4.9c-1.2,2.7-1.3,5.6-0.2,8.6
		c1.1,2.9,3.4,6.4,6.8,10.5c7.7-0.8,12.7-3.9,15-9C554.7,512.5,552.4,508,545.1,504.6z"/>
</g>
</svg>
