<?xml version="1.0" encoding="utf-8"?>
<!-- Generator: Adobe Illustrator 19.2.1, SVG Export Plug-In . SVG Version: 6.00 Build 0)  -->
<svg version="1.1" id="Layer_1" xmlns="http://www.w3.org/2000/svg" xmlns:xlink="http://www.w3.org/1999/xlink" x="0px" y="0px"
	 viewBox="0 0 600 600" style="enable-background:new 0 0 600 600;" xml:space="preserve">
<style type="text/css">
	.st0{fill:#222222;}
</style>
<path class="st0" d="M288.9,497.2c5.1-5.8,12.5-9.7,22.2-11.7s17.5-1.3,23.4,2.1s9.7,8.8,11.2,16.3s1.3,14.3-0.8,20.4
	c-2,6.1-6.2,14.3-12.3,24.5L320.3,570l0.1,0.4l39.2-8.1l3.7,17.8l-63.5,13.1l-3.6-17.3l16.3-29.2c6.4-11.4,10.5-19.2,12.1-23.5
	s2-8.5,1.1-12.8c-1.4-7-5.8-9.7-13.2-8.2c-4.2,0.9-7.1,2.7-8.7,5.6c-1.6,2.8-2.2,6.8-1.9,11.9l-19.3,0.7
	C281.7,510.8,283.8,503,288.9,497.2z"/>
<path class="st0" d="M450.3,550.9c-5.7,12.1-13.6,18.7-23.8,19.8c-10.1,1.2-23.2-2-39-9.4c-15.9-7.4-26.5-15.6-32-24.5
	c-5.4-8.9-5.3-19.4,0.3-31.4c5.6-12.1,13.4-18.7,23.2-19.8c9.9-1.1,22.8,2,38.7,9.5c16,7.5,26.8,15.6,32.5,24.4
	C456,528.3,456,538.8,450.3,550.9L450.3,550.9z M373.2,526.6c3.9,4.2,11.9,9,23.8,14.6s20.7,8.6,26.4,9.2s9.7-1.7,12-6.8
	c2.4-5,1.5-9.6-2.6-13.7s-12.1-8.9-24.2-14.6c-12.1-5.7-20.8-8.7-26.2-9.2c-5.4-0.5-9.2,1.8-11.6,6.8
	C368.4,517.8,369.2,522.4,373.2,526.6L373.2,526.6z"/>
<path class="st0" d="M447.7,594.3L432.2,580l51.7-56c-2.4-0.6-5.6-2.2-9.7-4.8s-7.2-4.8-9.2-6.7l11.6-14.1
	c10.5,8.3,20.3,12.2,29.3,11.6l10.6,9.8L447.7,594.3z"/>
<path class="st0" d="M560.4,510.6c-2.1-1.5-5.1-1.9-8.7-1.3c-3.7,0.6-6.6,2.8-8.7,6.5c-3.9,6.8-5,16.2-3.2,28.1
	c4.8-6.1,11.5-9.9,19.9-11.3s15.5,0,21.2,4.1c5.8,4.1,9.4,10.9,10.9,20.3c1.9,11.3,0.1,20.3-5.2,27.2c-5.3,6.8-13.1,11.1-23.2,12.8
	c-13.6,2.2-23.8-1-30.6-9.8c-6.2-7.9-10.5-19.1-12.9-33.6c-1.8-10.9-1.8-20.9,0-29.9c1.1-5.3,2.7-10,5-14.1s5.7-7.6,10.2-10.7
	s9.8-5.2,16.1-6.2c15.9-2.6,26.7,3.5,32.5,18.5l-17.8,8.1C564.4,515,562.6,512.1,560.4,510.6L560.4,510.6z M552,578.8
	c2.5,2.2,5.7,3,9.6,2.4c3.9-0.6,6.6-2.6,8.2-6c1.6-3.4,1.9-7.7,1.1-12.8c-0.9-5.1-2.4-8.8-4.6-10.9c-2.2-2.1-5.6-2.8-10.2-2
	c-4.6,0.8-8.9,3.6-12.8,8.5c1,5.2,2.1,9.4,3.3,12.6C547.6,573.8,549.5,576.6,552,578.8z"/>
<path class="st0" d="M49,492.2l20.4-70.7l20.7,6l-20.2,70.1c-5.6,19.3-18.5,26-38.9,20.1c-19.1-5.5-26.3-17.5-21.6-36.1l20.8,2.8
	c-1,4.9-1.1,8.7-0.4,11.1c0.7,2.5,2.7,4.2,6.1,5.2c3.4,1,6.2,0.8,8.3-0.4C46.2,499,47.8,496.3,49,492.2z M85.6,565.5
	c1.5,4.4,5.7,7.6,12.5,9.8c6.8,2.1,12,1.9,15.5-0.6c3.6-2.5,6.6-7.9,9.2-16l18.4-58.9l20.6,6.4L142.4,568
	c-7.6,24.3-24.4,32.5-50.3,24.4c-13.2-4.1-22-10.1-26.2-18s-4.3-18.2-0.3-30.9l19.1-61.3l20.6,6.4l-18.2,58.5
	C84.6,555,84.1,561.1,85.6,565.5z M188.7,494.4v83.2h43.4v18.2h-64.9V494.4H188.7L188.7,494.4z M267.9,592.2l-21.3,3.3l-5.8-37.5
	l-44.5-57.3l23.4-3.6l28.6,39.5l0.7-0.1l14.4-46.2l21.6-3.4l-23,67.5L267.9,592.2z"/>
</svg>
