<?xml version="1.0" encoding="utf-8"?>
<!-- Generator: Adobe Illustrator 20.1.0, SVG Export Plug-In . SVG Version: 6.00 Build 0)  -->
<svg version="1.1" id="Layer_1" xmlns="http://www.w3.org/2000/svg" xmlns:xlink="http://www.w3.org/1999/xlink" x="0px" y="0px"
	 viewBox="0 0 600 600" style="enable-background:new 0 0 600 600;" xml:space="preserve">
<style type="text/css">
	.st0{fill:#222222;}
</style>
<path class="st0" d="M511.2,148.8c5.7-5.3,13.4-8.4,23.3-9.4c9.8-1,17.5,0.5,23.1,4.5c5.6,3.9,8.8,9.7,9.5,17.3
	c0.8,7.6-0.2,14.3-2.8,20.2c-2.7,5.9-7.6,13.6-14.7,23.1L535,224.4v0.4l39.9-4.1l1.8,18.1l-64.5,6.6l-1.8-17.5l19.2-27.4
	c7.6-10.7,12.4-18.1,14.4-22.1c2-4.1,2.8-8.3,2.4-12.6c-0.7-7.1-4.8-10.2-12.3-9.5c-4.3,0.4-7.4,2-9.2,4.6
	c-1.8,2.7-2.9,6.5-3.1,11.6l-19.3-1.3C502.6,161.6,505.5,154.1,511.2,148.8L511.2,148.8z M543.6,353.8c-13.3-0.7-22.5-5.5-27.4-14.5
	c-4.9-8.9-6.9-22.2-6.1-39.7s4.4-30.5,10.6-38.8c6.2-8.4,15.9-12.3,29.2-11.6s22.3,5.3,27.1,14c4.8,8.7,6.7,21.8,5.9,39.5
	c-0.9,17.6-4.3,30.7-10.3,39.3C566.6,350.5,556.9,354.5,543.6,353.8L543.6,353.8z M536.9,273.2c-2.4,5.2-3.9,14.4-4.5,27.6
	c-0.7,13.2-0.2,22.5,1.5,27.9s5.3,8.3,10.8,8.5c5.6,0.3,9.5-2.2,11.7-7.5s3.7-14.6,4.3-27.9c0.7-13.3,0.2-22.6-1.4-27.8
	c-1.6-5.2-5.1-7.9-10.6-8.2S539.3,267.9,536.9,273.2z M522,457.3l-21.1,1l-3.5-76.1c-2.1,1.3-5.5,2.4-10.2,3.5s-8.5,1.7-11.2,1.8
	l-1.9-18.1c13.3-1.6,22.9-5.9,28.8-12.7l14.4-0.7L522,457.3L522,457.3z"/>
<path class="st0" d="M428.1,223.2l13.6-72.3l21.2,4l-13.4,71.7c-3.7,19.7-16,27.6-36.8,23.8c-19.5-3.7-27.8-14.9-25-33.8l20.9,0.8
	c-0.5,5-0.3,8.7,0.6,11.1c0.9,2.4,3.1,3.9,6.6,4.6s6.2,0.2,8.2-1.2C425.9,230.3,427.3,227.4,428.1,223.2L428.1,223.2z M448.1,335.8
	c3,3.5,8.1,5,15.2,4.4s11.8-2.7,14.2-6.4c2.4-3.7,3.2-9.8,2.5-18.3l-5-61.5l21.5-1.8l5.3,64.6c2.1,25.4-10.4,39.2-37.5,41.5
	c-13.8,1.2-24.1-1.1-31-6.9s-10.8-15.3-11.8-28.6l-5.2-64l21.5-1.8l5,61.1C443.2,326.4,445,332.3,448.1,335.8L448.1,335.8z
	 M457.7,468.7l-26.4-1.9l-33.9-74.1l-5.1,71.4l-21.1-1.5l7.2-101.1l27.1,1.9l33.2,74.4l5.1-71.7l21.1,1.5L457.7,468.7L457.7,468.7z
	 M421.8,538.5l1.5,23.6l45.1-2.8l1.1,18.1l-66.6,4.2l-6.4-101.2l64.1-4l1.1,18.1l-42.6,2.7l1.5,23.7l40.1-2.5l1.1,17.6L421.8,538.5
	L421.8,538.5z"/>
<g>
	<path class="st0" d="M521.8,581.3c-12.5-1.7-21.6-5.7-27.3-12c-5.7-6.2-8-13.3-6.9-21.3c1.8-13,10.1-21.7,24.9-26.1
		c-10.4-6.8-14.8-15.9-13.3-27.2c1.3-9.2,5.7-16,13.3-20.4c7.6-4.4,16.9-5.8,28-4.2c11.4,1.6,19.8,5.1,25.4,10.6
		c5.5,5.4,7.8,12,6.7,19.7c-0.8,5.8-3,10.4-6.6,14c-3.6,3.6-8.8,6.7-15.6,9.3c6.6,4.4,11.1,8.9,13.5,13.7c2.4,4.8,3.2,10.8,2.2,18.2
		c-1.2,8.8-5.8,15.7-13.7,20.8C544.5,581.4,534.3,583.1,521.8,581.3z M510.4,548.8c-1.2,8.9,3.5,14.1,14.2,15.6
		c5.3,0.7,9.5,0.1,12.7-2c3.1-2,4.9-4.7,5.3-7.9c0.4-3.2,0.3-5.8-0.4-7.8c-1.2-3.4-4.4-6.8-9.6-10.2c-1.7-1.1-4.1-2.5-7.2-4.2
		c-4.3,1.7-7.7,3.8-10.3,6.3C512.6,541.1,511,544.5,510.4,548.8z M537.6,486.4c-4.1-0.6-7.5-0.1-10.2,1.4c-2.7,1.5-4.4,3.9-4.8,7.3
		c-0.5,3.4,0.4,6.6,2.6,9.6c2.2,2.9,5.9,6,11.1,9.3c8.2-3.5,12.8-8.5,13.6-15C550.8,491.9,546.7,487.7,537.6,486.4z"/>
</g>
</svg>
