<?xml version="1.0" encoding="utf-8"?>
<!-- Generator: Adobe Illustrator 19.2.1, SVG Export Plug-In . SVG Version: 6.00 Build 0)  -->
<svg version="1.1" id="Layer_1" xmlns="http://www.w3.org/2000/svg" xmlns:xlink="http://www.w3.org/1999/xlink" x="0px" y="0px"
	 viewBox="0 0 600 600" style="enable-background:new 0 0 600 600;" xml:space="preserve">
<style type="text/css">
	.st0{fill:#222222;}
</style>
<path class="st0" d="M511.2,148.8c5.7-5.3,13.4-8.4,23.3-9.4c9.8-1,17.5,0.5,23.1,4.5c5.6,3.9,8.8,9.7,9.5,17.3
	c0.8,7.6-0.2,14.3-2.8,20.2c-2.7,5.9-7.6,13.6-14.7,23.1L535,224.4v0.4l39.9-4.1l1.8,18.1l-64.5,6.6l-1.8-17.5l19.2-27.4
	c7.6-10.7,12.4-18.1,14.4-22.1c2-4.1,2.8-8.3,2.4-12.6c-0.7-7.1-4.8-10.2-12.3-9.5c-4.3,0.4-7.4,2-9.2,4.6
	c-1.8,2.7-2.9,6.5-3.1,11.6l-19.3-1.3C502.6,161.6,505.5,154.1,511.2,148.8L511.2,148.8z M543.6,353.8c-13.3-0.7-22.5-5.5-27.4-14.5
	c-4.9-8.9-6.9-22.2-6.1-39.7s4.4-30.5,10.6-38.8c6.2-8.4,15.9-12.3,29.2-11.6s22.3,5.3,27.1,14c4.8,8.7,6.7,21.8,5.9,39.5
	c-0.9,17.6-4.3,30.7-10.3,39.3C566.6,350.5,556.9,354.5,543.6,353.8L543.6,353.8z M536.9,273.2c-2.4,5.2-3.9,14.4-4.5,27.6
	c-0.7,13.2-0.2,22.5,1.5,27.9s5.3,8.3,10.8,8.5c5.6,0.3,9.5-2.2,11.7-7.5s3.7-14.6,4.3-27.9c0.7-13.3,0.2-22.6-1.4-27.8
	c-1.6-5.2-5.1-7.9-10.6-8.2S539.3,267.9,536.9,273.2z M522,457.3l-21.1,1l-3.5-76.1c-2.1,1.3-5.5,2.4-10.2,3.5s-8.5,1.7-11.2,1.8
	l-1.9-18.1c13.3-1.6,22.9-5.9,28.8-12.7l14.4-0.7L522,457.3L522,457.3z"/>
<path class="st0" d="M428.1,223.2l13.6-72.3l21.2,4l-13.4,71.7c-3.7,19.7-16,27.6-36.8,23.8c-19.5-3.7-27.8-14.9-25-33.8l20.9,0.8
	c-0.5,5-0.3,8.7,0.6,11.1c0.9,2.4,3.1,3.9,6.6,4.6s6.2,0.2,8.2-1.2C425.9,230.3,427.3,227.4,428.1,223.2L428.1,223.2z M448.1,335.8
	c3,3.5,8.1,5,15.2,4.4s11.8-2.7,14.2-6.4c2.4-3.7,3.2-9.8,2.5-18.3l-5-61.5l21.5-1.8l5.3,64.6c2.1,25.4-10.4,39.2-37.5,41.5
	c-13.8,1.2-24.1-1.1-31-6.9s-10.8-15.3-11.8-28.6l-5.2-64l21.5-1.8l5,61.1C443.2,326.4,445,332.3,448.1,335.8L448.1,335.8z
	 M457.7,468.7l-26.4-1.9l-33.9-74.1l-5.1,71.4l-21.1-1.5l7.2-101.1l27.1,1.9l33.2,74.4l5.1-71.7l21.1,1.5L457.7,468.7L457.7,468.7z
	 M421.8,538.5l1.5,23.6l45.1-2.8l1.1,18.1l-66.6,4.2l-6.4-101.2l64.1-4l1.1,18.1l-42.6,2.7l1.5,23.7l40.1-2.5l1.1,17.6L421.8,538.5
	L421.8,538.5z"/>
<g>
	<path class="st0" d="M486.8,488.8l1.5-18.1l66.3,5.5l-1.3,16.2l-45.5,81.8l-22.3-1.9l45.9-79.8L486.8,488.8z"/>
</g>
</svg>
