<?xml version="1.0" encoding="utf-8"?>
<!-- Generator: Adobe Illustrator 20.1.0, SVG Export Plug-In . SVG Version: 6.00 Build 0)  -->
<svg version="1.1" id="Layer_1" xmlns="http://www.w3.org/2000/svg" xmlns:xlink="http://www.w3.org/1999/xlink" x="0px" y="0px"
	 viewBox="0 0 600 600" style="enable-background:new 0 0 600 600;" xml:space="preserve">
<style type="text/css">
	.st0{fill:#222222;}
</style>
<path class="st0" d="M122,288v99.2h-20.7v-77.8l-2,0L76,387.2H56.9l-22.5-77.9h0.8v77.9H14.5V288h31.4l21,72.5l0.6,0L88.3,288H122z"
	/>
<path class="st0" d="M153.1,306.3h26.3l35.1,99.2h-23.2l-8.2-23.9h-35.5l-7.9,23.9h-19.1L153.1,306.3z M178.7,364.5l-12.3-38.4h-0.5
	l-12.6,38.4H178.7z"/>
<path class="st0" d="M251.7,428.3h-21.1v-37.1l-34.4-62.1h23.1l21.7,42.5h0.7l20.8-42.5H284l-32.3,61.8V428.3z"/>
<path class="st0" d="M321.5,494.3v-72h21.1v71.4c0,19.6-10.4,29.5-31.1,29.5c-19.4,0-29.5-9.3-30.1-28l20.3-3
	c0.4,4.9,1.3,8.4,2.6,10.6c1.3,2.1,3.7,3.2,7.2,3.2s6-0.9,7.7-2.7C320.7,501.5,321.5,498.5,321.5,494.3z"/>
<path class="st0" d="M373.9,473.1c2.7,3.7,7.5,5.5,14.5,5.5c7,0,11.8-1.7,14.3-5.1c2.6-3.4,3.9-9.3,3.9-17.6v-60.4h21.1v63.4
	c0,24.9-13.3,37.4-39.9,37.5c-13.6,0-23.5-3-29.7-9.2c-6.2-6.2-9.3-15.8-9.3-28.8v-62.9h21.1v60
	C369.9,463.6,371.3,469.5,373.9,473.1z"/>
<path class="st0" d="M518.1,470.4h-25.9l-38.2-70v70h-20.7v-99.2h26.5l37.5,70.3v-70.3h20.7V470.4z"/>
<path class="st0" d="M547.3,420.2v23.1h44.2v17.8h-65.3v-99.2h62.9v17.8h-41.8v23.2h39.3v17.3H547.3z"/>
<g>
	<path class="st0" d="M287.8,479.2h-20.3v-24h-22.5V435h22.5v-23.4h20.3V435h22.6v20.1h-22.6V479.2z"/>
</g>
<g>
	<path class="st0" d="M439.2,484.8c3.4-2.6,7.9-3.9,13.3-3.9s9.6,1.3,12.4,3.8c2.8,2.5,4.3,5.8,4.3,10.1c0,4.2-0.9,7.9-2.7,10.9
		c-1.8,3.1-4.9,7-9.4,11.9l-9.1,10.1v0.2h22.1v10h-35.8v-9.7l12.1-14c4.8-5.5,7.8-9.2,9.1-11.3c1.3-2.1,2-4.4,2-6.8
		c0-3.9-2.1-5.9-6.2-5.9c-2.4,0-4.2,0.7-5.3,2c-1.2,1.4-1.9,3.4-2.3,6.2l-10.5-1.8C433.7,491.4,435.8,487.4,439.2,484.8z"/>
	<path class="st0" d="M493.7,538.9c-7.4,0-12.5-2.4-15.5-7.2c-2.9-4.8-4.4-12-4.4-21.7c0-9.7,1.6-16.9,4.8-21.7s8.4-7.2,15.8-7.2
		c7.3,0,12.5,2.3,15.3,7c2.9,4.7,4.3,11.9,4.3,21.6s-1.5,17.1-4.6,22C506.3,536.4,501,538.9,493.7,538.9z M487.8,494.6
		c-1.2,2.9-1.7,8-1.7,15.3c0,7.3,0.5,12.4,1.6,15.4c1.1,3,3.1,4.4,6.2,4.4c3.1,0,5.2-1.5,6.2-4.5c1.1-3,1.6-8.2,1.6-15.5
		c0-7.4-0.5-12.5-1.5-15.3s-3-4.2-6.1-4.2C491,490.2,488.9,491.7,487.8,494.6z"/>
	<path class="st0" d="M540.1,537.9h-11.7v-42.1c-1.2,0.6-3.1,1.2-5.7,1.7s-4.7,0.7-6.2,0.7l-0.6-10c7.4-0.6,12.8-2.7,16.2-6.3h8
		V537.9z"/>
	<path class="st0" d="M569,538.9c-6.5,0-11.4-1.4-14.7-4.2c-3.3-2.8-5-6.2-5-10.4c0-6.7,3.6-11.8,10.8-15c-5.8-2.7-8.7-7.1-8.7-12.9
		c0-4.8,1.8-8.6,5.3-11.3s8.2-4.1,14-4.1c5.9,0,10.4,1.2,13.7,3.6c3.2,2.4,4.8,5.6,4.8,9.5c0,3-0.8,5.5-2.4,7.6
		c-1.6,2.1-4,4-7.3,5.9c3.6,1.8,6.3,3.8,7.8,6s2.4,5.3,2.4,9.1c0,4.6-1.8,8.4-5.5,11.5C580.6,537.3,575.5,538.9,569,538.9z
		 M560.9,523.1c0,4.6,2.8,7,8.3,7c2.8,0,4.9-0.6,6.3-1.9c1.4-1.3,2.2-2.7,2.2-4.4c0-1.7-0.3-3-0.8-4c-0.8-1.6-2.7-3.1-5.6-4.5
		c-1-0.5-2.3-1-4-1.6c-2.1,1.2-3.7,2.5-4.8,3.9C561.5,519,560.9,520.9,560.9,523.1z M570.4,489.4c-2.1,0-3.8,0.5-5.1,1.4
		c-1.3,1-1.9,2.3-1.9,4.1c0,1.8,0.7,3.3,2,4.7c1.3,1.3,3.4,2.6,6.3,4c4-2.4,5.9-5.2,5.9-8.6C577.5,491.3,575.1,489.4,570.4,489.4z"
		/>
</g>
</svg>
