<?xml version="1.0" encoding="utf-8"?>
<!-- Generator: Adobe Illustrator 19.2.1, SVG Export Plug-In . SVG Version: 6.00 Build 0)  -->
<svg version="1.1" id="Layer_1" xmlns="http://www.w3.org/2000/svg" xmlns:xlink="http://www.w3.org/1999/xlink" x="0px" y="0px"
	 viewBox="0 0 600 600" style="enable-background:new 0 0 600 600;" xml:space="preserve">
<style type="text/css">
	.st0{fill:#222222;}
</style>
<path class="st0" d="M511.2,148.8c5.7-5.3,13.4-8.4,23.3-9.4c9.8-1,17.5,0.5,23.1,4.5c5.6,3.9,8.8,9.7,9.5,17.3
	c0.8,7.6-0.2,14.3-2.8,20.2c-2.7,5.9-7.6,13.6-14.7,23.1L535,224.4v0.4l39.9-4.1l1.8,18.1l-64.5,6.6l-1.8-17.5l19.2-27.4
	c7.6-10.7,12.4-18.1,14.4-22.1c2-4.1,2.8-8.3,2.4-12.6c-0.7-7.1-4.8-10.2-12.3-9.5c-4.3,0.4-7.4,2-9.2,4.6
	c-1.8,2.7-2.9,6.5-3.1,11.6l-19.3-1.3C502.6,161.6,505.5,154.1,511.2,148.8L511.2,148.8z M543.6,353.8c-13.3-0.7-22.5-5.5-27.4-14.5
	c-4.9-8.9-6.9-22.2-6.1-39.7s4.4-30.5,10.6-38.8c6.2-8.4,15.9-12.3,29.2-11.6c13.3,0.7,22.3,5.3,27.1,14c4.8,8.7,6.7,21.8,5.9,39.5
	c-0.9,17.6-4.3,30.7-10.3,39.3C566.6,350.5,556.9,354.5,543.6,353.8L543.6,353.8z M536.9,273.2c-2.4,5.2-3.9,14.4-4.5,27.6
	c-0.7,13.2-0.2,22.5,1.5,27.9c1.7,5.4,5.3,8.3,10.8,8.5c5.6,0.3,9.5-2.2,11.7-7.5c2.2-5.3,3.7-14.6,4.3-27.9
	c0.7-13.3,0.2-22.6-1.4-27.8c-1.6-5.2-5.1-7.9-10.6-8.2C543.2,265.5,539.3,267.9,536.9,273.2z M522,457.3l-21.1,1l-3.5-76.1
	c-2.1,1.3-5.5,2.4-10.2,3.5c-4.7,1.1-8.5,1.7-11.2,1.8l-1.9-18.1c13.3-1.6,22.9-5.9,28.8-12.7l14.4-0.7L522,457.3L522,457.3z"/>
<path class="st0" d="M529.9,489.8c-1.7-2-4.4-3.1-8.1-3.4s-7.1,1.1-10.1,4.2c-5.5,5.6-8.8,14.5-10,26.5c6.2-4.7,13.5-6.8,22.1-6.1
	s15.1,3.8,19.6,9.2c4.6,5.4,6.4,12.9,5.6,22.4c-0.9,11.4-4.8,19.7-11.6,25.1c-6.8,5.4-15.4,7.6-25.7,6.8
	c-13.7-1.1-22.8-6.8-27.3-16.9c-4.1-9.2-5.5-21.1-4.3-35.7c0.9-11,3.3-20.7,7.3-29c2.3-4.9,5.1-9,8.2-12.4c3.2-3.4,7.4-6,12.5-7.9
	c5.1-1.9,10.8-2.6,17.1-2.1c16,1.3,25.1,9.9,27.1,25.8l-19.3,3.6C532.6,495,531.6,491.8,529.9,489.8L529.9,489.8z M505.1,553.9
	c1.9,2.8,4.8,4.3,8.7,4.6c3.9,0.3,7-1,9.4-3.8c2.3-2.9,3.7-7,4.2-12.2c0.4-5.2-0.2-9.1-1.8-11.6c-1.7-2.6-4.8-4-9.4-4.4
	c-4.6-0.4-9.5,1.3-14.5,5.1c-0.3,5.3-0.2,9.6,0.1,13S503.2,551.1,505.1,553.9L505.1,553.9z"/>
<path class="st0" d="M428.1,223.2l13.6-72.3l21.2,4l-13.4,71.7c-3.7,19.7-16,27.6-36.8,23.8c-19.5-3.7-27.8-14.9-25-33.8l20.9,0.8
	c-0.5,5-0.3,8.7,0.6,11.1c0.9,2.4,3.1,3.9,6.6,4.6s6.2,0.2,8.2-1.2C425.9,230.3,427.3,227.4,428.1,223.2L428.1,223.2z M448.1,335.8
	c3,3.5,8.1,5,15.2,4.4c7.1-0.6,11.8-2.7,14.2-6.4c2.4-3.7,3.2-9.8,2.5-18.3l-5-61.5l21.5-1.8l5.3,64.6c2.1,25.4-10.4,39.2-37.5,41.5
	c-13.8,1.2-24.1-1.1-31-6.9c-6.9-5.8-10.8-15.3-11.8-28.6l-5.2-64l21.5-1.8l5,61.1C443.2,326.4,445,332.3,448.1,335.8L448.1,335.8z
	 M457.7,468.7l-26.4-1.9l-33.9-74.1l-5.1,71.4l-21.1-1.5l7.2-101.1l27.1,1.9l33.2,74.4l5.1-71.7l21.1,1.5L457.7,468.7L457.7,468.7z
	 M421.8,538.5l1.5,23.6l45.1-2.8l1.1,18.1l-66.6,4.2l-6.4-101.2l64.1-4l1.1,18.1l-42.6,2.7l1.5,23.7l40.1-2.5l1.1,17.6L421.8,538.5
	L421.8,538.5z"/>
</svg>
