<?xml version="1.0" encoding="utf-8"?>
<!-- Generator: Adobe Illustrator 20.1.0, SVG Export Plug-In . SVG Version: 6.00 Build 0)  -->
<svg version="1.1" id="Layer_1" xmlns="http://www.w3.org/2000/svg" xmlns:xlink="http://www.w3.org/1999/xlink" x="0px" y="0px"
	 viewBox="0 0 600 600" style="enable-background:new 0 0 600 600;" xml:space="preserve">
<style type="text/css">
	.st0{fill:#222222;}
</style>
<path class="st0" d="M355.2,470.1c6.8-3.7,15.1-4.8,24.9-3.3s16.8,4.8,21.3,10.1c4.4,5.2,6.1,11.6,4.9,19.2
	c-1.1,7.6-3.7,13.9-7.8,18.9c-4,5-10.7,11.2-20.1,18.7l-19,15.6l-0.1,0.4l39.6,6l-2.7,18l-64.1-9.8l2.6-17.4l25.4-21.8
	c10-8.5,16.5-14.4,19.4-17.8c3-3.4,4.8-7.3,5.4-11.6c1.1-7-2.1-11.1-9.6-12.2c-4.3-0.6-7.6,0.1-10.1,2.2c-2.4,2.1-4.4,5.6-5.9,10.5
	l-18.4-6C343.7,480.3,348.4,473.8,355.2,470.1L355.2,470.1z M443.8,583.8c-13.4,0-22.7-4.4-28-13.1c-5.3-8.7-8-21.8-8-39.4
	s2.9-30.6,8.6-39.3c5.7-8.7,15.3-13,28.6-13.1c13.3,0,22.6,4.2,27.8,12.7c5.2,8.4,7.8,21.5,7.8,39.1s-2.8,30.9-8.4,39.8
	C466.6,579.3,457.1,583.8,443.8,583.8L443.8,583.8z M433.1,503.5c-2.1,5.3-3.2,14.6-3.2,27.7s1,22.4,2.9,27.8s5.7,8,11.2,8
	c5.6,0,9.3-2.7,11.3-8.1c2-5.4,2.9-14.8,2.9-28.1c0-13.4-0.9-22.6-2.7-27.7c-1.8-5.1-5.5-7.6-11-7.6
	C439,495.6,435.2,498.2,433.1,503.5L433.1,503.5z"/>
<path class="st0" d="M512.2,534.7l-20.8,3.5L478.8,463c-1.9,1.5-5.2,3.1-9.7,4.7c-4.6,1.7-8.2,2.7-10.9,3.2l-4-17.8
	c13-3.2,22-8.6,27.1-16.1l14.2-2.4L512.2,534.7L512.2,534.7z"/>
<path class="st0" d="M247.6,313.7l-29,97.1l-20.2-6.1l22.8-76.2l-1.9-0.6l-45.7,69.3l-18.7-5.6l0.7-82.9l0.8,0.2l-22.8,76.3
	l-20.2-6.1l29-97.1l30.7,9.2l-0.7,77.2l0.6,0.1l41.6-64.9L247.6,313.7L247.6,313.7z M256.3,325.8h26.9l35.9,101.4h-23.7l-8.3-24.5
	h-36.3l-8.1,24.5h-19.6L256.3,325.8z M282.5,385.4l-12.6-39.2h-0.5l-12.9,39.2H282.5z M340.1,398.6l11.7,36.6l-20.5,6.6l-30.9-96.5
	l37.6-12c11.2-3.6,20.2-3.6,26.9-0.1c6.7,3.5,11.3,9.2,13.9,17.1c4.3,13.3,1.7,24.3-7.8,32.9l35.1,34.7L384,425l-30.8-30.6
	L340.1,398.6z M334.9,382.5l10.5-3.4c11.6-3.7,15.9-10.4,12.8-20.1c-1.4-4.5-3.8-7.3-7.2-8.5c-3.4-1.1-7.9-0.7-13.5,1.1l-11.3,3.6
	L334.9,382.5L334.9,382.5z"/>
<path class="st0" d="M427.7,413.6c-30.9-4.1-44.1-23.1-39.5-57c2.2-16.3,8.1-28.6,17.8-37.1c9.7-8.5,22.3-11.6,37.8-9.6
	c12.2,1.6,21.5,5.9,28.1,12.8c6.5,6.9,9.3,16.5,8.2,28.7l-21.4-1.1c0.3-7.3-0.9-12.7-3.7-16.3c-2.8-3.6-7.4-5.8-13.9-6.6
	c-17.4-2.3-27.6,8-30.7,31.1c-1.7,12.1-0.8,21.1,2.6,27.1s8.9,9.4,16.3,10.4c7.5,1,13,0.2,16.7-2.5s6.5-6.8,8.5-12.6L475,387
	c-2.1,7.4-5.8,13.3-11.1,17.8c-5.3,4.4-11,7.2-17,8.4C440.9,414.4,434.5,414.5,427.7,413.6L427.7,413.6z"/>
<path class="st0" d="M525.8,314.4l67,76.1l-16.2,14.2l-27.5-31.2l-29,25.7l27.5,31.2l-16.2,14.2l-67-76.1l16.2-14.2l27.5,31.2
	l29.1-25.6l-27.5-31.2L525.8,314.4L525.8,314.4z"/>
<g>
	<path class="st0" d="M545.4,557.5c6.2,0.3,11-2.8,14.6-9.1c3.5-6.3,5.6-14.5,6.2-24.5c-6.1,4.9-13.8,7.2-23.2,6.8
		c-9.4-0.4-16.6-3.4-21.7-8.9c-5-5.6-7.3-14-6.8-25.2c0.5-11.2,4.4-19.8,11.7-25.7c7.3-6,16.7-8.7,27.9-8.2c14.3,0.6,24,6.2,29,16.9
		c4.6,9.7,6.6,22.4,6,38c-1.7,39.3-16.6,58.3-44.8,57.1c-19.6-0.9-30.5-9.9-32.9-27.2l20.4-5.2c0.7,5.1,2.1,8.9,4.2,11.4
		S541.3,557.4,545.4,557.5z M551.6,480c-8.9-0.4-13.5,5.2-14,16.6c-0.5,11.5,3.6,17.4,12.1,17.8c5.6,0.2,10.9-1.8,15.8-6
		c0-8.6-0.6-14.7-1.7-18.4c-1.2-3.6-2.7-6.2-4.7-7.6C557.1,480.9,554.6,480.1,551.6,480z"/>
</g>
</svg>
