<?xml version="1.0" encoding="utf-8"?>
<!-- Generator: Adobe Illustrator 19.2.1, SVG Export Plug-In . SVG Version: 6.00 Build 0)  -->
<svg version="1.1" id="Layer_1" xmlns="http://www.w3.org/2000/svg" xmlns:xlink="http://www.w3.org/1999/xlink" x="0px" y="0px"
	 viewBox="0 0 600 600" style="enable-background:new 0 0 600 600;" xml:space="preserve">
<style type="text/css">
	.st0{fill:#222222;}
</style>
<path class="st0" d="M378.4,434.5c7.5-2,15.8-1.1,25,2.7c9.1,3.7,15.2,8.7,18.3,14.8c3.1,6.1,3.1,12.7,0.2,19.8
	c-2.9,7.1-6.9,12.6-12,16.5s-13.1,8.4-23.9,13.4l-22.2,10.6l-0.2,0.4l37.1,15.2l-6.9,16.8l-60-24.6l6.7-16.3l29.8-15.1
	c11.7-5.9,19.4-10.1,23.1-12.7s6.4-5.9,8-10c2.7-6.6,0.6-11.3-6.4-14.1c-4-1.6-7.4-1.7-10.3-0.2s-5.6,4.4-8.2,8.8l-16.4-10.2
	C364.8,441.6,370.9,436.4,378.4,434.5z M449.9,589.4c-13.3,1.3-23-2.2-29.2-10.3s-10.1-20.9-11.8-38.4c-1.7-17.5-0.1-30.8,4.7-40
	c4.9-9.2,13.9-14.5,27.2-15.8c13.2-1.3,22.9,2,28.9,9.9s9.9,20.6,11.6,38.2c1.7,17.5,0.3,31-4.4,40.4
	C472.2,582.7,463.2,588.1,449.9,589.4L449.9,589.4z M431.4,510.6c-1.6,5.5-1.7,14.8-0.4,27.9c1.3,13.1,3.2,22.2,5.6,27.4
	c2.4,5.1,6.4,7.4,12,6.8c5.5-0.5,9-3.6,10.5-9.2c1.4-5.6,1.5-15,0.2-28.2c-1.3-13.3-3.1-22.4-5.4-27.3c-2.3-4.9-6.2-7.1-11.7-6.5
	C436.5,502.1,433,505.1,431.4,510.6L431.4,510.6z M510.8,540.3l-20.9-3.2l11.7-75.3c-2.3,0.8-5.9,1.3-10.7,1.4
	c-4.9,0.1-8.6,0-11.3-0.4l1.8-18.1c13.4,1,23.6-1.2,30.8-6.7l14.3,2.2L510.8,540.3z"/>
<path class="st0" d="M567.4,500.8c-1.7-2-4.4-3.2-8.1-3.5c-3.7-0.4-7.1,1-10.1,4c-5.6,5.5-9,14.3-10.4,26.3
	c6.3-4.7,13.6-6.6,22.2-5.7c8.5,0.8,15,4,19.5,9.5s6.2,13,5.3,22.5c-1.1,11.4-5.1,19.7-12,24.9s-15.5,7.4-25.8,6.4
	c-13.7-1.3-22.7-7.1-27-17.3c-3.9-9.2-5.2-21.2-3.8-35.8c1.1-11,3.6-20.6,7.7-28.9c2.4-4.9,5.2-9,8.4-12.3c3.3-3.3,7.5-5.9,12.6-7.7
	c5.1-1.8,10.8-2.5,17.1-1.8c16,1.6,24.9,10.3,26.7,26.2l-19.3,3.3C570.1,506.1,569.1,502.8,567.4,500.8L567.4,500.8z M541.7,564.5
	c1.9,2.8,4.8,4.4,8.6,4.8c3.9,0.4,7-0.9,9.5-3.7c2.4-2.9,3.8-6.9,4.3-12.1c0.5-5.2,0-9.1-1.6-11.7c-1.6-2.6-4.7-4.1-9.4-4.6
	c-4.6-0.4-9.5,1.2-14.6,4.9c-0.3,5.3-0.4,9.6-0.1,13C538.8,558.6,539.8,561.7,541.7,564.5L541.7,564.5z"/>
<path class="st0" d="M146.6,43.3l-35.4,95l-19.8-7.4l27.8-74.5l-1.9-0.7l-50.2,66.1L48.8,115L55,32.3l0.8,0.3L28,107.2L8.2,99.9
	l35.4-95l30.1,11.2L67.9,93l0.5,0.2l45.8-62C114.2,31.2,146.6,43.3,146.6,43.3z M148.4,69.9l26.8-1.8l42.7,98.7l-23.7,1.6l-10-23.8
	L148,147l-6.4,25l-19.5,1.3L148.4,69.9L148.4,69.9z M178.5,127.5l-15.2-38.3h-0.5l-10.2,40L178.5,127.5z M242.6,117.9l-20.6,6.4
	L210.8,88l-52.4-50.2l22.6-7l34,34.9l0.6-0.2l7.5-47.8l20.9-6.5l-12.8,70.1L242.6,117.9L242.6,117.9z"/>
</svg>
