<?xml version="1.0" encoding="utf-8"?>
<!-- Generator: Adobe Illustrator 20.1.0, SVG Export Plug-In . SVG Version: 6.00 Build 0)  -->
<svg version="1.1" id="Layer_1" xmlns="http://www.w3.org/2000/svg" xmlns:xlink="http://www.w3.org/1999/xlink" x="0px" y="0px"
	 viewBox="0 0 600 600" style="enable-background:new 0 0 600 600;" xml:space="preserve">
<style type="text/css">
	.st0{fill:#222222;}
</style>
<path class="st0" d="M367.4,418.5c7.5-2,15.8-1.1,25,2.7c9.1,3.7,15.2,8.7,18.3,14.8c3.1,6.1,3.1,12.7,0.2,19.8
	c-2.9,7.1-6.9,12.6-12,16.5s-13.1,8.4-23.9,13.4l-22.2,10.6l-0.2,0.4l37.1,15.2l-6.9,16.8l-60-24.6l6.7-16.3l29.8-15.1
	c11.7-5.9,19.4-10.1,23.1-12.7s6.4-5.9,8-10c2.7-6.6,0.6-11.3-6.4-14.1c-4-1.6-7.4-1.7-10.3-0.2s-5.6,4.4-8.2,8.8l-16.4-10.2
	C353.8,425.6,359.9,420.4,367.4,418.5z M438.9,573.4c-13.3,1.3-23-2.2-29.2-10.3s-10.1-20.9-11.8-38.4c-1.7-17.5-0.1-30.8,4.7-40
	c4.9-9.2,13.9-14.5,27.2-15.8c13.2-1.3,22.9,2,28.9,9.9s9.9,20.6,11.6,38.2c1.7,17.5,0.3,31-4.4,40.4
	C461.2,566.7,452.2,572.1,438.9,573.4L438.9,573.4z M420.4,494.6c-1.6,5.5-1.7,14.8-0.4,27.9c1.3,13.1,3.2,22.2,5.6,27.4
	c2.4,5.1,6.4,7.4,12,6.8c5.5-0.5,9-3.6,10.5-9.2c1.4-5.6,1.5-15,0.2-28.2c-1.3-13.3-3.1-22.4-5.4-27.3s-6.2-7.1-11.7-6.5
	C425.5,486.1,422,489.1,420.4,494.6L420.4,494.6z M499.8,524.3l-20.9-3.2l11.7-75.3c-2.3,0.8-5.9,1.3-10.7,1.4
	c-4.9,0.1-8.6,0-11.3-0.4l1.8-18.1c13.4,1,23.6-1.2,30.8-6.7l14.3,2.2L499.8,524.3z"/>
<path class="st0" d="M159.6,96.3l-35.4,95l-19.8-7.4l27.8-74.5l-1.9-0.7l-50.2,66.1L61.8,168L68,85.3l0.8,0.3L41,160.2l-19.8-7.3
	l35.4-95l30.1,11.2L80.9,146l0.5,0.2l45.8-62L159.6,96.3z M161.4,122.9l26.8-1.8l42.7,98.7l-23.7,1.6l-10-23.8L161,200l-6.4,25
	l-19.5,1.3L161.4,122.9L161.4,122.9z M191.5,180.5l-15.2-38.3h-0.5l-10.2,40L191.5,180.5z M255.6,170.9l-20.6,6.4L223.8,141
	l-52.4-50.2l22.6-7l34,34.9l0.6-0.2l7.5-47.8l20.9-6.5l-12.8,70.1L255.6,170.9L255.6,170.9z"/>
<g>
	<path class="st0" d="M557.4,561.5c-12.5,1.2-22.2-0.6-29.2-5.4c-7-4.8-10.8-11.1-11.6-19.1c-1.2-13,4.8-23.4,18.2-31
		c-11.6-4.3-18-12-19.1-23.4c-0.9-9.3,1.9-16.9,8.2-22.8c6.4-6,15.1-9.5,26.2-10.5c11.4-1.1,20.4,0.4,27,4.4c6.6,4,10.3,9.8,11,17.6
		c0.5,5.8-0.5,10.8-3.2,15.1c-2.7,4.3-7,8.5-13,12.6c7.4,2.7,12.8,6.1,16.3,10.2c3.5,4.1,5.6,9.8,6.3,17.2c0.8,8.8-2,16.6-8.5,23.3
		C579.5,556.4,569.9,560.3,557.4,561.5z M538.9,532.5c0.9,9,6.6,12.9,17.4,11.9c5.3-0.5,9.3-2.1,11.8-4.9c2.6-2.7,3.7-5.7,3.4-8.9
		c-0.3-3.2-1-5.7-2.2-7.5c-1.9-3-5.8-5.6-11.7-7.7c-1.9-0.7-4.6-1.5-7.9-2.4c-3.8,2.7-6.6,5.5-8.5,8.5
		C539.3,524.5,538.5,528.2,538.9,532.5z M551,465.7c-4.1,0.4-7.3,1.6-9.6,3.7c-2.3,2.1-3.3,4.8-3,8.2c0.3,3.4,1.9,6.3,4.7,8.7
		c2.8,2.3,7.1,4.5,12.9,6.5c7.2-5.3,10.5-11.2,9.8-17.7C565.1,468,560.2,464.9,551,465.7z"/>
</g>
</svg>
