<?xml version="1.0" encoding="utf-8"?>
<!-- Generator: Adobe Illustrator 20.1.0, SVG Export Plug-In . SVG Version: 6.00 Build 0)  -->
<svg version="1.1" id="Layer_1" xmlns="http://www.w3.org/2000/svg" xmlns:xlink="http://www.w3.org/1999/xlink" x="0px" y="0px"
	 viewBox="0 0 600 600" style="enable-background:new 0 0 600 600;" xml:space="preserve">
<style type="text/css">
	.st0{fill:#222222;}
</style>
<path class="st0" d="M487,301.5c-4.7-6.2-7-14.2-7-24.1s2.3-17.4,6.8-22.5s10.6-7.7,18.2-7.7c7.7,0,14.3,1.6,19.8,4.9
	c5.6,3.2,12.7,8.9,21.5,17l18.2,16.5h0.4v-40.1h18.2v64.9h-17.6l-25.3-21.8c-9.9-8.6-16.7-14.1-20.6-16.6s-7.9-3.6-12.3-3.6
	c-7.1,0-10.7,3.8-10.7,11.3c0,4.3,1.2,7.5,3.7,9.6s6.2,3.5,11.3,4.2l-3.2,19.1C498.8,311.4,491.7,307.7,487,301.5L487,301.5z
	 M571,207.6c0,13.4-4.4,22.7-13.1,28c-8.7,5.3-21.8,8-39.4,8s-30.6-2.9-39.3-8.6c-8.7-5.7-13-15.3-13.1-28.6
	c0-13.3,4.2-22.6,12.7-27.8c8.4-5.2,21.5-7.8,39.1-7.8c17.6,0,30.9,2.8,39.8,8.4C566.6,184.8,571,194.2,571,207.6L571,207.6z
	 M490.8,218.3c5.3,2.1,14.6,3.2,27.7,3.2c13.1,0,22.4-1,27.8-2.9c5.4-1.9,8-5.7,8-11.2c0-5.6-2.7-9.3-8.1-11.3
	c-5.4-2-14.8-2.9-28.1-2.9c-13.4,0-22.6,0.9-27.7,2.7s-7.6,5.5-7.6,11S485.5,216.2,490.8,218.3L490.8,218.3z M553.3,128v21.1h-76.2
	c1.2,2.1,2.2,5.6,3.1,10.4c0.9,4.8,1.3,8.5,1.3,11.3l-18.2,1c-1-13.4-4.8-23.1-11.3-29.4V128H553.3L553.3,128z"/>
<path class="st0" d="M448.9,503.4v26.4l-71.6,39h71.6V590H347.5v-27.1l71.8-38.4h-71.8v-21.1H448.9z M461.6,448.4
	c0,16-4.7,27.9-14,35.6s-21.9,11.6-37.7,11.6c-15.8,0-28.6-4.3-38.4-12.8s-14.7-20.7-14.7-36.4c0-15.8,4.8-27.5,14.2-35.1
	c9.4-7.7,22.1-11.5,38.1-11.5s28.8,4.2,38.3,12.3C456.9,420.2,461.6,432.3,461.6,448.4z M443.4,447.6c0-17.1-11.4-25.7-34.2-25.7
	s-34.2,8.2-34.3,24.6c0,8.3,2.9,14.9,8.6,19.6s14.3,7.1,25.8,7.2C432.1,473.3,443.4,464.8,443.4,447.6z M439.9,347.6v29.1
	l-101.4,32.9v-24.2l80.1-23.1v-0.8l-80.1-23.2V316L439.9,347.6z M424.1,294.5h23.7v-45.2H466V316H364.5v-64.3h18.2v42.7h23.7v-40.2
	H424v40.3H424.1z M342.1,134.7h101.4v21.1h-79.6v2l79.5,23.9v19.5l-79.6,23v-0.8h79.6v21.1H342.1v-32.1l74.1-21.4v-0.6l-74.1-21.3
	V134.7L342.1,134.7z M558.9,511.6v36.6H457.5v-40.1c0-20.5,8.3-30.7,24.8-30.7c6.3,0,11.5,1.8,15.4,5.4s6.7,8.2,8.3,13.8h0.3
	c1.9-15.2,10.1-22.8,24.7-22.8C549.6,473.8,558.9,486.4,558.9,511.6L558.9,511.6z M499.4,526.7v-8c0-9.8-2.2-15.9-6.6-18.5
	c-1.9-1.1-4.3-1.7-7-1.7c-5,0-8.1,1.4-9.5,4.2c-1.4,2.8-2.1,7-2.1,12.8v11.2H499.4L499.4,526.7z M542.2,526.7v-11.1
	c0-6.5-0.9-11.4-2.7-14.7c-1.8-3.3-5.3-4.9-10.5-4.9s-8.7,1.5-10.5,4.6s-2.7,7.4-2.7,13v13.1H542.2z M537.1,447.5h23.7v-45.2H579
	V469H477.5v-64.3h18.2v42.7h23.7v-40.2H537L537.1,447.5L537.1,447.5z M519.4,375h38.5v21.5H456.5v-39.4c0-11.8,2.7-20.3,8.1-25.6
	c5.4-5.3,12.2-8,20.5-8c14,0,23.7,5.8,29,17.4l43.8-22.9v23.2l-38.5,20L519.4,375L519.4,375z M502.5,375v-11
	c0-12.2-5.1-18.3-15.2-18.3c-4.7,0-8.2,1.4-10.3,4.3c-2.1,2.9-3.1,7.3-3.1,13.2V375H502.5z"/>
<path class="st0" d="M516.5,553.9v37.9h-18.2v-37.9H516.5z"/>
<g>
	<path class="st0" d="M582,84.5c0,12.1-2.6,21.4-7.8,27.6c-5.2,6.3-11.7,9.4-19.5,9.4c-12.7,0-22.1-6.8-28.2-20.3
		c-5.2,10.8-13.2,16.2-24.3,16.3c-9,0-16.1-3.3-21.2-10c-5.2-6.7-7.7-15.4-7.7-26.2c0-11.1,2.2-19.6,6.7-25.6c4.5-6,10.4-9,17.9-9
		c5.6,0,10.4,1.5,14.2,4.4c3.9,2.9,7.5,7.5,11,13.6c3.3-6.8,7.1-11.8,11.3-14.7c4.3-3,9.9-4.5,17.1-4.5c8.6,0,15.8,3.4,21.6,10.3
		C579.1,62.8,582,72.3,582,84.5z M552.4,99.6c8.7,0,13-5.2,13-15.6c0-5.2-1.2-9.1-3.6-11.8c-2.4-2.7-5.1-4.1-8.2-4.1
		c-3.1,0-5.6,0.5-7.4,1.4c-3.1,1.6-5.9,5.1-8.4,10.5c-0.9,1.8-1.9,4.3-3,7.4c2.2,3.9,4.7,6.9,7.4,9
		C544.7,98.6,548.2,99.6,552.4,99.6z M489.2,81.9c0,4,0.9,7.2,2.7,9.6c1.8,2.4,4.3,3.6,7.7,3.6c3.3,0,6.2-1.3,8.8-3.8
		c2.5-2.5,4.9-6.4,7.4-11.8c-4.4-7.4-9.8-11.1-16.2-11.1C492.7,68.5,489.2,73,489.2,81.9z"/>
</g>
</svg>
