<svg class="Layer_1" xmlns="http://www.w3.org/2000/svg" viewBox="0 0 600 600"><style>.st0{fill:#fff}</style><path class="st0" d="M141.9 438.4c4.8-6.1 11.9-10.4 21.5-13 9.5-2.6 17.4-2.3 23.5.7 6.1 3 10.2 8.2 12.2 15.6s2.1 14.2.4 20.4c-1.7 6.2-5.3 14.6-10.9 25.2l-11.2 21.9.1.4 38.7-10.4 4.7 17.6-62.7 16.8-4.6-17 14.5-30.1c5.8-11.8 9.3-19.8 10.7-24.1s1.5-8.6.3-12.8c-1.8-6.9-6.4-9.3-13.7-7.4-4.2 1.1-7 3.1-8.4 6.1-1.4 2.9-1.8 6.9-1.2 12l-19.3 1.8c-1-9.8.7-17.6 5.4-23.7zM259.7 483.2c-12.9 3.4-23.1 1.6-30.5-5.4-7.4-7-13.4-19-17.9-35.9-4.5-16.9-5.2-30.3-1.8-40.2 3.3-9.9 11.4-16.5 24.2-20 12.9-3.4 22.9-1.8 30.1 5 7.2 6.8 13.1 18.7 17.7 35.8 4.6 17 5.3 30.6 2.2 40.6-3.1 10-11.1 16.7-24 20.1zm-31.1-74.7c-.7 5.7.7 14.9 4.1 27.6 3.4 12.7 6.7 21.4 10 26.1 3.2 4.7 7.5 6.3 12.9 4.8 5.4-1.4 8.3-5 8.8-10.8.5-5.7-1-15-4.4-27.9-3.5-12.9-6.7-21.6-9.8-26-3.1-4.4-7.3-5.9-12.6-4.5-5.4 1.5-8.4 5.1-9 10.7zM351.1 486.3l-20.4 5.5-19.7-73.7c-1.8 1.7-4.9 3.6-9.2 5.6-4.4 2.1-7.9 3.5-10.6 4.2l-5.7-17.3c12.6-4.4 21.1-10.6 25.4-18.6l14-3.7 26.2 98z"/><path class="year year--2018 st0" d="M382.7 431.7c-11.3 3-20.6 2.9-27.7-.4-7.2-3.3-11.7-8.6-13.6-15.8-3.2-11.8.8-22.3 11.9-31.4-11.4-2.1-18.4-8.3-21.2-18.6-2.2-8.4-.9-15.8 4-22.3s12.4-11.1 22.5-13.8c10.3-2.8 18.8-2.8 25.6-.1 6.7 2.6 11 7.5 12.9 14.4 1.4 5.2 1.2 10-.6 14.4-1.8 4.3-5.1 8.9-10 13.6 7.2 1.4 12.7 3.7 16.6 6.9 3.8 3.2 6.6 8.2 8.4 14.8 2.1 8 .7 15.6-4.2 22.8-5.2 7.3-13.3 12.4-24.6 15.5zm-21.6-23.9c2.2 8.1 8.1 10.9 17.8 8.3 4.8-1.3 8.2-3.4 10.1-6.3 1.9-2.9 2.5-5.8 1.7-8.7-.8-2.9-1.8-5.1-3.2-6.6-2.2-2.5-6.2-4.2-11.9-5.2-1.9-.3-4.5-.7-7.7-1-3.1 3-5.3 6.1-6.5 9.1-1.2 3-1.3 6.5-.3 10.4zm.7-63.3c-3.7 1-6.5 2.6-8.3 4.9-1.8 2.3-2.3 5-1.5 8 .8 3.1 2.7 5.5 5.7 7.3 3 1.7 7.2 3 12.9 4 5.8-6 7.9-11.9 6.3-17.8-1.7-6.5-6.7-8.6-15.1-6.4z"/><path class="year year--2017 st0" d="M333.3 358.5l-4.7-17.6 64.2-17.2 4.2 15.7-15.2 92.3-21.7 5.8 16.2-90.6-43 11.6z"/><path class="year year--2016 st0" d="M370.4 346c-2.3-1.3-5.2-1.4-8.8-.5s-6.3 3.4-8.1 7.3c-3.3 7.1-3.4 16.6-.5 28.3 4.2-6.6 10.5-10.9 18.7-13.2 8.3-2.2 15.5-1.5 21.5 2 6.1 3.6 10.4 10 12.8 19.2 3 11 2.1 20.2-2.5 27.5-4.6 7.3-11.9 12.3-21.9 15-13.3 3.6-23.7 1.3-31.4-6.7-6.9-7.3-12.3-18-16.1-32.2-2.9-10.7-3.8-20.6-2.9-29.8.5-5.4 1.7-10.2 3.6-14.5 1.9-4.3 4.9-8.2 9.1-11.6 4.2-3.5 9.3-6.1 15.4-7.7 15.6-4.2 27 .9 34.2 15.2l-16.9 9.8c-1.9-4-4-6.8-6.2-8.1zm-1.8 68.7c2.7 2 6 2.4 9.8 1.4 3.8-1 6.3-3.3 7.6-6.8 1.2-3.5 1.1-7.8-.2-12.9-1.4-5-3.2-8.5-5.6-10.4-2.4-1.9-5.9-2.2-10.4-1-4.5 1.2-8.5 4.4-11.9 9.7 1.5 5 3 9.1 4.5 12.2 1.4 3.3 3.5 5.8 6.2 7.8z"/><path class="year year--2015 st0" d="M379.9 326.1l4.7 17.6-36.8 9.9 4.3 25.1c3.8-5.7 9.5-9.6 17.1-11.7 7.6-2 14.5-1.2 20.7 2.4 6.1 3.7 10.6 10.6 13.4 21 2.8 10.4 1.9 19.5-2.9 27.2-4.7 7.7-12.5 13.1-23.2 16-8.6 2.3-16.4 2.2-23.1-.2-6.8-2.4-11.9-7.9-15.5-16.4l16.7-8.4c3.5 8.2 9.3 11.2 17.6 8.9 4.2-1.1 7.4-3.5 9.4-7.2 2-3.6 2.2-8.3.7-13.9-2.7-10-8.3-13.9-17-11.6-5.1 1.4-9.3 4.8-12.6 10.4l-14.8-2-10.3-53.2 51.6-13.9z"/><path class="st0" d="M48 263.2c-15.5-4.2-25.8-11.7-30.8-22.7s-5.5-24.1-1.4-39.4 11.5-26.6 22.3-33.8c10.8-7.3 23.8-8.9 39-4.8 15.2 4.1 25.3 11.7 30.3 22.8 5 11.1 5.4 24.3 1.3 39.8-4.2 15.5-11.5 26.7-21.8 33.8-10.5 7-23.4 8.5-38.9 4.3zm5.4-17.3c16.6 4.4 27.8-4.4 33.7-26.4 5.9-22 .9-35.2-14.9-39.5-8.1-2.2-15.1-1.1-21.2 3.2-6.1 4.3-10.6 12-13.6 23.1-5.9 21.9-.5 35.1 16 39.6zM141.3 318.3c-30.1-8.1-40.7-28.6-31.9-61.6 4.2-15.9 11.7-27.4 22.4-34.5s23.6-8.7 38.7-4.7c11.9 3.2 20.6 8.6 26.2 16.3 5.6 7.7 7.1 17.5 4.5 29.5l-21.1-3.9c1.3-7.2.7-12.7-1.6-16.6-2.3-3.9-6.6-6.7-12.9-8.4-16.9-4.5-28.4 4.4-34.5 26.9-3.2 11.8-3.5 20.8-.9 27.2 2.6 6.4 7.6 10.5 14.9 12.4s12.9 1.8 16.9-.3 7.3-6 10.1-11.4l19.5 8.7c-3 7.1-7.4 12.5-13.2 16.2-5.8 3.7-11.8 5.7-18 6.1-6.2.5-12.5-.2-19.1-1.9z"/><path class="st0" d="M225.6 303.5l-20.8-5.6 21.5-80.4-29-7.8 4.7-17.6 78.4 21-4.7 17.6L247 223l-21.4 80.5z"/><path class="st0" d="M277.2 341.3c-15.5-4.2-25.8-11.7-30.8-22.7s-5.5-24.1-1.4-39.4c4.1-15.3 11.5-26.6 22.3-33.8 10.8-7.3 23.8-8.9 39-4.8 15.2 4.1 25.3 11.7 30.3 22.8 5 11.1 5.4 24.3 1.3 39.8-4.2 15.5-11.5 26.7-21.8 33.8-10.4 7-23.4 8.5-38.9 4.3zm5.5-17.3c16.6 4.4 27.8-4.4 33.7-26.4 5.9-22 .9-35.2-14.9-39.5-8.1-2.2-15.1-1.1-21.2 3.2-6.1 4.3-10.6 12-13.6 23.1-5.9 21.9-.6 35.1 16 39.6zM380.7 315.1l-35.3-9.5 26.2-97.9 38.8 10.4c19.8 5.3 27.5 15.9 23.2 31.9-1.6 6.1-4.7 10.6-9.2 13.5-4.5 2.9-9.7 4.3-15.5 4.4l-.1.3c14.2 5.7 19.4 15.7 15.6 29.8-4.7 18-19.3 23.7-43.7 17.1zm.9-61.3l7.7 2.1c9.4 2.5 15.9 2 19.5-1.6 1.6-1.6 2.8-3.7 3.5-6.4 1.2-4.8.7-8.2-1.6-10.3-2.3-2-6.2-3.8-11.8-5.4l-10.8-2.9-6.5 24.5zm-11.1 41.3l10.7 2.9c6.3 1.7 11.3 2.1 14.9 1.2 3.6-.9 6.1-3.9 7.5-8.9 1.3-5 .8-8.8-1.7-11.3-2.5-2.6-6.4-4.6-11.8-6l-12.7-3.4-6.9 25.5zM444.6 332.5l-6.1 22.8 43.6 11.7-4.7 17.6-64.4-17.2 26.2-97.9 62.1 16.6-4.7 17.6-41.3-11.1-6.1 22.9 38.8 10.4-4.6 17-38.8-10.4zM529.2 298.2l-10 37.2-20.8-5.6 26.2-97.9 38.1 10.2c11.4 3 18.9 7.9 22.7 14.4 3.8 6.6 4.6 13.9 2.4 21.9-3.6 13.5-11.7 21.3-24.4 23.5l10.8 48.3-22.4-6-9.3-42.3-13.3-3.7zm4.4-16.3l10.7 2.9c11.8 3.2 19-.2 21.6-10 1.3-4.6.8-8.2-1.5-11-2.3-2.8-6.2-4.9-11.9-6.4l-11.5-3.1-7.4 27.6z"/></svg>