<?xml version="1.0" encoding="utf-8"?>
<!-- Generator: Adobe Illustrator 19.2.1, SVG Export Plug-In . SVG Version: 6.00 Build 0)  -->
<svg version="1.1" id="Layer_1" xmlns="http://www.w3.org/2000/svg" xmlns:xlink="http://www.w3.org/1999/xlink" x="0px" y="0px"
	 viewBox="0 0 600 600" style="enable-background:new 0 0 600 600;" xml:space="preserve">
<style type="text/css">
	.st0{fill:#222222;}
</style>
<path class="st0" d="M304.7,493.4c4.8-6.1,11.9-10.4,21.5-13c9.5-2.6,17.4-2.3,23.5,0.7s10.2,8.2,12.2,15.6s2.1,14.2,0.4,20.4
	c-1.7,6.2-5.3,14.6-10.9,25.2l-11.2,21.9l0.1,0.4l38.7-10.4l4.7,17.6L321,588.6l-4.6-17l14.5-30.1c5.8-11.8,9.3-19.8,10.7-24.1
	s1.5-8.6,0.3-12.8c-1.8-6.9-6.4-9.3-13.7-7.4c-4.2,1.1-7,3.1-8.4,6.1c-1.4,2.9-1.8,6.9-1.2,12l-19.3,1.8
	C298.3,507.3,300,499.5,304.7,493.4L304.7,493.4z M422.5,538.2c-12.9,3.4-23.1,1.6-30.5-5.4s-13.4-19-17.9-35.9
	c-4.5-16.9-5.2-30.3-1.8-40.2c3.3-9.9,11.4-16.5,24.2-20c12.9-3.4,22.9-1.8,30.1,5s13.1,18.7,17.7,35.8c4.6,17,5.3,30.6,2.2,40.6
	C443.4,528.1,435.4,534.8,422.5,538.2L422.5,538.2z M391.4,463.5c-0.7,5.7,0.7,14.9,4.1,27.6c3.4,12.7,6.7,21.4,10,26.1
	c3.2,4.7,7.5,6.3,12.9,4.8c5.4-1.4,8.3-5,8.8-10.8c0.5-5.7-1-15-4.4-27.9c-3.5-12.9-6.7-21.6-9.8-26s-7.3-5.9-12.6-4.5
	C395,454.3,392,457.9,391.4,463.5L391.4,463.5z M513.9,541.3l-20.4,5.5l-19.7-73.7c-1.8,1.7-4.9,3.6-9.2,5.6
	c-4.4,2.1-7.9,3.5-10.6,4.2l-5.7-17.3c12.6-4.4,21.1-10.6,25.4-18.6l14-3.7L513.9,541.3L513.9,541.3z"/>
<path class="st0" d="M533.2,401c-2.3-1.3-5.2-1.4-8.8-0.5s-6.3,3.4-8.1,7.3c-3.3,7.1-3.4,16.6-0.5,28.3c4.2-6.6,10.5-10.9,18.7-13.2
	c8.3-2.2,15.5-1.5,21.5,2c6.1,3.6,10.4,10,12.8,19.2c3,11,2.1,20.2-2.5,27.5c-4.6,7.3-11.9,12.3-21.9,15
	c-13.3,3.6-23.7,1.3-31.4-6.7c-6.9-7.3-12.3-18-16.1-32.2c-2.9-10.7-3.8-20.6-2.9-29.8c0.5-5.4,1.7-10.2,3.6-14.5s4.9-8.2,9.1-11.6
	c4.2-3.5,9.3-6.1,15.4-7.7c15.6-4.2,27,0.9,34.2,15.2l-16.9,9.8C537.5,405.1,535.4,402.3,533.2,401L533.2,401z M531.4,469.7
	c2.7,2,6,2.4,9.8,1.4s6.3-3.3,7.6-6.8c1.2-3.5,1.1-7.8-0.2-12.9c-1.4-5-3.2-8.5-5.6-10.4c-2.4-1.9-5.9-2.2-10.4-1s-8.5,4.4-11.9,9.7
	c1.5,5,3,9.1,4.5,12.2C526.6,465.2,528.7,467.7,531.4,469.7L531.4,469.7z"/>
<path class="st0" d="M48,287.2c-15.5-4.2-25.8-11.7-30.8-22.7c-5-11-5.5-24.1-1.4-39.4s11.5-26.6,22.3-33.8
	c10.8-7.3,23.8-8.9,39-4.8c15.2,4.1,25.3,11.7,30.3,22.8s5.4,24.3,1.3,39.8c-4.2,15.5-11.5,26.7-21.8,33.8
	C76.4,289.9,63.5,291.4,48,287.2L48,287.2z M53.4,269.9c16.6,4.4,27.8-4.4,33.7-26.4c5.9-22,0.9-35.2-14.9-39.5
	c-8.1-2.2-15.1-1.1-21.2,3.2s-10.6,12-13.6,23.1C31.5,252.2,36.9,265.4,53.4,269.9L53.4,269.9z M141.3,342.3
	c-30.1-8.1-40.7-28.6-31.9-61.6c4.2-15.9,11.7-27.4,22.4-34.5s23.6-8.7,38.7-4.7c11.9,3.2,20.6,8.6,26.2,16.3
	c5.6,7.7,7.1,17.5,4.5,29.5l-21.1-3.9c1.3-7.2,0.7-12.7-1.6-16.6c-2.3-3.9-6.6-6.7-12.9-8.4c-16.9-4.5-28.4,4.4-34.5,26.9
	c-3.2,11.8-3.5,20.8-0.9,27.2c2.6,6.4,7.6,10.5,14.9,12.4s12.9,1.8,16.9-0.3s7.3-6,10.1-11.4l19.5,8.7c-3,7.1-7.4,12.5-13.2,16.2
	s-11.8,5.7-18,6.1C154.2,344.7,147.9,344,141.3,342.3L141.3,342.3z"/>
<path class="st0" d="M225.6,327.5l-20.8-5.6l21.5-80.4l-29-7.8l4.7-17.6l78.4,21l-4.7,17.6L247,247L225.6,327.5z"/>
<path class="st0" d="M277.2,365.3c-15.5-4.2-25.8-11.7-30.8-22.7s-5.5-24.1-1.4-39.4s11.5-26.6,22.3-33.8c10.8-7.3,23.8-8.9,39-4.8
	c15.2,4.1,25.3,11.7,30.3,22.8c5,11.1,5.4,24.3,1.3,39.8c-4.2,15.5-11.5,26.7-21.8,33.8C305.7,368,292.7,369.5,277.2,365.3
	L277.2,365.3z M282.7,348c16.6,4.4,27.8-4.4,33.7-26.4c5.9-22,0.9-35.2-14.9-39.5c-8.1-2.2-15.1-1.1-21.2,3.2
	c-6.1,4.3-10.6,12-13.6,23.1C260.8,330.3,266.1,343.5,282.7,348L282.7,348z M380.7,339.1l-35.3-9.5l26.2-97.9l38.8,10.4
	c19.8,5.3,27.5,15.9,23.2,31.9c-1.6,6.1-4.7,10.6-9.2,13.5s-9.7,4.3-15.5,4.4l-0.1,0.3c14.2,5.7,19.4,15.7,15.6,29.8
	C419.7,340,405.1,345.7,380.7,339.1L380.7,339.1z M381.6,277.8l7.7,2.1c9.4,2.5,15.9,2,19.5-1.6c1.6-1.6,2.8-3.7,3.5-6.4
	c1.2-4.8,0.7-8.2-1.6-10.3c-2.3-2-6.2-3.8-11.8-5.4l-10.8-2.9L381.6,277.8L381.6,277.8z M370.5,319.1l10.7,2.9
	c6.3,1.7,11.3,2.1,14.9,1.2s6.1-3.9,7.5-8.9c1.3-5,0.8-8.8-1.7-11.3c-2.5-2.6-6.4-4.6-11.8-6l-12.7-3.4L370.5,319.1L370.5,319.1z
	 M444.6,356.5l-6.1,22.8l43.6,11.7l-4.7,17.6L413,391.4l26.2-97.9l62.1,16.6l-4.7,17.6l-41.3-11.1l-6.1,22.9l38.8,10.4l-4.6,17
	L444.6,356.5z M529.2,322.2l-10,37.2l-20.8-5.6l26.2-97.9l38.1,10.2c11.4,3,18.9,7.9,22.7,14.4c3.8,6.6,4.6,13.9,2.4,21.9
	c-3.6,13.5-11.7,21.3-24.4,23.5l10.8,48.3l-22.4-6l-9.3-42.3L529.2,322.2z M533.6,305.9l10.7,2.9c11.8,3.2,19-0.2,21.6-10
	c1.3-4.6,0.8-8.2-1.5-11s-6.2-4.9-11.9-6.4l-11.5-3.1L533.6,305.9L533.6,305.9z"/>
</svg>
