<?xml version="1.0" encoding="utf-8"?>
<!-- Generator: Adobe Illustrator 19.2.1, SVG Export Plug-In . SVG Version: 6.00 Build 0)  -->
<svg version="1.1" id="Layer_1" xmlns="http://www.w3.org/2000/svg" xmlns:xlink="http://www.w3.org/1999/xlink" x="0px" y="0px"
	 viewBox="0 0 600 600" style="enable-background:new 0 0 600 600;" xml:space="preserve">
<style type="text/css">
	.st0{fill:#222222;}
</style>
<path class="st0" d="M310.2,494.7c6.2-4.7,14.2-7,24.1-7s17.4,2.3,22.5,6.8s7.7,10.6,7.7,18.2c0,7.7-1.6,14.3-4.9,19.8
	c-3.2,5.6-8.9,12.7-17,21.5l-16.5,18.2v0.4h40.1v18.2h-64.9v-17.6l21.8-25.3c8.6-9.9,14.1-16.7,16.6-20.6s3.6-7.9,3.6-12.3
	c0-7.1-3.8-10.7-11.3-10.7c-4.3,0-7.5,1.2-9.6,3.7s-3.5,6.2-4.2,11.3l-19.1-3.2C300.3,506.5,304,499.3,310.2,494.7L310.2,494.7z
	 M407.1,591.7c-13.4,0-22.7-4.4-28-13.1c-5.3-8.7-8-21.8-8-39.4s2.9-30.6,8.6-39.3c5.7-8.7,15.3-13,28.6-13.1
	c13.3,0,22.6,4.2,27.8,12.7c5.2,8.4,7.8,21.5,7.8,39.1s-2.8,30.9-8.4,39.8S420.4,591.7,407.1,591.7z M396.4,511.5
	c-2.1,5.3-3.2,14.6-3.2,27.7s1,22.4,2.9,27.8s5.7,8,11.2,8c5.6,0,9.3-2.7,11.3-8.1c2-5.4,2.9-14.8,2.9-28.1
	c0-13.4-0.9-22.6-2.7-27.7c-1.8-5.1-5.5-7.6-11-7.6S398.5,506.2,396.4,511.5L396.4,511.5z M495.6,589.9h-21.1v-76.2
	c-2.1,1.2-5.6,2.2-10.4,3.1c-4.8,0.9-8.5,1.3-11.3,1.3l-1-18.2c13.4-1,23.1-4.8,29.4-11.3h14.4V589.9L495.6,589.9z"/>
<path class="st0" d="M553,505.9c-1.9-1.8-4.7-2.7-8.4-2.7s-7,1.7-9.7,5c-5,6.1-7.6,15.1-7.8,27.2c5.8-5.2,12.9-7.9,21.5-7.9
	S564,530,569,535s7.5,12.3,7.4,21.9c0,11.4-3.2,20.1-9.5,26s-14.7,8.8-25,8.8c-13.7,0-23.3-4.9-28.6-14.6
	c-4.8-8.8-7.2-20.6-7.2-35.3c0-11,1.6-20.9,4.9-29.5c1.9-5.1,4.3-9.4,7.2-13.1c2.9-3.6,6.9-6.6,11.8-8.9c4.9-2.3,10.5-3.5,16.9-3.5
	c16.1,0,25.8,7.8,29.1,23.5l-18.9,5.1C556.2,510.9,554.9,507.7,553,505.9L553,505.9z M533.6,571.8c2.1,2.6,5.2,3.9,9.1,3.9
	s6.9-1.5,9.1-4.6c2.1-3.1,3.1-7.3,3.1-12.5s-0.9-9-2.7-11.5c-1.9-2.4-5.1-3.6-9.8-3.6c-4.6,0-9.3,2.1-14,6.3c0.2,5.3,0.6,9.6,1.2,13
	C530.1,566.2,531.5,569.2,533.6,571.8L533.6,571.8z"/>
<path class="st0" d="M84.2,80.1c-9.7-3.5-15.8-1.8-18.3,4.9c-1.8,5,0.1,9.9,5.8,14.6c2.5,2.2,5.3,4.4,8.3,6.7
	c3.1,2.3,6.2,4.7,9.3,7.1c3.2,2.4,5.9,5.1,8.2,8.1c2.3,3,3.8,6.5,4.3,10.6c0.6,4.1,0,8.5-1.8,13.3c-3.6,10.1-9.8,16.4-18.6,18.8
	c-8.8,2.5-18.4,1.8-28.8-1.9c-23.2-8.3-31.9-22.8-26-43.4l19.5,4.1c-1,5.8-0.7,10.6,0.9,14.5c1.6,3.9,5.6,7,12,9.3
	c10.6,3.8,17.2,1.7,20.1-6.2c0.9-2.6,0.8-5.2-0.4-7.7c-1.2-2.5-3.1-4.7-5.7-6.6s-5.5-4-8.6-6.2c-7.6-4.8-13.4-9.9-17.5-15.1
	c-2.2-2.9-3.6-6.5-4.2-10.6c-0.6-4.2,0-8.7,1.8-13.7c3.2-9,9-14.8,17.4-17.6c8.4-2.7,17.4-2.4,27,1c9.6,3.4,16.7,8.1,21.5,13.9
	c5.4,6.5,6.5,15.3,3.2,26.6L94.2,100c1.3-5,1.2-9.1-0.2-12.3C92.6,84.5,89.3,82,84.2,80.1z M174.5,179.6l4.8,23.2l44.2-9.2l3.7,17.8
	L161.9,225l-20.6-99.3l62.9-13.1l3.7,17.8l-41.8,8.7l4.8,23.2l39.4-8.2l3.6,17.3L174.5,179.6z M280.2,129.9l15.6,28.8L276.9,169
	l-48.3-89.1l33.8-18.3c10.5-5.7,19.5-7.2,27.1-4.5c7.5,2.7,13.4,8.1,17.7,16.2c11.7,21.7,6,38.8-17.2,51.4L280.2,129.9L280.2,129.9z
	 M271.9,114.6l7.6-4.1c5.5-3,9.1-6.5,11-10.4s1.3-8.7-1.8-14.4c-3.1-5.7-6.5-8.8-10.4-9.3c-3.8-0.5-8.3,0.7-13.5,3.5l-9.1,4.9
	L271.9,114.6L271.9,114.6z M122.3,355l-19.8,8.5l-33-76.4L42,299l-7.2-16.7l74.6-32.2l7.2,16.7l-27.2,11.8L122.3,355L122.3,355z
	 M230.2,296l-9.2,21.8l41.6,17.7l-7.1,16.7l-61.4-26.1l39.6-93.3l59.2,25.1l-7.1,16.7l-39.3-16.7l-9.3,21.8l37,15.7l-6.9,16.2
	L230.2,296L230.2,296z M447.9,235.7l19.6,99.5l-20.7,4.1l-15.4-78l-2,0.4l-8.1,82.6l-19.1,3.8l-38-73.7l0.8-0.2l15.4,78.1l-20.7,4.1
	l-19.6-99.5l31.5-6.2l35.4,68.6l0.6-0.1l6.6-76.8L447.9,235.7L447.9,235.7z M110.2,518.9l-35.7,7.7l-21.5-99l39.2-8.5
	c20-4.3,31.7,1.6,35.3,17.7c1.3,6.2,0.7,11.6-2,16.2s-6.6,8.3-11.7,11l0.1,0.3c15.3-1.4,24.5,5.1,27.6,19.3
	C145.2,501.8,134.9,513.6,110.2,518.9z M82.9,464l7.8-1.7c9.5-2.1,15.1-5.5,16.6-10.3c0.7-2.1,0.8-4.5,0.2-7.2
	c-1.1-4.8-3.1-7.6-6.1-8.4s-7.3-0.5-12.9,0.6l-11,2.4L82.9,464z M92,505.8l10.8-2.3c6.4-1.4,11-3.3,13.8-5.8s3.7-6.3,2.6-11.3
	c-1.1-5.1-3.3-8.2-6.7-9.3c-3.4-1.1-7.8-1.1-13.3,0.1L86.4,480L92,505.8z M241.6,463.2l16.7,16.8l32-31.9l12.8,12.9l-47.3,47.1
	l-71.6-71.8l45.5-45.4l12.8,12.9L212.2,434l16.7,16.8l28.5-28.4l12.4,12.5L241.6,463.2L241.6,463.2z M418.4,422.2l-9.8,37.2
	l-20.8-5.5l25.7-98.1l38.2,10c11.4,3,19,7.8,22.7,14.3c3.8,6.6,4.6,13.8,2.5,21.9c-3.6,13.5-11.6,21.4-24.2,23.6l11,48.2l-22.4-5.9
	l-9.6-42.3L418.4,422.2L418.4,422.2z M422.7,405.8l10.7,2.8c11.8,3.1,19-0.3,21.5-10.1c1.2-4.6,0.7-8.2-1.6-11
	c-2.3-2.8-6.3-4.9-12-6.3l-11.5-3L422.7,405.8z"/>
</svg>
