<svg id="Layer_1" xmlns="http://www.w3.org/2000/svg" viewBox="0 0 600 600"><path fill="#fff" d="M51.7 12.2h26.9l35.9 101.4H90.7l-8.3-24.5H46.1L38 113.6H18.5L51.7 12.2zm26.2 59.5L65.3 32.5h-.5l-13 39.2h26.1zM151 200.3c2.7 3.7 7.7 5.6 14.8 5.6s12-1.7 14.7-5.2c2.6-3.5 4-9.5 4-18V121H206v64.8c0 25.5-13.6 38.2-40.8 38.3-13.9 0-24-3.1-30.3-9.4s-9.5-16.1-9.5-29.5V121h21.5v61.3c0 8.3 1.4 14.3 4.1 18zM247.1 225.7c-17.6 0-26.4 11.8-26.4 35.4 0 11.6 2.1 20.2 6.2 25.9 4.1 5.7 10.6 8.5 19.4 8.5 6.5 0 11.6-1.6 15.3-4.9 3.7-3.3 5.5-7.5 5.4-12.5v-3.7h-18.7v-16h39.8v52.8h-15.6l-2.4-12.4c-2.1 4.4-5.8 7.8-11.2 10.3s-11.3 3.8-17.7 3.8c-14.6 0-25.4-4.6-32.4-13.7-6.9-9.2-10.4-21.8-10.4-38s4.2-29.1 12.6-38.7c8.4-9.6 20.5-14.5 36.4-14.5 11.6 0 20.9 2.8 28 8.5 7.1 5.7 11 14.6 11.8 26.8l-20 1.9c-.6-6.1-2.4-10.9-5.5-14.3-3-3.4-7.9-5.1-14.6-5.2zM330.7 379.3c2.7 3.7 7.7 5.6 14.8 5.6s12-1.7 14.7-5.2c2.6-3.5 4-9.5 4-18V300h21.5v64.8c0 25.5-13.6 38.2-40.8 38.3-13.9 0-24-3.1-30.3-9.4-6.4-6.3-9.5-16.1-9.5-29.5V300h21.5v61.3c0 8.3 1.4 14.3 4.1 18zM427.6 395.9c-10.3 0-15.5 3.6-15.6 10.9 0 5.4 3.5 9.3 10.4 11.8 3.1 1.2 6.5 2.4 10.1 3.5s7.4 2.4 11.2 3.6c3.8 1.2 7.3 2.8 10.5 4.9 3.2 2 5.7 4.8 7.7 8.5 1.9 3.7 2.9 8 2.8 13.1 0 10.7-3.7 18.7-11.1 24-7.4 5.3-16.7 7.9-27.8 8-24.7 0-37.7-10.7-39.2-32.1l19.6-2.9c1 5.8 3 10.3 5.7 13.4 2.8 3.1 7.6 4.7 14.4 4.7 11.2 0 16.8-4.2 16.8-12.6 0-2.8-1-5.2-2.9-7.1-2-2-4.5-3.4-7.6-4.3-3.1-.9-6.5-1.9-10.2-2.9-8.8-2-15.9-4.8-21.5-8.4-3.1-2-5.6-4.9-7.5-8.6-2-3.7-2.9-8.2-2.9-13.5 0-9.5 3.5-17 10.5-22.4 7-5.4 15.6-8.1 25.8-8.1 10.2 0 18.5 1.9 24.9 5.8 7.3 4.2 11.3 12.2 12 23.9l-19.9 2.3c-.5-5.1-1.9-8.9-4.4-11.5s-6.4-4-11.8-4zM526.1 574.7h-21.5v-83.2h-30v-18.2h81.2v18.2h-29.7v83.2zM34.3 467.2c6.2-4.7 14.2-7 24.1-7 9.9 0 17.4 2.3 22.5 6.8 5.1 4.5 7.7 10.6 7.7 18.2 0 7.7-1.6 14.3-4.9 19.8-3.2 5.6-8.9 12.7-17 21.5l-16.5 18.2v.4h40.1v18.2H25.5v-17.6l21.8-25.3c8.6-9.9 14.1-16.7 16.6-20.6s3.6-7.9 3.6-12.3c0-7.1-3.8-10.7-11.3-10.7-4.3 0-7.5 1.2-9.6 3.7-2.1 2.5-3.5 6.2-4.2 11.3l-19.1-3.2c1.2-9.6 4.8-16.7 11-21.4zM132.8 552.1c-13.4 0-22.7-4.4-28-13.1-5.3-8.7-8-21.8-8-39.4 0-17.5 2.9-30.6 8.6-39.3 5.7-8.7 15.3-13 28.6-13.1 13.3 0 22.6 4.2 27.8 12.7 5.2 8.4 7.8 21.5 7.8 39.1s-2.8 30.9-8.4 39.8c-5.6 8.9-15 13.3-28.4 13.3zm-10.7-80.2c-2.1 5.3-3.2 14.6-3.2 27.7 0 13.2 1 22.4 2.9 27.8s5.7 8 11.2 8c5.6 0 9.3-2.7 11.3-8.1 2-5.4 2.9-14.8 2.9-28.1 0-13.4-.9-22.6-2.7-27.7-1.8-5.1-5.5-7.6-11-7.6s-9.3 2.7-11.4 8zM221.5 564.4h-21.1v-76.2c-2.1 1.2-5.6 2.2-10.4 3.1-4.8.9-8.5 1.3-11.3 1.3l-1-18.2c13.4-1 23.1-4.8 29.4-11.3h14.4v101.3zM281.7 469.3c-1.9-1.8-4.7-2.7-8.4-2.7s-7 1.7-9.7 5c-5 6.1-7.6 15.1-7.8 27.2 5.8-5.2 12.9-7.9 21.5-7.9s15.3 2.5 20.3 7.5 7.5 12.3 7.4 21.9c0 11.4-3.2 20.1-9.5 26s-14.7 8.8-25 8.8c-13.7 0-23.3-4.9-28.6-14.6-4.8-8.8-7.2-20.6-7.2-35.3 0-11 1.6-20.9 4.9-29.5 1.9-5.1 4.3-9.4 7.2-13.1 2.9-3.6 6.9-6.6 11.8-8.9 4.9-2.3 10.5-3.5 16.9-3.5 16.1 0 25.8 7.8 29.1 23.5l-18.9 5.1c-.8-4.5-2.1-7.7-4-9.5zm-19.4 65.9c2.1 2.6 5.2 3.9 9.1 3.9s6.9-1.5 9.1-4.6c2.1-3.1 3.1-7.3 3.1-12.5s-.9-9-2.7-11.5c-1.9-2.4-5.1-3.6-9.8-3.6-4.6 0-9.3 2.1-14 6.3.2 5.3.6 9.6 1.2 13 .5 3.4 1.9 6.4 4 9z"/></svg>