<?xml version="1.0" encoding="utf-8"?>
<!-- Generator: Adobe Illustrator 19.2.1, SVG Export Plug-In . SVG Version: 6.00 Build 0)  -->
<svg version="1.1" class="Layer_1" xmlns="http://www.w3.org/2000/svg" xmlns:xlink="http://www.w3.org/1999/xlink" x="0px" y="0px"
	 viewBox="0 0 600 600" style="enable-background:new 0 0 600 600;" xml:space="preserve">
<style type="text/css">
	.st0{fill:#FFFFFF;}
</style>
<path class="st0" d="M51.7,12.2h26.9l35.9,101.4H90.7l-8.3-24.5H46.1l-8.1,24.5H18.5L51.7,12.2z M77.9,71.7L65.3,32.5h-0.5
	L51.8,71.7H77.9z"/>
<path class="st0" d="M151,200.3c2.7,3.7,7.7,5.6,14.8,5.6s12-1.7,14.7-5.2c2.6-3.5,4-9.5,4-18V121H206v64.8
	c0,25.5-13.6,38.2-40.8,38.3c-13.9,0-24-3.1-30.3-9.4s-9.5-16.1-9.5-29.5V121h21.5v61.3C146.9,190.6,148.3,196.6,151,200.3z"/>
<path class="st0" d="M247.1,225.7c-17.6,0-26.4,11.8-26.4,35.4c0,11.6,2.1,20.2,6.2,25.9c4.1,5.7,10.6,8.5,19.4,8.5
	c6.5,0,11.6-1.6,15.3-4.9c3.7-3.3,5.5-7.5,5.4-12.5v-3.7h-18.7v-16h39.8v52.8h-15.6l-2.4-12.4c-2.1,4.4-5.8,7.8-11.2,10.3
	s-11.3,3.8-17.7,3.8c-14.6,0-25.4-4.6-32.4-13.7c-6.9-9.2-10.4-21.8-10.4-38s4.2-29.1,12.6-38.7c8.4-9.6,20.5-14.5,36.4-14.5
	c11.6,0,20.9,2.8,28,8.5c7.1,5.7,11,14.6,11.8,26.8l-20,1.9c-0.6-6.1-2.4-10.9-5.5-14.3C258.7,227.5,253.8,225.8,247.1,225.7z"/>
<path class="st0" d="M330.7,379.3c2.7,3.7,7.7,5.6,14.8,5.6s12-1.7,14.7-5.2c2.6-3.5,4-9.5,4-18V300h21.5v64.8
	c0,25.5-13.6,38.2-40.8,38.3c-13.9,0-24-3.1-30.3-9.4c-6.4-6.3-9.5-16.1-9.5-29.5V300h21.5v61.3C326.6,369.6,328,375.6,330.7,379.3z
	"/>
<path class="st0" d="M427.6,395.9c-10.3,0-15.5,3.6-15.6,10.9c0,5.4,3.5,9.3,10.4,11.8c3.1,1.2,6.5,2.4,10.1,3.5s7.4,2.4,11.2,3.6
	c3.8,1.2,7.3,2.8,10.5,4.9c3.2,2,5.7,4.8,7.7,8.5c1.9,3.7,2.9,8,2.8,13.1c0,10.7-3.7,18.7-11.1,24c-7.4,5.3-16.7,7.9-27.8,8
	c-24.7,0-37.7-10.7-39.2-32.1l19.6-2.9c1,5.8,3,10.3,5.7,13.4c2.8,3.1,7.6,4.7,14.4,4.7c11.2,0,16.8-4.2,16.8-12.6
	c0-2.8-1-5.2-2.9-7.1c-2-2-4.5-3.4-7.6-4.3c-3.1-0.9-6.5-1.9-10.2-2.9c-8.8-2-15.9-4.8-21.5-8.4c-3.1-2-5.6-4.9-7.5-8.6
	c-2-3.7-2.9-8.2-2.9-13.5c0-9.5,3.5-17,10.5-22.4c7-5.4,15.6-8.1,25.8-8.1c10.2,0,18.5,1.9,24.9,5.8c7.3,4.2,11.3,12.2,12,23.9
	l-19.9,2.3c-0.5-5.1-1.9-8.9-4.4-11.5S433,395.9,427.6,395.9z"/>
<path class="st0" d="M526.1,574.7h-21.5v-83.2h-30v-18.2h81.2v18.2h-29.7V574.7z"/>
<path class="st0" d="M34.3,467.2c6.2-4.7,14.2-7,24.1-7c9.9,0,17.4,2.3,22.5,6.8c5.1,4.5,7.7,10.6,7.7,18.2c0,7.7-1.6,14.3-4.9,19.8
	c-3.2,5.6-8.9,12.7-17,21.5l-16.5,18.2v0.4h40.1v18.2H25.5v-17.6l21.8-25.3c8.6-9.9,14.1-16.7,16.6-20.6s3.6-7.9,3.6-12.3
	c0-7.1-3.8-10.7-11.3-10.7c-4.3,0-7.5,1.2-9.6,3.7c-2.1,2.5-3.5,6.2-4.2,11.3l-19.1-3.2C24.5,479,28.1,471.9,34.3,467.2z"/>
<path class="st0" d="M132.8,552.1c-13.4,0-22.7-4.4-28-13.1c-5.3-8.7-8-21.8-8-39.4c0-17.5,2.9-30.6,8.6-39.3
	c5.7-8.7,15.3-13,28.6-13.1c13.3,0,22.6,4.2,27.8,12.7c5.2,8.4,7.8,21.5,7.8,39.1c0,17.6-2.8,30.9-8.4,39.8
	C155.6,547.7,146.2,552.1,132.8,552.1z M122.1,471.9c-2.1,5.3-3.2,14.6-3.2,27.7c0,13.2,1,22.4,2.9,27.8s5.7,8,11.2,8
	c5.6,0,9.3-2.7,11.3-8.1c2-5.4,2.9-14.8,2.9-28.1c0-13.4-0.9-22.6-2.7-27.7c-1.8-5.1-5.5-7.6-11-7.6
	C128,463.9,124.2,466.6,122.1,471.9z"/>
<path class="st0" d="M221.5,564.4h-21.1v-76.2c-2.1,1.2-5.6,2.2-10.4,3.1c-4.8,0.9-8.5,1.3-11.3,1.3l-1-18.2
	c13.4-1,23.1-4.8,29.4-11.3h14.4V564.4z"/>
<g class="year year--2018">
	<path class="st0" d="M271.5,555.1c-11.7,0-20.6-2.5-26.7-7.6c-6.1-5-9.1-11.3-9.1-18.8c0-12.2,6.5-21.3,19.6-27.2
		c-10.4-5-15.7-12.8-15.7-23.4c0-8.7,3.2-15.5,9.6-20.5s14.9-7.5,25.3-7.5c10.7,0,18.9,2.2,24.7,6.5c5.8,4.3,8.7,10.1,8.7,17.3
		c0,5.4-1.4,10-4.3,13.8c-2.8,3.7-7.2,7.3-13.2,10.6c6.6,3.2,11.3,6.8,14.2,10.9c2.9,4.1,4.3,9.6,4.3,16.5c0,8.3-3.3,15.2-10,20.9
		C292.4,552.3,283.2,555.1,271.5,555.1z M256.8,526.6c0,8.4,5,12.6,15.1,12.6c5,0,8.8-1.2,11.4-3.5c2.6-2.3,3.9-4.9,3.9-7.9
		c0-3-0.5-5.4-1.4-7.2c-1.5-3-4.9-5.7-10.2-8.1c-1.7-0.8-4.1-1.8-7.2-2.9c-3.8,2.1-6.7,4.5-8.7,7.1
		C257.8,519.2,256.8,522.5,256.8,526.6z M273.9,465.6c-3.8,0-6.9,0.9-9.3,2.6c-2.3,1.7-3.5,4.2-3.5,7.4s1.2,6,3.6,8.5
		c2.4,2.4,6.2,4.8,11.4,7.2c7.2-4.3,10.7-9.5,10.7-15.6C286.8,469,282.5,465.6,273.9,465.6z"/>
</g>
<g class="year year--2017">
	<path class="st0" d="M243.1,470.2v-18.2h66.5v16.3L271,553.6h-22.4l39.1-83.3H243.1z"/>
</g>
<g class="year year--2016">
	<path class="st0" d="M281.7,469.3c-1.9-1.8-4.7-2.7-8.4-2.7s-7,1.7-9.7,5c-5,6.1-7.6,15.1-7.8,27.2c5.8-5.2,12.9-7.9,21.5-7.9
		s15.3,2.5,20.3,7.5c5,5,7.5,12.3,7.4,21.9c0,11.4-3.2,20.1-9.5,26s-14.7,8.8-25,8.8c-13.7,0-23.3-4.9-28.6-14.6
		c-4.8-8.8-7.2-20.6-7.2-35.3c0-11,1.6-20.9,4.9-29.5c1.9-5.1,4.3-9.4,7.2-13.1c2.9-3.6,6.9-6.6,11.8-8.9c4.9-2.3,10.5-3.5,16.9-3.5
		c16.1,0,25.8,7.8,29.1,23.5l-18.9,5.1C284.9,474.3,283.6,471.1,281.7,469.3z M262.3,535.2c2.1,2.6,5.2,3.9,9.1,3.9s6.9-1.5,9.1-4.6
		c2.1-3.1,3.1-7.3,3.1-12.5c0-5.2-0.9-9-2.7-11.5c-1.9-2.4-5.1-3.6-9.8-3.6c-4.6,0-9.3,2.1-14,6.3c0.2,5.3,0.6,9.6,1.2,13
		C258.8,529.6,260.2,532.6,262.3,535.2z"/>
</g>
<g class="year year--2015">
	<path class="st0" d="M296.5,452.1v18.2h-38.1l-2.4,25.3c5.2-4.5,11.7-6.8,19.6-6.8c7.9,0,14.3,2.6,19.4,7.7c5,5.1,7.5,13,7.5,23.7
		c0,10.8-3.2,19.3-9.8,25.6c-6.6,6.3-15.4,9.4-26.6,9.5c-8.9,0-16.4-2.1-22.3-6.2c-5.9-4.1-9.5-10.7-10.7-19.8l18.3-3.8
		c1.2,8.8,6.1,13.2,14.7,13.2c4.4,0,8-1.5,10.9-4.5c2.9-3,4.3-7.4,4.3-13.3c0-10.3-4.5-15.5-13.4-15.6c-5.2,0-10.2,2.3-14.8,6.8
		l-13.8-5.7l3.8-54.1H296.5z"/>
</g>
</svg>
