<svg class="Layer_1" xmlns="http://www.w3.org/2000/svg" viewBox="0 0 600 600"><style>.st0{fill:#fff}</style><path class="st0" d="M301.9 225.7c6.2-4.7 14.2-7 24.1-7 9.9 0 17.4 2.3 22.5 6.8 5.1 4.5 7.7 10.6 7.7 18.2 0 7.7-1.6 14.3-4.9 19.8-3.2 5.6-8.9 12.7-17 21.5l-16.5 18.2v.4H358v18.2h-64.9v-17.6l21.8-25.3c8.6-9.9 14.1-16.7 16.6-20.6s3.6-7.9 3.6-12.3c0-7.1-3.8-10.7-11.3-10.7-4.3 0-7.5 1.2-9.6 3.7-2.1 2.5-3.5 6.2-4.2 11.3l-19.1-3.2c1.1-9.6 4.8-16.8 11-21.4zm99.4 97c-13.4 0-22.7-4.4-28-13.1-5.3-8.7-8-21.8-8-39.4s2.9-30.6 8.6-39.3c5.7-8.7 15.3-13 28.6-13.1 13.3 0 22.6 4.2 27.8 12.7 5.2 8.4 7.8 21.5 7.8 39.1s-2.8 30.9-8.4 39.8c-5.6 8.8-15.1 13.3-28.4 13.3zm-10.7-80.2c-2.1 5.3-3.2 14.6-3.2 27.7s1 22.4 2.9 27.8 5.7 8 11.2 8c5.6 0 9.3-2.7 11.3-8.1 2-5.4 2.9-14.8 2.9-28.1 0-13.4-.9-22.6-2.7-27.7-1.8-5.1-5.5-7.6-11-7.6s-9.3 2.7-11.4 8zm101 78.4h-21.1v-76.2c-2.1 1.2-5.6 2.2-10.4 3.1-4.8.9-8.5 1.3-11.3 1.3l-1-18.2c13.4-1 23.1-4.8 29.4-11.3h14.4v101.3z"/><path class="st0 year year--2018" d="M543 322.7c-11.7 0-20.6-2.5-26.7-7.6-6.1-5-9.1-11.3-9.1-18.8 0-12.2 6.5-21.3 19.6-27.2-10.4-5-15.7-12.8-15.7-23.4 0-8.7 3.2-15.5 9.6-20.5s14.9-7.5 25.3-7.5c10.7 0 18.9 2.2 24.7 6.5 5.8 4.3 8.7 10.1 8.7 17.3 0 5.4-1.4 10-4.3 13.8-2.8 3.7-7.2 7.3-13.2 10.6 6.6 3.2 11.3 6.8 14.2 10.9 2.9 4.1 4.3 9.6 4.3 16.5 0 8.3-3.3 15.2-10 20.9-6.5 5.7-15.7 8.5-27.4 8.5zm-14.6-28.6c0 8.4 5 12.6 15.1 12.6 5 0 8.8-1.2 11.4-3.5 2.6-2.3 3.9-4.9 3.9-7.9s-.5-5.4-1.4-7.2c-1.5-3-4.9-5.7-10.2-8.1-1.7-.8-4.1-1.8-7.2-2.9-3.8 2.1-6.7 4.5-8.7 7.1-1.9 2.5-2.9 5.9-2.9 9.9zm17.1-60.9c-3.8 0-6.9.9-9.3 2.6-2.3 1.7-3.5 4.2-3.5 7.4s1.2 6 3.6 8.5c2.4 2.4 6.2 4.8 11.4 7.2 7.2-4.3 10.7-9.5 10.7-15.6 0-6.8-4.3-10.1-12.9-10.1z"/><path class="st0 year year--2017" d="M514.7 237.7v-18.2h66.5v16.3L542.6 321h-22.4l39.1-83.3h-44.6z"/><path class="st0 year year--2016" d="M553.3 236.9c-1.9-1.8-4.7-2.7-8.4-2.7s-7 1.7-9.7 5c-5 6.1-7.6 15.1-7.8 27.2 5.8-5.2 12.9-7.9 21.5-7.9s15.3 2.5 20.3 7.5 7.5 12.3 7.4 21.9c0 11.4-3.2 20.1-9.5 26s-14.7 8.8-25 8.8c-13.7 0-23.3-4.9-28.6-14.6-4.8-8.8-7.2-20.6-7.2-35.3 0-11 1.6-20.9 4.9-29.5 1.9-5.1 4.3-9.4 7.2-13.1 2.9-3.6 6.9-6.6 11.8-8.9 4.9-2.3 10.5-3.5 16.9-3.5 16.1 0 25.8 7.8 29.1 23.5l-18.9 5.1c-.9-4.5-2.2-7.7-4-9.5zm-19.5 65.9c2.1 2.6 5.2 3.9 9.1 3.9s6.9-1.5 9.1-4.6c2.1-3.1 3.1-7.3 3.1-12.5s-.9-9-2.7-11.5c-1.9-2.4-5.1-3.6-9.8-3.6-4.6 0-9.3 2.1-14 6.3.2 5.3.6 9.6 1.2 13 .5 3.4 1.9 6.4 4 9z"/><path class="st0 year year--2015" d="M568 218.7v18.2h-38.1l-2.4 25.3c5.2-4.5 11.7-6.8 19.6-6.8 7.9 0 14.3 2.6 19.4 7.7 5 5.1 7.5 13 7.5 23.7 0 10.8-3.2 19.3-9.8 25.6-6.6 6.3-15.4 9.4-26.6 9.5-8.9 0-16.4-2.1-22.3-6.2-5.9-4.1-9.5-10.7-10.7-19.8l18.3-3.8c1.2 8.8 6.1 13.2 14.7 13.2 4.4 0 8-1.5 10.9-4.5 2.9-3 4.3-7.4 4.3-13.3 0-10.3-4.5-15.5-13.4-15.6-5.2 0-10.2 2.3-14.8 6.8l-13.8-5.7 3.8-54.1H568z"/><path class="st0" d="M33 73.9v39.9H11.5V12.4h63.8v18.2H33v25.6h38.9v17.6H33z"/><path class="st0" d="M63.4 144.6v23.7h45.2v18.2H41.9V85.1h64.3v18.2H63.4V127h40.2v17.6H63.4zM48 293.3H11.5V191.9h40.1c20.5 0 30.7 8.3 30.7 24.8 0 6.3-1.8 11.5-5.4 15.4-3.6 3.9-8.2 6.7-13.8 8.3v.3c15.2 1.9 22.8 10.1 22.8 24.7 0 18.6-12.6 27.9-37.9 27.9zm-15-59.4h8c9.8 0 15.9-2.2 18.5-6.6 1.1-1.9 1.7-4.3 1.7-7 0-5-1.4-8.1-4.2-9.5s-7-2.1-12.8-2.1H33v25.2zm0 42.7h11.1c6.5 0 11.4-.9 14.7-2.7 3.3-1.8 4.9-5.3 4.9-10.5s-1.5-8.7-4.6-10.5c-3.1-1.8-7.4-2.7-13-2.7H33v26.4zm80.7 5.6v38.5H92.1V219.3h39.4c11.8 0 20.3 2.7 25.6 8.1 5.3 5.4 8 12.2 8 20.5 0 14-5.8 23.7-17.4 29l22.9 43.8h-23.2l-20-38.5h-13.7zm0-17h11c12.2 0 18.3-5.1 18.3-15.2 0-4.7-1.4-8.2-4.3-10.3-2.9-2.1-7.3-3.1-13.2-3.1h-11.9v28.6zM32.4 389.7c2.7 3.7 7.7 5.6 14.8 5.6s12-1.7 14.7-5.2c2.6-3.5 4-9.5 4-18v-61.7h21.5v64.8c0 25.5-13.6 38.2-40.8 38.3-13.9 0-24-3.1-30.3-9.4S6.7 388 6.8 374.6v-64.3h21.5v61.3c0 8.3 1.4 14.3 4.1 18.1zm14 44.4h26.9l35.9 101.4H85.4L77.1 511H40.8l-8.1 24.5H13.2l33.2-101.4zm26.1 59.5L60 454.4h-.5l-12.9 39.2h25.9zm44.2-65.8v38.5H95.1V364.9h39.4c11.8 0 20.3 2.7 25.6 8.1 5.3 5.4 8 12.2 8 20.5 0 14-5.8 23.7-17.4 29l22.9 43.8h-23.2l-20-38.5h-13.7zm0-16.9h11c12.2 0 18.3-5.1 18.3-15.2 0-4.7-1.4-8.2-4.3-10.3-2.9-2.1-7.3-3.1-13.2-3.1h-11.9v28.6zm38.1 175.3h-21.5v-37.9l-35.1-63.4h23.7l22.2 43.4h.7l21.3-43.4H188l-33 63.2v38.1z"/></svg>