<svg class="Layer_1" xmlns="http://www.w3.org/2000/svg" viewBox="0 0 600 600"><style>.st0{fill:#fff}</style><path class="st0" d="M288.9 497.2c5.1-5.8 12.5-9.7 22.2-11.7s17.5-1.3 23.4 2.1c5.9 3.4 9.7 8.8 11.2 16.3s1.3 14.3-.8 20.4c-2 6.1-6.2 14.3-12.3 24.5L320.3 570l.1.4 39.2-8.1 3.7 17.8-63.5 13.1-3.6-17.3 16.3-29.2c6.4-11.4 10.5-19.2 12.1-23.5s2-8.5 1.1-12.8c-1.4-7-5.8-9.7-13.2-8.2-4.2.9-7.1 2.7-8.7 5.6-1.6 2.8-2.2 6.8-1.9 11.9l-19.3.7c-.9-9.6 1.2-17.4 6.3-23.2z"/><path class="st0" d="M450.3 550.9c-5.7 12.1-13.6 18.7-23.8 19.8-10.1 1.2-23.2-2-39-9.4-15.9-7.4-26.5-15.6-32-24.5-5.4-8.9-5.3-19.4.3-31.4 5.6-12.1 13.4-18.7 23.2-19.8 9.9-1.1 22.8 2 38.7 9.5 16 7.5 26.8 15.6 32.5 24.4 5.8 8.8 5.8 19.3.1 31.4zm-77.1-24.3c3.9 4.2 11.9 9 23.8 14.6s20.7 8.6 26.4 9.2 9.7-1.7 12-6.8c2.4-5 1.5-9.6-2.6-13.7s-12.1-8.9-24.2-14.6c-12.1-5.7-20.8-8.7-26.2-9.2-5.4-.5-9.2 1.8-11.6 6.8-2.4 4.9-1.6 9.5 2.4 13.7z"/><path class="st0" d="M447.7 594.3L432.2 580l51.7-56c-2.4-.6-5.6-2.2-9.7-4.8-4.1-2.6-7.2-4.8-9.2-6.7l11.6-14.1c10.5 8.3 20.3 12.2 29.3 11.6l10.6 9.8-68.8 74.5z"/><path class="year year--2018 st0" d="M564.3 597c-11.6 1.9-20.7.9-27.5-3.1-6.8-4-10.8-9.7-12-17-2-12.1 3-22.1 14.9-30.1-11.1-3.2-17.5-10.1-19.3-20.5-1.4-8.6.6-15.8 6.2-21.8 5.5-6 13.4-9.8 23.7-11.5 10.5-1.7 19-.9 25.5 2.4 6.4 3.3 10.2 8.5 11.4 15.6.9 5.4.2 10.1-2 14.3-2.2 4.2-5.9 8.4-11.2 12.6 7 2.1 12.3 4.9 15.8 8.5 3.5 3.6 5.8 8.8 6.9 15.6 1.3 8.1-.8 15.6-6.4 22.2-5.8 6.6-14.4 10.8-26 12.8zm-19.1-25.9c1.4 8.3 7 11.6 16.9 10 4.9-.8 8.5-2.6 10.7-5.3 2.2-2.7 3.1-5.5 2.6-8.5s-1.3-5.3-2.5-6.9c-2-2.7-5.8-4.8-11.4-6.4-1.9-.5-4.4-1.1-7.5-1.7-3.4 2.7-5.8 5.5-7.4 8.4-1.6 3-2.1 6.4-1.4 10.4zm6.9-62.9c-3.8.6-6.7 2-8.7 4.1-2 2.1-2.8 4.7-2.3 7.9s2.2 5.7 5 7.8c2.8 1.9 6.9 3.7 12.4 5.2 6.4-5.4 9-11.1 8-17.1-1.1-6.7-5.9-9.3-14.4-7.9z"/><path class="year year--2017 st0" d="M522.5 517.7l-3-17.9 65.6-10.9 2.7 16.1-24.2 90.4-22.1 3.7 25-88.6-44 7.2z"/><path class="year year--2016 st0" d="M560.4 510.6c-2.1-1.5-5.1-1.9-8.7-1.3-3.7.6-6.6 2.8-8.7 6.5-3.9 6.8-5 16.2-3.2 28.1 4.8-6.1 11.5-9.9 19.9-11.3s15.5 0 21.2 4.1c5.8 4.1 9.4 10.9 10.9 20.3 1.9 11.3.1 20.3-5.2 27.2-5.3 6.8-13.1 11.1-23.2 12.8-13.6 2.2-23.8-1-30.6-9.8-6.2-7.9-10.5-19.1-12.9-33.6-1.8-10.9-1.8-20.9 0-29.9 1.1-5.3 2.7-10 5-14.1s5.7-7.6 10.2-10.7c4.5-3.1 9.8-5.2 16.1-6.2 15.9-2.6 26.7 3.5 32.5 18.5l-17.8 8.1c-1.5-4.3-3.3-7.2-5.5-8.7zm-8.4 68.2c2.5 2.2 5.7 3 9.6 2.4 3.9-.6 6.6-2.6 8.2-6 1.6-3.4 1.9-7.7 1.1-12.8-.9-5.1-2.4-8.8-4.6-10.9-2.2-2.1-5.6-2.8-10.2-2-4.6.8-8.9 3.6-12.8 8.5 1 5.2 2.1 9.4 3.3 12.6 1 3.2 2.9 6 5.4 8.2z"/><path class="year year--2015 st0" d="M572 490.3l3 17.9-37.6 6.2 1.8 25.4c4.4-5.3 10.4-8.6 18.2-9.9 7.8-1.3 14.6.2 20.4 4.4 5.8 4.2 9.5 11.6 11.2 22.2 1.8 10.6 0 19.6-5.5 26.8-5.5 7.2-13.7 11.8-24.7 13.7-8.8 1.4-16.5.6-23-2.5s-11.1-9-13.8-17.8l17.5-6.8c2.6 8.5 8.2 12 16.7 10.6 4.3-.7 7.7-2.8 10.1-6.2 2.3-3.4 3-8 2.1-13.8-1.7-10.2-6.9-14.6-15.8-13.2-5.2.9-9.7 3.9-13.5 9.1l-14.5-3.4-5.1-54 52.5-8.7z"/><path class="st0" d="M49 492.2l20.4-70.7 20.7 6-20.2 70.1c-5.6 19.3-18.5 26-38.9 20.1-19.1-5.5-26.3-17.5-21.6-36.1l20.8 2.8c-1 4.9-1.1 8.7-.4 11.1.7 2.5 2.7 4.2 6.1 5.2 3.4 1 6.2.8 8.3-.4 2-1.3 3.6-4 4.8-8.1zM85.6 565.5c1.5 4.4 5.7 7.6 12.5 9.8 6.8 2.1 12 1.9 15.5-.6 3.6-2.5 6.6-7.9 9.2-16l18.4-58.9 20.6 6.4-19.4 61.8c-7.6 24.3-24.4 32.5-50.3 24.4-13.2-4.1-22-10.1-26.2-18s-4.3-18.2-.3-30.9l19.1-61.3 20.6 6.4-18.2 58.5c-2.5 7.9-3 14-1.5 18.4zM188.7 494.4v83.2h43.4v18.2h-64.9V494.4h21.5zM267.9 592.2l-21.3 3.3-5.8-37.5-44.5-57.3 23.4-3.6 28.6 39.5.7-.1 14.4-46.2 21.6-3.4-23 67.5 5.9 37.8z"/></svg>