<svg class="Layer_1" xmlns="http://www.w3.org/2000/svg" viewBox="0 0 600 600"><style>.st0{fill:#fff}</style><path class="st0" d="M157.2 148.8c5.7-5.3 13.4-8.4 23.3-9.4 9.8-1 17.5.5 23.1 4.5 5.6 3.9 8.8 9.7 9.5 17.3.8 7.6-.2 14.3-2.8 20.2-2.7 5.9-7.6 13.6-14.7 23.1L181 224.4v.4l39.9-4.1 1.8 18.1-64.5 6.6-1.8-17.5 19.2-27.4c7.6-10.7 12.4-18.1 14.4-22.1 2-4.1 2.8-8.3 2.4-12.6-.7-7.1-4.8-10.2-12.3-9.5-4.3.4-7.4 2-9.2 4.6-1.8 2.7-2.9 6.5-3.1 11.6l-19.3-1.3c.1-9.6 3-17.1 8.7-22.4zM189.6 353.8c-13.3-.7-22.5-5.5-27.4-14.5-4.9-8.9-6.9-22.2-6.1-39.7s4.4-30.5 10.6-38.8c6.2-8.4 15.9-12.3 29.2-11.6 13.3.7 22.3 5.3 27.1 14 4.8 8.7 6.7 21.8 5.9 39.5-.9 17.6-4.3 30.7-10.3 39.3-6 8.5-15.7 12.5-29 11.8zm-6.7-80.6c-2.4 5.2-3.9 14.4-4.5 27.6-.7 13.2-.2 22.5 1.5 27.9s5.3 8.3 10.8 8.5c5.6.3 9.5-2.2 11.7-7.5 2.2-5.3 3.7-14.6 4.3-27.9.7-13.3.2-22.6-1.4-27.8-1.6-5.2-5.1-7.9-10.6-8.2-5.5-.3-9.4 2.1-11.8 7.4zM168 457.3l-21.1 1-3.5-76.1c-2.1 1.3-5.5 2.4-10.2 3.5-4.7 1.1-8.5 1.7-11.2 1.8l-1.9-18.1c13.3-1.6 22.9-5.9 28.8-12.7l14.4-.7 4.7 101.3z"/><path class="year year--2018 st0" d="M158.6 574.5c-11.7-1-20.3-4.2-26-9.7-5.6-5.5-8.1-12-7.5-19.5 1-12.2 8.3-20.7 21.8-25.5-10-5.8-14.6-14-13.7-24.6.7-8.6 4.5-15.2 11.3-19.6 6.8-4.4 15.4-6.2 25.8-5.4 10.6.9 18.7 3.7 24.1 8.5 5.4 4.8 7.9 10.7 7.3 17.9-.4 5.4-2.2 9.9-5.4 13.4-3.1 3.5-7.8 6.7-14 9.5 6.3 3.7 10.7 7.7 13.3 12.1 2.5 4.3 3.5 9.9 2.9 16.8-.7 8.2-4.6 14.9-11.7 20-7.1 5-16.5 7-28.2 6.1zm-12.2-29.7c-.7 8.4 4 13 14 13.8 5 .4 8.9-.4 11.7-2.5 2.8-2.1 4.3-4.6 4.6-7.6.2-3 0-5.4-.8-7.3-1.3-3.1-4.4-6.1-9.5-8.9-1.7-1-4-2.1-6.9-3.5-3.9 1.8-7 4-9.2 6.4-2.3 2.3-3.6 5.5-3.9 9.6zm22-59.4c-3.8-.3-7 .3-9.5 1.8s-3.8 3.9-4.1 7.1c-.3 3.2.7 6.1 2.9 8.8 2.2 2.6 5.8 5.3 10.8 8.1 7.5-3.7 11.5-8.6 11.9-14.7.6-6.7-3.4-10.4-12-11.1z"/><path class="year year--2017 st0" d="M137.3 487.4l1.5-18.1 66.3 5.5-1.3 16.2-45.5 81.8L136 571l45.8-79.8-44.5-3.8z"/><path class="year year--2016 st0" d="M175.9 489.8c-1.7-2-4.4-3.1-8.1-3.4-3.7-.3-7.1 1.1-10.1 4.2-5.5 5.6-8.8 14.5-10 26.5 6.2-4.7 13.5-6.8 22.1-6.1s15.1 3.8 19.6 9.2c4.6 5.4 6.4 12.9 5.6 22.4-.9 11.4-4.8 19.7-11.6 25.1-6.8 5.4-15.4 7.6-25.7 6.8-13.7-1.1-22.8-6.8-27.3-16.9-4.1-9.2-5.5-21.1-4.3-35.7.9-11 3.3-20.7 7.3-29 2.3-4.9 5.1-9 8.2-12.4 3.2-3.4 7.4-6 12.5-7.9 5.1-1.9 10.8-2.6 17.1-2.1 16 1.3 25.1 9.9 27.1 25.8l-19.3 3.6c-.4-4.9-1.4-8.1-3.1-10.1zm-24.8 64.1c1.9 2.8 4.8 4.3 8.7 4.6 3.9.3 7-1 9.4-3.8 2.3-2.9 3.7-7 4.2-12.2.4-5.2-.2-9.1-1.8-11.6-1.7-2.6-4.8-4-9.4-4.4-4.6-.4-9.5 1.3-14.5 5.1-.3 5.3-.2 9.6.1 13 .3 3.4 1.4 6.5 3.3 9.3z"/><path class="year year--2015 st0" d="M192 472.9l-1.5 18.1-38-3.1L148 513c5.5-4.1 12.2-5.8 20.1-5.2 7.8.6 14.1 3.7 18.7 9.2 4.5 5.5 6.4 13.6 5.5 24.2-.8 10.7-4.8 19-11.9 24.7-7.1 5.7-16.2 8.1-27.2 7.2-8.9-.8-16.1-3.5-21.7-8-5.6-4.6-8.6-11.5-9.1-20.6l18.6-2.3c.5 8.9 5 13.7 13.6 14.4 4.4.4 8.1-.8 11.3-3.6 3.1-2.8 4.9-7 5.4-12.9.8-10.3-3.2-15.9-12.1-16.6-5.2-.4-10.3 1.4-15.4 5.5l-13.2-6.9 8.2-53.6 53.2 4.4z"/><path class="st0" d="M74.1 223.2l13.6-72.3 21.2 4-13.4 71.7c-3.7 19.7-16 27.6-36.8 23.8-19.5-3.7-27.8-14.9-25-33.8l20.9.8c-.5 5-.3 8.7.6 11.1.9 2.4 3.1 3.9 6.6 4.6s6.2.2 8.2-1.2c1.9-1.6 3.3-4.5 4.1-8.7zM94.1 335.8c3 3.5 8.1 5 15.2 4.4 7.1-.6 11.8-2.7 14.2-6.4 2.4-3.7 3.2-9.8 2.5-18.3l-5-61.5 21.5-1.8 5.3 64.6c2.1 25.4-10.4 39.2-37.5 41.5-13.8 1.2-24.1-1.1-31-6.9-6.9-5.8-10.8-15.3-11.8-28.6l-5.2-64 21.5-1.8 5 61.1c.4 8.3 2.2 14.2 5.3 17.7zM103.7 468.7l-26.4-1.9-33.9-74.1-5.1 71.4-21.1-1.5 7.2-101.1 27.1 1.9 33.2 74.4 5.1-71.7 21.1 1.5-7.2 101.1zM67.8 538.5l1.5 23.6 45.1-2.8 1.1 18.1-66.6 4.2-6.4-101.2 64.1-4 1.1 18.1-42.6 2.7 1.5 23.7 40.1-2.5 1.1 17.6-40 2.5z"/></svg>