<svg class="Layer_1" xmlns="http://www.w3.org/2000/svg" viewBox="0 0 600 600"><style>.st0{fill:#fff}</style><path class="st0" d="M49.1 384.7c6.8-3.7 15.1-4.8 24.9-3.3 9.8 1.5 16.8 4.8 21.3 10.1 4.4 5.2 6.1 11.6 4.9 19.2-1.1 7.6-3.7 13.9-7.8 18.9-4 5-10.7 11.2-20.1 18.7l-19 15.6-.1.4 39.6 6-2.7 18-64.1-9.8 2.6-17.4L54 439.3c10-8.5 16.5-14.4 19.4-17.8 3-3.4 4.8-7.3 5.4-11.6 1.1-7-2.1-11.1-9.6-12.2-4.3-.6-7.6.1-10.1 2.2-2.4 2.1-4.4 5.6-5.9 10.5l-18.4-6c2.8-9.5 7.5-16 14.3-19.7zM137.7 498.4c-13.4 0-22.7-4.4-28-13.1-5.3-8.7-8-21.8-8-39.4s2.9-30.6 8.6-39.3c5.7-8.7 15.3-13 28.6-13.1 13.3 0 22.6 4.2 27.8 12.7 5.2 8.4 7.8 21.5 7.8 39.1s-2.8 30.9-8.4 39.8c-5.6 8.8-15.1 13.3-28.4 13.3zM127 418.1c-2.1 5.3-3.2 14.6-3.2 27.7s1 22.4 2.9 27.8 5.7 8 11.2 8c5.6 0 9.3-2.7 11.3-8.1 2-5.4 2.9-14.8 2.9-28.1 0-13.4-.9-22.6-2.7-27.7-1.8-5.1-5.5-7.6-11-7.6-5.5.1-9.3 2.7-11.4 8z"/><path class="st0" d="M206.1 449.3l-20.8 3.5-12.6-75.2c-1.9 1.5-5.2 3.1-9.7 4.7-4.6 1.7-8.2 2.7-10.9 3.2l-4-17.8c13-3.2 22-8.6 27.1-16.1l14.2-2.4 16.7 100.1z"/><path class="year year--2018 st0" d="M244.8 499.3c-11.7-.8-20.4-3.9-26.1-9.3-5.7-5.4-8.3-11.9-7.8-19.4.8-12.2 8-20.8 21.4-25.8-10.1-5.7-14.8-13.8-14.1-24.4.6-8.7 4.3-15.2 11-19.8 6.8-4.5 15.3-6.4 25.7-5.7 10.7.7 18.7 3.5 24.2 8.2 5.5 4.7 8 10.6 7.5 17.8-.4 5.4-2.1 9.9-5.2 13.4s-7.7 6.8-13.8 9.7c6.4 3.6 10.9 7.6 13.4 11.9 2.6 4.3 3.6 9.9 3.2 16.7-.6 8.2-4.4 15-11.4 20.2-6.9 5.1-16.3 7.3-28 6.5zm-12.6-29.5c-.6 8.4 4.2 12.9 14.2 13.6 5 .3 8.9-.6 11.6-2.7 2.8-2.1 4.2-4.6 4.5-7.7.2-3-.1-5.4-.9-7.3-1.3-3.1-4.5-6-9.6-8.8-1.7-.9-4-2.1-6.9-3.4-3.9 1.9-7 4.1-9.1 6.5-2.3 2.5-3.5 5.7-3.8 9.8zm21.2-59.7c-3.8-.3-7 .4-9.4 2-2.5 1.6-3.8 3.9-4 7.1-.2 3.2.8 6.1 3 8.7 2.3 2.5 5.9 5.2 10.9 7.9 7.4-3.8 11.3-8.7 11.7-14.8.4-6.7-3.6-10.3-12.2-10.9z"/><path class="year year--2017 st0" d="M222.4 412.5l1.2-18.1 66.4 4.5-1.1 16.2-44.3 82.4-22.4-1.5 44.7-80.5-44.5-3z"/><path class="year year--2016 st0" d="M260.9 414.3c-1.7-1.9-4.5-3-8.2-3.3-3.7-.3-7.1 1.2-10 4.3-5.4 5.7-8.6 14.6-9.6 26.6 6.1-4.8 13.4-7 22-6.4 8.5.6 15.1 3.5 19.7 8.9s6.6 12.8 5.9 22.3c-.8 11.4-4.5 19.8-11.3 25.3-6.7 5.4-15.3 7.8-25.6 7.1-13.7-.9-22.9-6.4-27.5-16.5-4.2-9.1-5.8-21-4.8-35.7.8-11 3-20.7 6.9-29.1 2.2-4.9 4.9-9.1 8-12.5 3.2-3.4 7.3-6.1 12.4-8.1 5.1-2 10.8-2.8 17.1-2.3 16.1 1.1 25.2 9.6 27.4 25.4l-19.2 3.8c-.4-4.5-1.4-7.8-3.2-9.8zM237 478.8c2 2.7 4.9 4.3 8.8 4.5 3.9.3 7-1.1 9.4-4 2.3-3 3.6-7 4-12.3.4-5.2-.3-9.1-1.9-11.6-1.7-2.5-4.9-4-9.5-4.3-4.6-.3-9.4 1.5-14.4 5.3-.2 5.3-.1 9.6.3 13 .2 3.5 1.4 6.6 3.3 9.4z"/><path class="year year--2015 st0" d="M276.8 397.2l-1.2 18.1-38-2.6-4.1 25.1c5.5-4.2 12.1-6 20-5.5s14.1 3.5 18.8 9c4.6 5.4 6.6 13.5 5.8 24.2-.7 10.8-4.5 19-11.5 24.8-7 5.8-16 8.3-27.1 7.6-8.9-.7-16.2-3.2-21.8-7.7-5.6-4.5-8.8-11.3-9.4-20.5l18.5-2.6c.6 8.9 5.2 13.6 13.8 14.2 4.4.3 8.1-1 11.2-3.8 3.1-2.8 4.8-7.1 5.2-12.9.7-10.3-3.4-15.8-12.3-16.5-5.2-.4-10.3 1.6-15.3 5.7l-13.3-6.7 7.5-53.7 53.2 3.8z"/><path class="st0" d="M247.5 184.8l-29 97.1-20.2-6.1 22.8-76.2-1.9-.6-45.7 69.3-18.7-5.6.7-82.9.8.2-22.8 76.3-20.2-6.1 29-97.1 30.7 9.2-.7 77.2.6.1 41.6-64.9 33 10.1zM256.2 196.9h26.9L319 298.3h-23.7l-8.3-24.5h-36.3l-8.1 24.5H223l33.2-101.4zm26.2 59.6l-12.6-39.2h-.5l-12.9 39.2h26zM340 269.7l11.7 36.6-20.5 6.6-30.9-96.5 37.6-12c11.2-3.6 20.2-3.6 26.9-.1 6.7 3.5 11.3 9.2 13.9 17.1 4.3 13.3 1.7 24.3-7.8 32.9L406 289l-22.1 7.1-30.8-30.6-13.1 4.2zm-5.2-16.1l10.5-3.4c11.6-3.7 15.9-10.4 12.8-20.1-1.4-4.5-3.8-7.3-7.2-8.5-3.4-1.1-7.9-.7-13.5 1.1l-11.3 3.6 8.7 27.3z"/><path class="st0" d="M427.6 284.7c-30.9-4.1-44.1-23.1-39.5-57 2.2-16.3 8.1-28.6 17.8-37.1 9.7-8.5 22.3-11.6 37.8-9.6 12.2 1.6 21.5 5.9 28.1 12.8 6.5 6.9 9.3 16.5 8.2 28.7l-21.4-1.1c.3-7.3-.9-12.7-3.7-16.3-2.8-3.6-7.4-5.8-13.9-6.6-17.4-2.3-27.6 8-30.7 31.1-1.7 12.1-.8 21.1 2.6 27.1 3.4 6 8.9 9.4 16.3 10.4 7.5 1 13 .2 16.7-2.5s6.5-6.8 8.5-12.6l20.5 6.1c-2.1 7.4-5.8 13.3-11.1 17.8-5.3 4.4-11 7.2-17 8.4-6 1.2-12.4 1.3-19.2.4z"/><path class="st0" d="M525.7 185.5l67 76.1-16.2 14.2-27.5-31.2-29 25.7 27.5 31.2-16.2 14.2-67-76.1 16.2-14.2 27.5 31.2 29.1-25.6-27.5-31.2 16.1-14.3z"/></svg>