<svg class="Layer_1" xmlns="http://www.w3.org/2000/svg" viewBox="0 0 600 600"><style>.st0{fill:#fff}</style><path class="st0" d="M378.4 434.5c7.5-2 15.8-1.1 25 2.7 9.1 3.7 15.2 8.7 18.3 14.8 3.1 6.1 3.1 12.7.2 19.8-2.9 7.1-6.9 12.6-12 16.5-5.1 3.9-13.1 8.4-23.9 13.4l-22.2 10.6-.2.4 37.1 15.2-6.9 16.8-60-24.6 6.7-16.3 29.8-15.1c11.7-5.9 19.4-10.1 23.1-12.7s6.4-5.9 8-10c2.7-6.6.6-11.3-6.4-14.1-4-1.6-7.4-1.7-10.3-.2-2.9 1.5-5.6 4.4-8.2 8.8l-16.4-10.2c4.7-8.7 10.8-13.9 18.3-15.8zM449.9 589.4c-13.3 1.3-23-2.2-29.2-10.3-6.2-8.1-10.1-20.9-11.8-38.4-1.7-17.5-.1-30.8 4.7-40 4.9-9.2 13.9-14.5 27.2-15.8 13.2-1.3 22.9 2 28.9 9.9s9.9 20.6 11.6 38.2c1.7 17.5.3 31-4.4 40.4-4.7 9.3-13.7 14.7-27 16zm-18.5-78.8c-1.6 5.5-1.7 14.8-.4 27.9 1.3 13.1 3.2 22.2 5.6 27.4 2.4 5.1 6.4 7.4 12 6.8 5.5-.5 9-3.6 10.5-9.2 1.4-5.6 1.5-15 .2-28.2-1.3-13.3-3.1-22.4-5.4-27.3-2.3-4.9-6.2-7.1-11.7-6.5-5.7.6-9.2 3.6-10.8 9.1zM510.8 540.3l-20.9-3.2 11.7-75.3c-2.3.8-5.9 1.3-10.7 1.4-4.9.1-8.6 0-11.3-.4l1.8-18.1c13.4 1 23.6-1.2 30.8-6.7l14.3 2.2-15.7 100.1z"/><path class="year year--2018 st0" d="M548.9 585.2c-11.7-1.1-20.3-4.5-25.8-10.1s-7.9-12.1-7.2-19.6c1.2-12.2 8.6-20.6 22.2-25.2-9.9-6-14.4-14.2-13.4-24.8.8-8.6 4.7-15.1 11.6-19.5 6.9-4.3 15.5-6 25.9-5 10.6 1 18.6 4 24 8.9 5.4 4.8 7.7 10.9 7 18-.5 5.4-2.4 9.8-5.6 13.3-3.2 3.4-7.9 6.5-14.1 9.3 6.3 3.8 10.6 7.9 13.1 12.3s3.4 10 2.7 16.8c-.8 8.2-4.8 14.8-11.9 19.8-7.4 5.1-16.8 7-28.5 5.8zm-11.8-29.8c-.8 8.4 3.8 13 13.8 14 5 .5 8.9-.3 11.7-2.4 2.8-2 4.4-4.5 4.7-7.5.3-3 .1-5.4-.7-7.3-1.2-3.1-4.3-6.1-9.3-9.1-1.7-1-3.9-2.2-6.8-3.6-4 1.8-7.1 3.9-9.3 6.2-2.4 2.4-3.7 5.6-4.1 9.7zm22.9-59.1c-3.8-.4-7 .2-9.5 1.7s-3.9 3.8-4.2 7c-.3 3.2.6 6.1 2.8 8.8 2.2 2.6 5.7 5.3 10.7 8.3 7.5-3.6 11.6-8.4 12.1-14.5.7-6.7-3.3-10.4-11.9-11.3z"/><path class="year year--2017 st0" d="M528.9 498l1.8-18.1 66.2 6.4-1.6 16.2-46.7 81.1-22.3-2.2 47-79.2-44.4-4.2z"/><path class="year year--2016 st0" d="M567.4 500.8c-1.7-2-4.4-3.2-8.1-3.5-3.7-.4-7.1 1-10.1 4-5.6 5.5-9 14.3-10.4 26.3 6.3-4.7 13.6-6.6 22.2-5.7 8.5.8 15 4 19.5 9.5s6.2 13 5.3 22.5c-1.1 11.4-5.1 19.7-12 24.9-6.9 5.2-15.5 7.4-25.8 6.4-13.7-1.3-22.7-7.1-27-17.3-3.9-9.2-5.2-21.2-3.8-35.8 1.1-11 3.6-20.6 7.7-28.9 2.4-4.9 5.2-9 8.4-12.3 3.3-3.3 7.5-5.9 12.6-7.7 5.1-1.8 10.8-2.5 17.1-1.8 16 1.6 24.9 10.3 26.7 26.2l-19.3 3.3c-.3-4.8-1.3-8.1-3-10.1zm-25.7 63.7c1.9 2.8 4.8 4.4 8.6 4.8 3.9.4 7-.9 9.5-3.7 2.4-2.9 3.8-6.9 4.3-12.1.5-5.2 0-9.1-1.6-11.7-1.6-2.6-4.7-4.1-9.4-4.6-4.6-.4-9.5 1.2-14.6 4.9-.3 5.3-.4 9.6-.1 13 .4 3.5 1.4 6.6 3.3 9.4z"/><path class="year year--2015 st0" d="M583.8 485l-1.8 18.1-37.9-3.7-4.8 25c5.6-4 12.3-5.7 20.1-4.9 7.8.8 14 3.9 18.5 9.5s6.2 13.7 5.1 24.3c-1 10.7-5.1 18.9-12.2 24.5-7.2 5.6-16.3 7.9-27.3 6.8-8.9-.9-16.1-3.7-21.6-8.3-5.5-4.7-8.4-11.6-8.8-20.8l18.6-2c.4 8.9 4.8 13.7 13.4 14.6 4.4.4 8.1-.7 11.3-3.4 3.1-2.7 5-7 5.6-12.8 1-10.3-2.9-15.9-11.8-16.8-5.2-.5-10.4 1.3-15.4 5.3l-13.1-7 9-53.4 53.1 5z"/><path class="st0" d="M146.6 43.3l-35.4 95-19.8-7.4 27.8-74.5-1.9-.7-50.2 66.1-18.3-6.8L55 32.3l.8.3L28 107.2 8.2 99.9l35.4-95 30.1 11.2L67.9 93l.5.2 45.8-62 32.4 12.1zM148.4 69.9l26.8-1.8 42.7 98.7-23.7 1.6-10-23.8L148 147l-6.4 25-19.5 1.3 26.3-103.4zm30.1 57.6l-15.2-38.3h-.5l-10.2 40 25.9-1.7zM242.6 117.9l-20.6 6.4L210.8 88l-52.4-50.2 22.6-7 34 34.9.6-.2 7.5-47.8 20.9-6.5-12.8 70.1 11.4 36.6z"/></svg>