<svg class="Layer_1" xmlns="http://www.w3.org/2000/svg" viewBox="0 0 600 600"><style>.st0{fill:#fff}</style><path class="st0" d="M157.4 303.5c-4.7-6.2-7-14.2-7-24.1 0-9.9 2.3-17.4 6.8-22.5 4.5-5.1 10.6-7.7 18.2-7.7 7.7 0 14.3 1.6 19.8 4.9 5.6 3.2 12.7 8.9 21.5 17l18.2 16.5h.4v-40.1h18.2v64.9h-17.6l-25.3-21.8c-9.9-8.6-16.7-14.1-20.6-16.6s-7.9-3.6-12.3-3.6c-7.1 0-10.7 3.8-10.7 11.3 0 4.3 1.2 7.5 3.7 9.6 2.5 2.1 6.2 3.5 11.3 4.2l-3.2 19.1c-9.6-1.2-16.7-4.9-21.4-11.1zM241.4 209.6c0 13.4-4.4 22.7-13.1 28-8.7 5.3-21.8 8-39.4 8s-30.6-2.9-39.3-8.6c-8.7-5.7-13-15.3-13.1-28.6 0-13.3 4.2-22.6 12.7-27.8 8.4-5.2 21.5-7.8 39.1-7.8s30.9 2.8 39.8 8.4c8.9 5.6 13.3 15 13.3 28.4zm-80.2 10.7c5.3 2.1 14.6 3.2 27.7 3.2s22.4-1 27.8-2.9 8-5.7 8-11.2c0-5.6-2.7-9.3-8.1-11.3-5.4-2-14.8-2.9-28.1-2.9-13.4 0-22.6.9-27.7 2.7-5.1 1.8-7.6 5.5-7.6 11s2.7 9.3 8 11.4zM223.7 130v21.1h-76.2c1.2 2.1 2.2 5.6 3.1 10.4.9 4.8 1.3 8.5 1.3 11.3l-18.2 1c-1-13.4-4.8-23.1-11.3-29.4V130h101.3z"/><path class="year year--2018 st0" d="M261.5 84.9c0 11.7-2.5 20.6-7.6 26.7-5 6.1-11.3 9.1-18.8 9.1-12.2 0-21.3-6.5-27.2-19.6-5 10.4-12.8 15.7-23.4 15.7-8.7 0-15.5-3.2-20.5-9.6s-7.5-14.9-7.5-25.3c0-10.7 2.2-18.9 6.5-24.7 4.3-5.8 10.1-8.7 17.3-8.7 5.4 0 10 1.4 13.8 4.3 3.7 2.8 7.3 7.2 10.6 13.2 3.2-6.6 6.8-11.3 10.9-14.2 4.1-2.9 9.6-4.3 16.5-4.3 8.3 0 15.2 3.3 20.9 10 5.6 6.5 8.5 15.7 8.5 27.4zm-28.6 14.6c8.4 0 12.6-5 12.6-15.1 0-5-1.2-8.8-3.5-11.4-2.3-2.6-4.9-3.9-7.9-3.9s-5.4.5-7.2 1.4c-3 1.5-5.7 4.9-8.1 10.2-.8 1.7-1.8 4.1-2.9 7.2 2.1 3.8 4.5 6.7 7.1 8.7 2.5 1.9 5.8 2.9 9.9 2.9zm-61-17.1c0 3.8.9 6.9 2.6 9.3 1.7 2.3 4.2 3.5 7.4 3.5s6-1.2 8.5-3.6c2.4-2.4 4.8-6.2 7.2-11.4-4.3-7.2-9.5-10.7-15.6-10.7-6.7 0-10.1 4.3-10.1 12.9z"/><path class="year year--2017 st0" d="M176.4 113.2h-18.2V46.7h16.3l85.2 38.6v22.4l-83.3-39.1v44.6z"/><path class="year year--2016 st0" d="M175.6 74.6c-1.8 1.9-2.7 4.7-2.7 8.4s1.7 7 5 9.7c6.1 5 15.1 7.6 27.2 7.8-5.2-5.8-7.9-12.9-7.9-21.5s2.5-15.3 7.5-20.3 12.3-7.5 21.9-7.4c11.4 0 20.1 3.2 26 9.5s8.8 14.7 8.8 25c0 13.7-4.9 23.3-14.6 28.6-8.8 4.8-20.6 7.2-35.3 7.2-11 0-20.9-1.6-29.5-4.9-5.1-1.9-9.4-4.3-13.1-7.2-3.6-2.9-6.6-6.9-8.9-11.8-2.3-4.9-3.5-10.5-3.5-16.9 0-16.1 7.8-25.8 23.5-29.1l5.1 18.9c-4.5.9-7.6 2.2-9.5 4zm65.9 19.5c2.6-2.1 3.9-5.2 3.9-9.1s-1.5-6.9-4.6-9.1c-3.1-2.1-7.3-3.1-12.5-3.1s-9 .9-11.5 2.7c-2.4 1.9-3.6 5.1-3.6 9.8 0 4.6 2.1 9.3 6.3 14 5.3-.2 9.6-.6 13-1.2 3.4-.5 6.4-1.9 9-4z"/><path class="year year--2015 st0" d="M157.4 59.9h18.2V98l25.3 2.4c-4.5-5.2-6.8-11.7-6.8-19.6 0-7.9 2.6-14.3 7.7-19.4 5.1-5 13-7.5 23.7-7.5 10.8 0 19.3 3.2 25.6 9.8 6.3 6.6 9.4 15.4 9.5 26.6 0 8.9-2.1 16.4-6.2 22.3-4.1 5.9-10.7 9.5-19.8 10.7l-3.8-18.3c8.8-1.2 13.2-6.1 13.2-14.7 0-4.4-1.5-8-4.5-10.9-3-2.9-7.4-4.3-13.3-4.3-10.3 0-15.5 4.5-15.6 13.4 0 5.2 2.3 10.2 6.8 14.8l-5.7 13.8-54.1-3.8V59.9z"/><path class="st0" d="M119.3 505.4v26.4l-71.6 39h71.6V592H17.9v-27.1l71.8-38.4H17.9v-21.1h101.4zM132 450.4c0 16-4.7 27.9-14 35.6-9.3 7.7-21.9 11.6-37.7 11.6s-28.6-4.3-38.4-12.8c-9.8-8.5-14.7-20.7-14.7-36.4 0-15.8 4.8-27.5 14.2-35.1 9.4-7.7 22.1-11.5 38.1-11.5s28.8 4.2 38.3 12.3c9.5 8.1 14.2 20.2 14.2 36.3zm-18.2-.8c0-17.1-11.4-25.7-34.2-25.7-22.8 0-34.2 8.2-34.3 24.6 0 8.3 2.9 14.9 8.6 19.6 5.7 4.7 14.3 7.1 25.8 7.2 22.8 0 34.1-8.5 34.1-25.7zM110.3 349.6v29.1L8.9 411.6v-24.2L89 364.3v-.8L8.9 340.3V318l101.4 31.6zM94.5 296.5h23.7v-45.2h18.2V318H34.9v-64.3h18.2v42.7h23.7v-40.2h17.6v40.3zM12.5 136.7h101.4v21.1H34.3v2l79.5 23.9v19.5l-79.6 23v-.8h79.6v21.1H12.5v-32.1L86.6 193v-.6l-74.1-21.3v-34.4zM229.3 513.6v36.6H127.9v-40.1c0-20.5 8.3-30.7 24.8-30.7 6.3 0 11.5 1.8 15.4 5.4 3.9 3.6 6.7 8.2 8.3 13.8h.3c1.9-15.2 10.1-22.8 24.7-22.8 18.6 0 27.9 12.6 27.9 37.8zm-59.5 15.1v-8c0-9.8-2.2-15.9-6.6-18.5-1.9-1.1-4.3-1.7-7-1.7-5 0-8.1 1.4-9.5 4.2s-2.1 7-2.1 12.8v11.2h25.2zm42.8 0v-11.1c0-6.5-.9-11.4-2.7-14.7-1.8-3.3-5.3-4.9-10.5-4.9s-8.7 1.5-10.5 4.6c-1.8 3.1-2.7 7.4-2.7 13v13.1h26.4zM207.5 449.5h23.7v-45.2h18.2V471H147.9v-64.3h18.2v42.7h23.7v-40.2h17.6v40.3zM189.8 377h38.5v21.5H126.9v-39.4c0-11.8 2.7-20.3 8.1-25.6 5.4-5.3 12.2-8 20.5-8 14 0 23.7 5.8 29 17.4l43.8-22.9v23.2l-38.5 20V377zm-16.9 0v-11c0-12.2-5.1-18.3-15.2-18.3-4.7 0-8.2 1.4-10.3 4.3-2.1 2.9-3.1 7.3-3.1 13.2V377h28.6z"/><path class="st0" d="M175.9 555.9v37.9h-18.2v-37.9h18.2z"/></svg>