<svg class="Layer_1" xmlns="http://www.w3.org/2000/svg" viewBox="0 0 600 600"><style>.st0{fill:#fff}</style><path class="st0" d="M310.2 494.7c6.2-4.7 14.2-7 24.1-7 9.9 0 17.4 2.3 22.5 6.8 5.1 4.5 7.7 10.6 7.7 18.2 0 7.7-1.6 14.3-4.9 19.8-3.2 5.6-8.9 12.7-17 21.5l-16.5 18.2v.4h40.1v18.2h-64.9v-17.6l21.8-25.3c8.6-9.9 14.1-16.7 16.6-20.6s3.6-7.9 3.6-12.3c0-7.1-3.8-10.7-11.3-10.7-4.3 0-7.5 1.2-9.6 3.7-2.1 2.5-3.5 6.2-4.2 11.3l-19.1-3.2c1.2-9.6 4.9-16.8 11.1-21.4zM407.1 591.7c-13.4 0-22.7-4.4-28-13.1-5.3-8.7-8-21.8-8-39.4s2.9-30.6 8.6-39.3c5.7-8.7 15.3-13 28.6-13.1 13.3 0 22.6 4.2 27.8 12.7 5.2 8.4 7.8 21.5 7.8 39.1s-2.8 30.9-8.4 39.8c-5.6 8.9-15.1 13.3-28.4 13.3zm-10.7-80.2c-2.1 5.3-3.2 14.6-3.2 27.7s1 22.4 2.9 27.8 5.7 8 11.2 8c5.6 0 9.3-2.7 11.3-8.1 2-5.4 2.9-14.8 2.9-28.1 0-13.4-.9-22.6-2.7-27.7-1.8-5.1-5.5-7.6-11-7.6s-9.3 2.7-11.4 8zM495.6 589.9h-21.1v-76.2c-2.1 1.2-5.6 2.2-10.4 3.1-4.8.9-8.5 1.3-11.3 1.3l-1-18.2c13.4-1 23.1-4.8 29.4-11.3h14.4v101.3z"/><path class="year year--2018 st0" d="M542.8 591.7c-11.7 0-20.6-2.5-26.7-7.6-6.1-5-9.1-11.3-9.1-18.8 0-12.2 6.5-21.3 19.6-27.2-10.4-5-15.7-12.8-15.7-23.4 0-8.7 3.2-15.5 9.6-20.5s14.9-7.5 25.3-7.5c10.7 0 18.9 2.2 24.7 6.5 5.8 4.3 8.7 10.1 8.7 17.3 0 5.4-1.4 10-4.3 13.8-2.8 3.7-7.2 7.3-13.2 10.6 6.6 3.2 11.3 6.8 14.2 10.9 2.9 4.1 4.3 9.6 4.3 16.5 0 8.3-3.3 15.2-10 20.9-6.5 5.7-15.7 8.5-27.4 8.5zm-14.7-28.6c0 8.4 5 12.6 15.1 12.6 5 0 8.8-1.2 11.4-3.5 2.6-2.3 3.9-4.9 3.9-7.9s-.5-5.4-1.4-7.2c-1.5-3-4.9-5.7-10.2-8.1-1.7-.8-4.1-1.8-7.2-2.9-3.8 2.1-6.7 4.5-8.7 7.1-1.9 2.5-2.9 5.9-2.9 9.9zm17.1-60.9c-3.8 0-6.9.9-9.3 2.6-2.3 1.7-3.5 4.2-3.5 7.4s1.2 6 3.6 8.5c2.4 2.4 6.2 4.8 11.4 7.2 7.2-4.3 10.7-9.5 10.7-15.6 0-6.8-4.3-10.1-12.9-10.1z"/><path class="year year--2017 st0" d="M514.4 506.7v-18.2h66.5v16.3L542.3 590h-22.4l39.1-83.3h-44.6z"/><path class="year year--2016 st0" d="M553 505.9c-1.9-1.8-4.7-2.7-8.4-2.7s-7 1.7-9.7 5c-5 6.1-7.6 15.1-7.8 27.2 5.8-5.2 12.9-7.9 21.5-7.9S564 530 569 535c5 5 7.5 12.3 7.4 21.9 0 11.4-3.2 20.1-9.5 26s-14.7 8.8-25 8.8c-13.7 0-23.3-4.9-28.6-14.6-4.8-8.8-7.2-20.6-7.2-35.3 0-11 1.6-20.9 4.9-29.5 1.9-5.1 4.3-9.4 7.2-13.1 2.9-3.6 6.9-6.6 11.8-8.9 4.9-2.3 10.5-3.5 16.9-3.5 16.1 0 25.8 7.8 29.1 23.5l-18.9 5.1c-.9-4.5-2.2-7.7-4.1-9.5zm-19.4 65.9c2.1 2.6 5.2 3.9 9.1 3.9s6.9-1.5 9.1-4.6c2.1-3.1 3.1-7.3 3.1-12.5s-.9-9-2.7-11.5c-1.9-2.4-5.1-3.6-9.8-3.6-4.6 0-9.3 2.1-14 6.3.2 5.3.6 9.6 1.2 13 .5 3.4 1.9 6.4 4 9z"/><path class="year year--2015 st0" d="M567.8 487.7v18.2h-38.1l-2.4 25.3c5.2-4.5 11.7-6.8 19.6-6.8 7.9 0 14.3 2.6 19.4 7.7 5 5.1 7.5 13 7.5 23.7 0 10.8-3.2 19.3-9.8 25.6-6.6 6.3-15.4 9.4-26.6 9.5-8.9 0-16.4-2.1-22.3-6.2-5.9-4.1-9.5-10.7-10.7-19.8l18.3-3.8c1.2 8.8 6.1 13.2 14.7 13.2 4.4 0 8-1.5 10.9-4.5 2.9-3 4.3-7.4 4.3-13.3 0-10.3-4.5-15.5-13.4-15.6-5.2 0-10.2 2.3-14.8 6.8l-13.8-5.7 3.8-54.1h53.4z"/><path class="st0" d="M84.2 40.1c-9.7-3.5-15.8-1.8-18.3 4.9-1.8 5 .1 9.9 5.8 14.6 2.5 2.2 5.3 4.4 8.3 6.7 3.1 2.3 6.2 4.7 9.3 7.1 3.2 2.4 5.9 5.1 8.2 8.1 2.3 3 3.8 6.5 4.3 10.6.6 4.1 0 8.5-1.8 13.3-3.6 10.1-9.8 16.4-18.6 18.8-8.8 2.5-18.4 1.8-28.8-1.9-23.2-8.3-31.9-22.8-26-43.4L46.1 83c-1 5.8-.7 10.6.9 14.5 1.6 3.9 5.6 7 12 9.3 10.6 3.8 17.2 1.7 20.1-6.2.9-2.6.8-5.2-.4-7.7-1.2-2.5-3.1-4.7-5.7-6.6-2.6-1.9-5.5-4-8.6-6.2C56.8 75.3 51 70.2 46.9 65c-2.2-2.9-3.6-6.5-4.2-10.6-.6-4.2 0-8.7 1.8-13.7 3.2-9 9-14.8 17.4-17.6 8.4-2.7 17.4-2.4 27 1 9.6 3.4 16.7 8.1 21.5 13.9 5.4 6.5 6.5 15.3 3.2 26.6L94.2 60c1.3-5 1.2-9.1-.2-12.3-1.4-3.2-4.7-5.7-9.8-7.6zM174.5 139.6l4.8 23.2 44.2-9.2 3.7 17.8-65.3 13.6-20.6-99.3 62.9-13.1 3.7 17.8-41.8 8.7 4.8 23.2 39.4-8.2 3.6 17.3-39.4 8.2zM280.2 89.9l15.6 28.8-18.9 10.3-48.3-89.1 33.8-18.3c10.5-5.7 19.5-7.2 27.1-4.5 7.5 2.7 13.4 8.1 17.7 16.2 11.7 21.7 6 38.8-17.2 51.4l-9.8 5.2zm-8.3-15.3l7.6-4.1c5.5-3 9.1-6.5 11-10.4 1.9-3.9 1.3-8.7-1.8-14.4-3.1-5.7-6.5-8.8-10.4-9.3-3.8-.5-8.3.7-13.5 3.5l-9.1 4.9 16.2 29.8zM122.3 335l-19.8 8.5-33-76.4L42 279l-7.2-16.7 74.6-32.2 7.2 16.7-27.2 11.8 32.9 76.4zM230.2 276l-9.2 21.8 41.6 17.7-7.1 16.7-61.4-26.1 39.6-93.3 59.2 25.1-7.1 16.7-39.3-16.7-9.3 21.8 37 15.7-6.9 16.2-37.1-15.6zM447.9 215.7l19.6 99.5-20.7 4.1-15.4-78-2 .4-8.1 82.6-19.1 3.8-38-73.7.8-.2 15.4 78.1-20.7 4.1-19.6-99.5 31.5-6.2 35.4 68.6.6-.1 6.6-76.8 33.7-6.7zM110.2 548.9l-35.7 7.7-21.5-99 39.2-8.5c20-4.3 31.7 1.6 35.3 17.7 1.3 6.2.7 11.6-2 16.2s-6.6 8.3-11.7 11l.1.3c15.3-1.4 24.5 5.1 27.6 19.3 3.7 18.2-6.6 30-31.3 35.3zM82.9 494l7.8-1.7c9.5-2.1 15.1-5.5 16.6-10.3.7-2.1.8-4.5.2-7.2-1.1-4.8-3.1-7.6-6.1-8.4s-7.3-.5-12.9.6l-11 2.4 5.4 24.6zm9.1 41.8l10.8-2.3c6.4-1.4 11-3.3 13.8-5.8 2.8-2.5 3.7-6.3 2.6-11.3-1.1-5.1-3.3-8.2-6.7-9.3-3.4-1.1-7.8-1.1-13.3.1L86.4 510l5.6 25.8zM241.6 463.2l16.7 16.8 32-31.9 12.8 12.9-47.3 47.1-71.6-71.8 45.5-45.4 12.8 12.9-30.3 30.2 16.7 16.8 28.5-28.4 12.4 12.5-28.2 28.3zM418.4 422.2l-9.8 37.2-20.8-5.5 25.7-98.1 38.2 10c11.4 3 19 7.8 22.7 14.3 3.8 6.6 4.6 13.8 2.5 21.9-3.6 13.5-11.6 21.4-24.2 23.6l11 48.2-22.4-5.9-9.6-42.3-13.3-3.4zm4.3-16.4l10.7 2.8c11.8 3.1 19-.3 21.5-10.1 1.2-4.6.7-8.2-1.6-11-2.3-2.8-6.3-4.9-12-6.3l-11.5-3-7.1 27.6z"/></svg>