<svg id="Layer_1" data-name="Layer 1" xmlns="http://www.w3.org/2000/svg" width="1851.44" height="1087.26" viewBox="0 0 1851.44 1087.26">
  <defs>
    <style>
      .cls-1 {
        fill: #231f20;
      }
    </style>
  </defs>
  <title>letters</title>
  <path id="a" class="cls-1" d="M140.22,96.86h48l64.09,181H209.92L195,234.19h-64.8l-14.38,43.7H81Zm46.72,106.32-22.46-70.07h-1l-23.07,70.07Z" transform="translate(-79.4 -93.68)"/>
  <path id="b" class="cls-1" d="M338.56,277.89H273.25v-181H344.9q54.81,0,54.81,44.31,0,17-9.64,27.47a52,52,0,0,1-24.66,14.77v.48q40.77,5,40.77,44.19Q406.18,277.9,338.56,277.89ZM311.7,171.69H326q26.11,0,33-11.72A24.23,24.23,0,0,0,362,147.4q-.12-13.31-7.45-17t-22.82-3.79h-20Zm0,76.41h19.77q17.46,0,26.25-4.88t8.79-18.8q0-13.92-8.18-18.67t-23.2-4.89H311.7Z" transform="translate(-79.4 -93.68)"/>
  <path id="c" class="cls-1" d="M506.89,280.94q-83.5,0-83.5-91.48,0-44,22.71-69.88t64.57-25.9q32.91,0,52.73,16t21.37,48.89l-38.21,3.06q-1.71-19.38-10.38-28t-26.12-8.46q-47,0-47,62.32-.12,32.63,11.11,47.35t31.37,14.6q20.15,0,28.94-8.34t12.08-24.29l37.72,6q-2.92,20.41-15.35,34t-28.17,18.84A106.64,106.64,0,0,1,506.89,280.94Z" transform="translate(-79.4 -93.68)"/>
  <path id="d" class="cls-1" d="M665.43,277.89h-59.3v-181h63.58q45.84-.12,67.85,22.83t22,65.55q-.12,42.6-23.59,67.62T665.43,277.89Zm-20.85-31h19q29.89,0,43.09-15.38T719.9,185q0-31.12-12.82-44.06t-40.77-13.07H644.58Z" transform="translate(-79.4 -93.68)"/>
  <path id="e" class="cls-1" d="M825.49,203.18v42.24h80.69v32.47H787v-181H901.79v32.47h-76.3v42.36h71.78v31.49Z" transform="translate(-79.4 -93.68)"/>
  <path id="f" class="cls-1" d="M971.12,206.6v71.29H932.67v-181h113.89v32.47H971.12v45.78h69.46V206.6Z" transform="translate(-79.4 -93.68)"/>
  <path id="g" class="cls-1" d="M1148.56,125.18q-47.07,0-47.07,63.23,0,31,11,46.27t34.72,15.25q17.49,0,27.39-8.82a28.45,28.45,0,0,0,9.66-22.37v-6.53h-33.33V183.65h71v94.24h-27.81l-4.23-22.22q-5.62,11.72-20,18.43a75.11,75.11,0,0,1-31.62,6.84q-39.15,0-57.87-24.41t-18.6-67.83q0-43.29,22.5-69.09t65-25.93q31,0,50,15.24t21.14,47.88l-35.65,3.44q-1.59-16.31-9.9-25.62T1148.56,125.18Z" transform="translate(-79.4 -93.68)"/>
  <path id="h" class="cls-1" d="M1401.66,96.86v181h-38.45V203.67H1294v74.22h-38.46v-181H1294V171.2h69.21V96.86Z" transform="translate(-79.4 -93.68)"/>
  <path id="i" class="cls-1" d="M1477.22,96.86v181h-38.45v-181Z" transform="translate(-79.4 -93.68)"/>
  <path id="j" class="cls-1" d="M1572.68,228.19V96.86h38.46V227.11q0,53.72-56.77,53.83-53.22,0-54.93-51.16l37-5.5q1.21,13.44,4.76,19.3t13.06,5.87q9.52,0,14-4.89T1572.68,228.19Z" transform="translate(-79.4 -93.68)"/>
  <path id="k" class="cls-1" d="M1685.11,96.86v77.51l70.19-77.51h41l-66.17,75.32,65.19,105.71h-45l-47.73-75.81-17.46,19v56.76h-38.45v-181Z" transform="translate(-79.4 -93.68)"/>
  <path id="l" class="cls-1" d="M1853.32,96.86V245.42h77.52v32.47h-116v-181Z" transform="translate(-79.4 -93.68)"/>
  <path id="m" class="cls-1" d="M292.17,396.86v181H254.45v-142h-3.56l-42.74,142H173.39L132.25,435.68h1.47V577.89H96v-181h57.3l38.29,132.35,1-.05,38-132.3Z" transform="translate(-79.4 -93.68)"/>
  <path id="n" class="cls-1" d="M479.3,577.89H432.07L362.36,450.08V577.89H324.64v-181h48.44l68.5,128.29V396.86H479.3Z" transform="translate(-79.4 -93.68)"/>
  <path id="o" class="cls-1" d="M586,580.94q-43,0-63.6-25T501.76,488.6q0-42.41,22.81-68.66t65-26.26q42.21.13,62.7,25.27t20.61,68.12q-.12,43-22,68.36T586,580.94Zm1.34-32.47q45.9,0,45.9-61.1t-43.94-61.21q-22.35,0-35,15.27T541.43,487.5Q541.43,548.47,587.33,548.47Z" transform="translate(-79.4 -93.68)"/>
  <path id="p" class="cls-1" d="M739.19,519.42v58.47H700.74v-181h68.67q32.07,0,46.28,16t14.07,40.53q0,66-70.77,66Zm0-31h15.46q16.7-.12,26.06-7t9.38-24.17q0-17.32-8.4-23.43t-24.11-6H739.19Z" transform="translate(-79.4 -93.68)"/>
  <path id="q" class="cls-1" d="M927.72,580.94q-42.93,0-63.55-24.87t-20.61-67.35q0-42.48,22.84-68.76t65.11-26.28q42.27.13,62.79,25.3t20.64,66.68q0,41.51-20.81,66.8l20.57,21.72-24.12,20.27L969.77,572A99,99,0,0,1,927.72,580.94Zm2-31.49A56.55,56.55,0,0,0,947,547l-28.36-30.12L942,496.07l26.77,30.36q6.48-13.35,6.48-39.3,0-61-44.25-61-22.37,0-35.08,15.3T883.23,488q0,31.11,12,46.28Q907.44,549.45,929.68,549.45Z" transform="translate(-79.4 -93.68)"/>
  <path id="r" class="cls-1" d="M1081,509.16v68.73h-38.45v-181H1113q31.48,0,45.77,14.4T1173,447.88q0,37.49-31.16,51.76l40.89,78.25h-41.38l-35.67-68.73Zm0-30.27h19.73q32.64,0,32.64-27.22.12-12.69-7.67-18.31t-23.51-5.5H1081Z" transform="translate(-79.4 -93.68)"/>
  <path id="s" class="cls-1" d="M1260.18,423.35q-27.59,0-27.83,19.38,0,14.34,18.64,21.09,8.29,3.19,18.09,6.31l20,6.36a78.77,78.77,0,0,1,18.73,8.73,39,39,0,0,1,13.7,15.22q5.17,9.87,5.06,23.38,0,28.75-19.85,42.87t-49.61,14.25q-66,0-69.94-57.3l34.91-5.26q2.81,15.52,10.25,23.85t25.76,8.44q30,0,30-22.51a17.13,17.13,0,0,0-5.24-12.67,30.7,30.7,0,0,0-13.63-7.69L1251,502.57q-23.44-5.49-38.45-15a38.9,38.9,0,0,1-13.43-15.37q-5.25-10-5.25-24,0-25.55,18.68-40.08t46-14.54q27.21,0,44.53,10.39,19.53,11.35,21.49,42.76l-35.5,4q-1.21-13.69-7.81-20.54T1260.18,423.35Z" transform="translate(-79.4 -93.68)"/>
  <path id="t" class="cls-1" d="M1423.76,577.89h-38.45V429.33h-53.59V396.86h145v32.47h-53Z" transform="translate(-79.4 -93.68)"/>
  <path id="u" class="cls-1" d="M1540.71,538.47q7.33,10,26.42,10t26.17-9.27q7.1-9.27,7.09-32.2V396.86h38.46V512.58q0,68.24-72.82,68.36-37.12.12-54.18-16.72t-16.93-52.62V396.86h38.46V506.27Q1533.38,528.47,1540.71,538.47Z" transform="translate(-79.4 -93.68)"/>
  <path id="v" class="cls-1" d="M1765.55,577.89h-52l-58.71-181h43.21l41.26,143.06h1.46L1782,396.86h39.8Z" transform="translate(-79.4 -93.68)"/>
  <path id="w" class="cls-1" d="M277.16,877.89H228.45L199.14,753.13l-1.08,0L169.12,877.89H118.46l-39.06-181h40.28l25.51,139.52h1L178.4,696.86h40.76L252.5,837.23h1.22l23.44-140.37H316Z" transform="translate(-79.4 -93.68)"/>
  <path id="x" class="cls-1" d="M478.45,696.86l-56.52,89.48,59.45,91.55H436.94l-39.55-60.3-37.72,60.3h-41.5l58.47-91.31-55.79-89.72h43.09l37,61.28,37.48-61.28Z" transform="translate(-79.4 -93.68)"/>
  <path id="y" class="cls-1" d="M577.81,877.89H539.36V810.14L476.61,696.86h42.24l39.61,77.51h1.21l38-77.51h39.06l-59,112.79Z" transform="translate(-79.4 -93.68)"/>
  <path id="z" class="cls-1" d="M773.37,845.42v32.47h-134v-28.2l85.82-120.36h-83.5V696.86H769.83v29L685.6,845.42Z" transform="translate(-79.4 -93.68)"/>
  <path id="_0" data-name="0" class="cls-1" d="M149.53,1180.94q-35.77-.12-50.09-23.41t-14.31-70.28q0-47,15.41-70.21t51.05-23.36q35.66,0,49.6,22.63t13.95,69.85q0,47.22-14.92,71T149.53,1180.94Zm-19.09-143.23q-5.64,14.25-5.63,49.54t5.14,49.67q5.13,14.36,20.07,14.24t20.18-14.49q5.27-14.48,5.27-50.15t-4.9-49.42q-4.89-13.62-19.7-13.63T130.44,1037.71Z" transform="translate(-79.4 -93.68)"/>
  <path id="_1" data-name="1" class="cls-1" d="M309.62,1177.89H271.9V1041.78q-5.73,3.1-18.55,5.46a118.64,118.64,0,0,1-20.14,2.35l-1.83-32.47q35.76-2.75,52.44-20.26h25.8Z" transform="translate(-79.4 -93.68)"/>
  <path id="_2" data-name="2" class="cls-1" d="M360.53,1006.16q16.59-12.48,43-12.48t40.22,12.14q13.79,12,13.78,32.51t-8.67,35.38q-8.67,14.88-30.39,38.41l-29.42,32.57v.73h71.53v32.47H344.78v-31.5l39-45.24q23.06-26.46,29.56-36.7a40.29,40.29,0,0,0,6.5-22q0-19-20.14-19-11.59,0-17.21,6.59t-7.57,20.12l-34.06-5.73Q343.93,1018.64,360.53,1006.16Z" transform="translate(-79.4 -93.68)"/>
  <path id="_3" data-name="3" class="cls-1" d="M533.38,1151.77q11.72,0,18.92-6.73t7.08-20.56q0-13.83-7.13-19.82t-21.74-6H512.87V1070.1h11.59q15.57,0,24-7.32t8.46-20.12q0-19.8-20.51-19.8-11.23,0-16.85,5.43t-8.18,16.91l-32.47-6.52q4.51-23.85,21-34.36t41.26-10.64q24.78,0,39.12,11.5t14.35,32.53q0,16.45-10,27.17a57.45,57.45,0,0,1-24.51,15.47v1q37.59,8.79,37.71,45.29-.12,25-17.37,39.67t-43.88,14.65q-26.64,0-42.75-11.21-16.36-11.2-19.17-35.46l33.69-6.36q1.59,12,7.45,17.86T533.38,1151.77Z" transform="translate(-79.4 -93.68)"/>
  <path id="_4" data-name="4" class="cls-1" d="M733.57,1177.89H696.1v-40.77H616V1110.6L687.8,996.86h46v110H753.1v30.28H733.57Zm-37.47-71.05V1031.4l-47.73,75.44Z" transform="translate(-79.4 -93.68)"/>
  <path id="_5" data-name="5" class="cls-1" d="M875.63,996.86v32.47H807.55l-4.27,45.26q13.86-12.18,35-12.18t34.57,13.7q13.35,13.71,13.35,42.32.12,28.88-17.51,45.63t-47.43,16.88q-23.93-.12-39.8-11.11t-19.16-35.4L795,1127.6q3.3,23.55,26.25,23.56a26.1,26.1,0,0,0,19.53-8.06q7.69-8.05,7.69-23.68,0-27.72-24-27.84-14,0-26.51,12.09l-24.56-10.26,6.78-96.55Z" transform="translate(-79.4 -93.68)"/>
  <path id="_6" data-name="6" class="cls-1" d="M990.18,1027.74q-5-4.87-15-4.88t-17.3,8.91Q944.51,1048,944,1080.35q15.47-14,38.41-14t36.21,13.45q13.39,13.47,13.27,39,0,30.59-17,46.36t-44.69,15.78q-36.81,0-51-26.12-12.85-23.57-12.86-63,0-29.53,8.71-52.74a86.24,86.24,0,0,1,12.82-23.31q7.83-9.76,21-15.87T979,993.68q43.14,0,52,42l-33.79,9.15Q995.19,1032.64,990.18,1027.74Zm-34.71,117.65q5.71,7,16.19,7t16.2-8.22q5.6-8.34,5.6-22.31t-4.87-20.47q-5-6.5-17.41-6.5t-25.09,11.28a174.18,174.18,0,0,0,2.07,23.17A34.19,34.19,0,0,0,955.47,1145.39Z" transform="translate(-79.4 -93.68)"/>
  <path id="_7" data-name="7" class="cls-1" d="M1040.21,1029.33V996.86H1159v29.05l-69,152.22h-40l69.82-148.8Z" transform="translate(-79.4 -93.68)"/>
  <path id="_8" data-name="8" class="cls-1" d="M1227.59,1180.94q-31.39,0-47.62-13.48t-16.22-33.53q0-32.75,35-48.63-27.94-13.33-28.06-41.83,0-23.25,17.21-36.58t45.14-13.33q28.61,0,44.16,11.64t15.56,30.86q0,14.54-7.63,24.56t-23.49,18.93q17.7,8.57,25.38,19.55t7.69,29.45q0,22.13-17.81,37.32T1227.59,1180.94Zm-26.12-51q0,22.48,26.92,22.49,13.39,0,20.4-6.24t7-14.17q0-8.06-2.46-12.83-4-7.94-18.18-14.54-4.68-2.19-12.78-5.25-10.09,5.75-15.5,12.71T1201.47,1129.89ZM1232,1021q-10.27,0-16.55,4.64t-6.27,13.2a21,21,0,0,0,6.49,15.15q6.48,6.35,20.36,12.83,19.17-11.49,19-27.86Q1255.06,1021,1232,1021Z" transform="translate(-79.4 -93.68)"/>
  <path id="_9" data-name="9" class="cls-1" d="M1364.85,1152.38q15.47,0,23.64-16.19t8.66-41.31q-14.75,12.94-38.17,12.94t-36.82-13.31Q1309,1081,1309,1053t17.72-43.7q17.7-15.75,46-15.63,35.8,0,49.55,26.13,12.63,23.81,12.64,62.86,0,98.28-70.57,98.27-49-.12-56.67-42.92L1341.2,1128q2.19,12.77,7.8,18.66T1364.85,1152.38Zm4.77-129.52q-22.15,0-22.16,28.69t21.43,28.8q14,0,25.94-11.18-1-21.39-4.14-30.51t-8.4-12.4A22.36,22.36,0,0,0,1369.62,1022.86Z" transform="translate(-79.4 -93.68)"/>
</svg>
