<?xml version="1.0" encoding="utf-8"?>
<!-- Generator: Adobe Illustrator 23.0.4, SVG Export Plug-In . SVG Version: 6.00 Build 0)  -->
<svg version="1.1" id="Layer_1" xmlns="http://www.w3.org/2000/svg" xmlns:xlink="http://www.w3.org/1999/xlink" x="0px" y="0px"
	 viewBox="0 0 1651.1 1207" style="enable-background:new 0 0 1651.1 1207;" xml:space="preserve">
<style type="text/css">
	.st0{fill:#FFFFFF;}
</style>
<g>
	<g>
		<path class="st0" d="M54.4,269.8l74.3,160.9l42.6-6.5l25.8-182.2l4.4-0.7l26.6,174.2l46.2-7.1l-33.9-222.1L165,197.8l-21.9,169.5
			l-1.2,0.3L70.2,212.3L0,223l33.9,222.1l46.2-7.1L54.4,269.8z M324.2,373.3c20,17.9,47.5,24.1,82.6,18.7
			c35.1-5.4,60-19.9,74.8-43.5c14.7-23.5,19.5-52.8,14.2-88c-5.4-35.1-18-61.7-38-79.7c-19.9-18-47.1-24.4-81.6-19.3
			c-34.5,5.3-59.4,20.1-74.8,44.4c-15.4,24.3-20.4,53.8-15.1,88.5C291.6,329.1,304.3,355.4,324.2,373.3z M341.9,226.7
			c8.5-14.1,21.8-22.5,40.1-25.3c35.9-5.4,57.7,16.9,65.3,66.9c7.6,50-7.3,77.8-44.8,83.6c-37.5,5.7-60.1-16.3-67.7-66.2
			C331,260.5,333.4,240.8,341.9,226.7z M593.2,359.7l-23.9-156.8l109.4,143.8l57.9-8.8l-33.9-222.1l-46.2,7.1l24,157.4l-108-144.6
			l-59.4,9.1l33.9,222.1L593.2,359.7z M904.4,125.6l-6.1-39.8l-177.8,27.2l6.1,39.8l65.7-10L820.2,325l47.1-7.2l-27.8-182.3
			L904.4,125.6z M1004.5,296.8l-13.9-91.1l84.8-13l13.9,91.1l47.1-7.2l-33.9-222.1l-47.1,7.2l13.9,91.2l-84.8,13l-13.9-91.2
			l-47.1,7.2L957.4,304L1004.5,296.8z M1324.1,248l-6.1-39.8l-95,14.5l-27.8-182.3l-47.1,7.2l33.9,222.1L1324.1,248z M1373.6,240.4
			l47.1-7.2l-12.8-83.7L1459.2,0l-47.9,7.3l-32.1,102.2l-1.5,0.2l-63.1-87.7l-51.8,7.9l98.1,127.3L1373.6,240.4z M451.2,513.1
			l29.5,441.2l-3,1.3l-259.9-358L45,660.1L242.4,1207l113.8-41.2L206.7,751.5l269.3,370.9l104.9-38L554.9,609l10.8-3.9l154.9,428.8
			l113.8-41.2L636.9,445.9L451.2,513.1z M876.2,627.4l56.8,578.7l122.8-12.1L999,615.3L876.2,627.4z M1413.9,677.9l130.7-313.7
			L1418,385.7l-85.6,214.2l-149.9-174.2l-136.3,23.2L1270.8,703l-135.9,320.6l131.3-22.3l86.9-211.2l157.5,169.7l140.6-23.9
			L1413.9,677.9z"/>
	</g>
</g>
</svg>
