<?xml version="1.0" encoding="utf-8"?>
<!-- Generator: Adobe Illustrator 16.0.1, SVG Export Plug-In . SVG Version: 6.00 Build 0)  -->
<!DOCTYPE svg PUBLIC "-//W3C//DTD SVG 1.1//EN" "http://www.w3.org/Graphics/SVG/1.1/DTD/svg11.dtd">
<svg version="1.1" id="Layer_1" xmlns="http://www.w3.org/2000/svg" xmlns:xlink="http://www.w3.org/1999/xlink" x="0px" y="0px"
	 width="32px" height="32px" viewBox="0 0 32 32" enable-background="new 0 0 32 32" xml:space="preserve">
<g>
	<path d="M-97-51v30h-6v-30H-97 M-96-52h-8v32h8V-52L-96-52z"/>
</g>
<g>
	<path d="M-73-51v30h-6v-30H-73 M-72-52h-8v32h8V-52L-72-52z"/>
</g>
<g>
	<path d="M-85-51v30h-6v-30H-85 M-84-52h-8v32h8V-52L-84-52z"/>
</g>
<g>
	<path d="M-24-50v29h-24v-29l11.4,8.8l0.6,0.5l0.6-0.5L-24-50 M-23-52l-13,10l-13-10v32h26V-52L-23-52z"/>
</g>
<g>
	<path d="M18-50l16.3,29H1.7L18-50 M18-52L0-20h36L18-52L18-52z"/>
</g>
<g>
	<path d="M40-50l16.3,29H23.7L40-50 M40-52L22-20h36L40-52L40-52z"/>
</g>
<g>
	<path d="M87-47c7.2,0,13,5.8,13,13s-5.8,13-13,13s-13-5.8-13-13S79.8-47,87-47 M87-48c-7.7,0-14,6.3-14,14c0,7.7,6.3,14,14,14
		s14-6.3,14-14C101-41.7,94.7-48,87-48L87-48z"/>
</g>
<g>
	<path d="M91-51l-4,15.9L83-51H91 M92.2-52H81.8L87-31L92.2-52L92.2-52z"/>
</g>
<g>
	<path d="M-76,1v24h-24V1H-76 M-75,0h-26v26h26V0L-75,0z"/>
</g>
<g>
	<path d="M-85,7v24h-6V7H-85 M-84,6h-8v26h8V6L-84,6z"/>
</g>
<g>
	<path d="M-41,2l7.9,14L-41,30l-7.9-14L-41,2 M-41,0l-9,16l9,16l9-16L-41,0L-41,0z"/>
</g>
<g>
	<path d="M-31,2l7.9,14L-31,30l-7.9-14L-31,2 M-31,0l-9,16l9,16l9-16L-31,0L-31,0z"/>
</g>
<g>
	<path d="M23.1,6l-7.2,13L8.7,6H23 M25,5H7l9,16L25,5L25,5z"/>
</g>
<g>
	<path d="M11,1v30H1V1H11 M12,0H0v32h12V0L12,0z"/>
</g>
<g>
	<path d="M31,1v30H21V1H31 M32,0H20v32h12V0L32,0z"/>
</g>
<g>
	<path d="M109,3.4L130.6,24l-4.6,4.6l-16.3-16.3l-0.7-0.7l-0.7,0.7L92,28.6L75.7,12.3L75,11.6l-0.7,0.7L58,28.6L53.4,24L75,3.4
		l16.3,16.3l0.7,0.7l0.7-0.7L109,3.4 M109,2L92,19L75,2L52,24l6,6l17-17l17,17l17-17l17,17l6-6L109,2L109,2z"/>
</g>
</svg>
