<?xml version="1.0" encoding="utf-8"?>
<!-- Generator: Adobe Illustrator 23.0.4, SVG Export Plug-In . SVG Version: 6.00 Build 0)  -->
<svg version="1.1" id="Layer_1" xmlns="http://www.w3.org/2000/svg" xmlns:xlink="http://www.w3.org/1999/xlink" x="0px" y="0px"
	 viewBox="0 0 531.6 200" style="enable-background:new 0 0 531.6 200;" xml:space="preserve">
<g>
	<path d="M119.5,141.2V36.1h30.8v104.2c0,28.6-15.1,43-45.4,43.1c-28.4,0-43-13.6-43.9-40.9l29.6-4.4c0.6,7.2,1.9,12.3,3.8,15.4
		c1.9,3.1,5.4,4.7,10.4,4.7c5.1,0,8.8-1.3,11.2-3.9C118.3,151.6,119.5,147.3,119.5,141.2z"/>
</g>
<g>
	<path d="M201.4,149.4c3.9,5.3,11,8,21.1,8c10.2,0,17.2-2.5,20.9-7.4c3.8-4.9,5.7-13.5,5.7-25.8V36.1h30.8v92.6
		c0,36.4-19.4,54.6-58.2,54.7c-19.8,0.1-34.3-4.4-43.3-13.4c-9.1-9-13.6-23-13.5-42.1V36.1h30.8v87.5
		C195.6,135.5,197.5,144,201.4,149.4z"/>
</g>
<g>
	<path d="M340.6,36.1v118.8h62v26h-92.8V36.1H340.6z"/>
</g>
<g>
	<path d="M469,180.9h-30.8v-54.2L388,36.1h33.8l31.7,62h1l30.4-62h31.2L469,126.3V180.9z"/>
</g>
</svg>
